<?xml version="1.0" encoding="utf-8"?>
<!-- Generator: Adobe Illustrator 27.5.0, SVG Export Plug-In . SVG Version: 6.00 Build 0)  -->
<svg version="1.1" xmlns="http://www.w3.org/2000/svg" xmlns:xlink="http://www.w3.org/1999/xlink" x="0px" y="0px"
	 viewBox="0 0 500 500" style="enable-background:new 0 0 500 500;" xml:space="preserve">
<g id="Background_Complete">
	<g>
		<g>
			<g>
				<g>
					<rect x="41.151" y="88.84" style="fill:#FAFAFA;" width="173.59" height="155.304"/>
				</g>
			</g>
			<g>
				<g>
					<g>
						<path style="fill:#E0E0E0;" d="M214.741,244.145c0,0-0.029-0.996-0.044-2.883c-0.01-1.906-0.025-4.692-0.045-8.321
							c-0.023-7.292-0.058-17.95-0.102-31.525c-0.049-27.135-0.118-65.91-0.202-112.575l0.393,0.393
							c-49.993,0.02-109.655,0.044-173.575,0.07h-0.016l0.464-0.464c-0.02,56.502-0.039,109.669-0.056,155.304l-0.408-0.408
							c51.786,0.085,95.129,0.157,125.553,0.206c15.222,0.046,27.206,0.083,35.412,0.107c4.088,0.021,7.229,0.037,9.375,0.048
							c1.05,0.01,1.853,0.018,2.417,0.023C214.452,244.129,214.741,244.145,214.741,244.145s-0.258,0.015-0.787,0.023
							c-0.554,0.005-1.342,0.013-2.373,0.023c-2.128,0.011-5.242,0.027-9.295,0.048c-8.184,0.025-20.138,0.062-35.32,0.108
							c-30.488,0.05-73.922,0.121-125.816,0.206l-0.408,0.001v-0.409c-0.016-45.634-0.035-98.802-0.056-155.304v-0.464h0.464h0.016
							c63.92,0.026,123.582,0.05,173.575,0.07h0.395l-0.001,0.394c-0.084,46.769-0.154,85.629-0.202,112.824
							c-0.044,13.537-0.078,24.166-0.102,31.437c-0.02,3.597-0.035,6.358-0.045,8.246
							C214.77,243.207,214.741,244.145,214.741,244.145z"/>
					</g>
				</g>
			</g>
		</g>
		<g>
			<g>
				<g>
					<path style="fill:#E0E0E0;" d="M107.711,116.435c0,0.256-9.137,0.464-20.405,0.464c-11.273,0-20.408-0.208-20.408-0.464
						c0-0.256,9.135-0.464,20.408-0.464C98.574,115.971,107.711,116.179,107.711,116.435z"/>
				</g>
			</g>
		</g>
		<g>
			<g>
				<g>
					<path style="fill:#E0E0E0;" d="M181.264,128.096c0,0.256-25.102,0.464-56.059,0.464c-30.968,0-56.065-0.207-56.065-0.464
						c0-0.256,25.096-0.464,56.065-0.464C156.163,127.632,181.264,127.84,181.264,128.096z"/>
				</g>
			</g>
		</g>
		<g>
			<g>
				<rect x="67.197" y="147.848" style="fill:#E0E0E0;" width="7.314" height="7.313"/>
			</g>
		</g>
		<g>
			<g>
				<rect x="85.199" y="147.848" style="fill:#E0E0E0;" width="7.313" height="7.313"/>
			</g>
		</g>
		<g>
			<g>
				<rect x="103.534" y="147.516" style="fill:#E0E0E0;" width="7.313" height="7.313"/>
			</g>
		</g>
		<g>
			<g>
				<rect x="121.204" y="147.848" style="fill:#E0E0E0;" width="7.313" height="7.313"/>
			</g>
		</g>
		<g>
			<g>
				<rect x="139.206" y="147.848" style="fill:#E0E0E0;" width="7.313" height="7.313"/>
			</g>
		</g>
		<g>
			<g>
				<rect x="157.208" y="147.848" style="fill:#E0E0E0;" width="7.313" height="7.313"/>
			</g>
		</g>
		<g>
			<g>
				<rect x="175.21" y="147.848" style="fill:#EBEBEB;" width="7.313" height="7.313"/>
			</g>
		</g>
		<g>
			<g>
				<rect x="67.197" y="163.396" style="fill:#EBEBEB;" width="7.314" height="7.313"/>
			</g>
		</g>
		<g>
			<g>
				<rect x="85.199" y="163.396" style="fill:#E0E0E0;" width="7.313" height="7.313"/>
			</g>
		</g>
		<g>
			<g>
				<rect x="103.201" y="163.396" style="fill:#EBEBEB;" width="7.314" height="7.313"/>
			</g>
		</g>
		<g>
			<g>
				<rect x="121.204" y="163.396" style="fill:#E0E0E0;" width="7.313" height="7.313"/>
			</g>
		</g>
		<g>
			<g>
				<rect x="139.206" y="163.396" style="fill:#E0E0E0;" width="7.313" height="7.313"/>
			</g>
		</g>
		<g>
			<g>
				<rect x="157.54" y="163.064" style="fill:#E0E0E0;" width="7.313" height="7.313"/>
			</g>
		</g>
		<g>
			<g>
				<rect x="175.21" y="163.396" style="fill:#E0E0E0;" width="7.313" height="7.313"/>
			</g>
		</g>
		<g>
			<g>
				<rect x="67.197" y="178.944" style="fill:#E0E0E0;" width="7.314" height="7.313"/>
			</g>
		</g>
		<g>
			<g>
				<rect x="85.531" y="178.611" style="fill:#E0E0E0;" width="7.313" height="7.313"/>
			</g>
		</g>
		<g>
			<g>
				<rect x="103.201" y="178.944" style="fill:#E0E0E0;" width="7.314" height="7.313"/>
			</g>
		</g>
		<g>
			<g>
				<rect x="121.204" y="178.944" style="fill:#EBEBEB;" width="7.313" height="7.313"/>
			</g>
		</g>
		<g>
			<g>
				<rect x="139.206" y="178.944" style="fill:#E0E0E0;" width="7.313" height="7.313"/>
			</g>
		</g>
		<g>
			<g>
				<rect x="157.208" y="178.944" style="fill:#E0E0E0;" width="7.313" height="7.313"/>
			</g>
		</g>
		<g>
			<g>
				<rect x="175.21" y="178.944" style="fill:#E0E0E0;" width="7.313" height="7.313"/>
			</g>
		</g>
		<g>
			<g>
				<rect x="67.197" y="194.491" style="fill:#E0E0E0;" width="7.314" height="7.314"/>
			</g>
		</g>
		<g>
			<g>
				<rect x="85.199" y="194.491" style="fill:#E0E0E0;" width="7.313" height="7.314"/>
			</g>
		</g>
		<g>
			<g>
				<rect x="103.201" y="194.491" style="fill:#E0E0E0;" width="7.314" height="7.314"/>
			</g>
		</g>
		<g>
			<g>
				<rect x="121.536" y="194.159" style="fill:#E0E0E0;" width="7.313" height="7.313"/>
			</g>
		</g>
		<g>
			<g>
				<rect x="139.206" y="194.491" style="fill:#E0E0E0;" width="7.313" height="7.314"/>
			</g>
		</g>
		<g>
			<g>
				<rect x="157.208" y="194.491" style="fill:#EBEBEB;" width="7.313" height="7.314"/>
			</g>
		</g>
		<g>
			<g>
				<rect x="175.21" y="194.491" style="fill:#E0E0E0;" width="7.313" height="7.314"/>
			</g>
		</g>
		<g>
			<g>
				<rect x="67.197" y="210.039" style="fill:#E0E0E0;" width="7.314" height="7.313"/>
			</g>
		</g>
		<g>
			<g>
				<rect x="85.199" y="210.039" style="fill:#EBEBEB;" width="7.313" height="7.313"/>
			</g>
		</g>
		<g>
			<g>
				<rect x="103.201" y="210.039" style="fill:#E0E0E0;" width="7.314" height="7.313"/>
			</g>
		</g>
		<g>
			<g>
				<rect x="121.204" y="210.039" style="fill:#E0E0E0;" width="7.313" height="7.313"/>
			</g>
		</g>
		<g>
			<g>
				<rect x="139.206" y="210.039" style="fill:#E0E0E0;" width="7.313" height="7.313"/>
			</g>
		</g>
		<g>
			<g>
				<rect x="157.54" y="209.707" style="fill:#E0E0E0;" width="7.313" height="7.313"/>
			</g>
		</g>
		<g>
			<g>
				<rect x="175.21" y="210.039" style="fill:#E0E0E0;" width="7.313" height="7.313"/>
			</g>
		</g>
	</g>
	<g>
		<g>
			<g>
				<g>
					<g>
						<g>
							
								<rect x="399.755" y="51.915" transform="matrix(1 -0.0054 0.0054 1 -0.4212 2.1739)" style="fill:#E0E0E0;" width="11.156" height="55.509"/>
						</g>
					</g>
				</g>
			</g>
		</g>
		<g>
			<g>
				<g>
					<g>
						<g>
							<g>
								
									<rect x="303.045" y="52.108" transform="matrix(1 -0.0053 0.0053 1 -0.3561 1.6989)" style="fill:#EBEBEB;" width="28.889" height="30.645"/>
							</g>
						</g>
					</g>
				</g>
			</g>
			<g>
				<g>
					<g>
						<g>
							<g>
								
									<rect x="331.796" y="51.954" transform="matrix(1 -0.0054 0.0054 1 -0.3551 1.8539)" style="fill:#F5F5F5;" width="28.889" height="30.645"/>
							</g>
						</g>
					</g>
				</g>
			</g>
			<g>
				<g>
					<g>
						<g>
							<g>
								<g>
									<path style="fill:#E0E0E0;" d="M303.008,60.649c19.198,0.158,38.444,0.047,57.64-0.265
										c0.395-0.006,0.392-0.612-0.004-0.614c-19.198-0.106-38.444-0.012-57.639,0.353
										C302.667,60.129,302.669,60.646,303.008,60.649L303.008,60.649z"/>
								</g>
							</g>
						</g>
					</g>
				</g>
			</g>
		</g>
		<g>
			<g>
				<g>
					<g>
						<g>
							<g>
								
									<rect x="285.018" y="82.304" transform="matrix(1 -0.0054 0.0054 1 -0.5034 1.669)" style="fill:#EBEBEB;" width="52.486" height="24.973"/>
							</g>
						</g>
					</g>
				</g>
			</g>
			<g>
				<g>
					<g>
						<g>
							<g>
								
									<rect x="337.255" y="82.025" transform="matrix(1 -0.0054 0.0054 1 -0.5011 1.9488)" style="fill:#F5F5F5;" width="52.486" height="24.973"/>
							</g>
						</g>
					</g>
				</g>
			</g>
			<g>
				<g>
					<g>
						<g>
							<g>
								<g>
									<path style="fill:#E0E0E0;" d="M284.989,89.391c34.867,0.395,69.857,0.041,104.723-0.517
										c0.395-0.007,0.393-0.612-0.003-0.614c-34.87-0.184-69.861-0.164-104.722,0.605
										C284.648,88.872,284.65,89.387,284.989,89.391L284.989,89.391z"/>
								</g>
							</g>
						</g>
					</g>
				</g>
			</g>
		</g>
		<g>
			<g>
				<g>
					<g>
						<g>
							<rect x="265.361" y="107.418" style="fill:#E0E0E0;" width="203.346" height="8.947"/>
						</g>
					</g>
				</g>
			</g>
			<g>
				<g>
					<g>
						<g>
							<rect x="298.653" y="111.72" style="fill:#E0E0E0;" width="8.255" height="30.528"/>
						</g>
					</g>
				</g>
			</g>
			<g>
				<g>
					<g>
						<g>
							<rect x="421.88" y="111.72" style="fill:#E0E0E0;" width="8.255" height="30.528"/>
						</g>
					</g>
				</g>
			</g>
		</g>
		<g>
			<g>
				<g>
					<g>
						<g>
							
								<rect x="410.696" y="31.216" transform="matrix(1 -0.0054 0.0054 1 -0.366 2.2324)" style="fill:#EBEBEB;" width="11.156" height="76.345"/>
						</g>
					</g>
				</g>
			</g>
		</g>
		<g>
			<g>
				<g>
					<g>
						<g>
							<g>
								
									<rect x="421.91" y="45.444" transform="matrix(1 -0.0054 0.0054 1 -0.404 2.3137)" style="fill:#F5F5F5;" width="17.334" height="61.869"/>
							</g>
						</g>
					</g>
				</g>
			</g>
			<g>
				<g>
					<g>
						<g>
							<g>
								<path style="fill:#E0E0E0;" d="M438.961,57.317c0,0.166-3.881,0.3-8.667,0.3c-4.787,0-8.667-0.135-8.667-0.3
									c0-0.166,3.88-0.3,8.667-0.3C435.081,57.017,438.961,57.152,438.961,57.317z"/>
							</g>
						</g>
					</g>
				</g>
			</g>
			<g>
				<g>
					<g>
						<g>
							<g>
								<path style="fill:#E0E0E0;" d="M438.961,54.718c0,0.166-3.881,0.3-8.667,0.3c-4.787,0-8.667-0.134-8.667-0.3
									c0-0.166,3.88-0.3,8.667-0.3C435.081,54.418,438.961,54.552,438.961,54.718z"/>
							</g>
						</g>
					</g>
				</g>
			</g>
			<g>
				<g>
					<g>
						<g>
							<g>
								<path style="fill:#E0E0E0;" d="M438.961,97.958c0,0.166-3.881,0.3-8.667,0.3c-4.787,0-8.667-0.134-8.667-0.3
									c0-0.166,3.88-0.3,8.667-0.3C435.081,97.658,438.961,97.792,438.961,97.958z"/>
							</g>
						</g>
					</g>
				</g>
			</g>
			<g>
				<g>
					<g>
						<g>
							<g>
								<path style="fill:#E0E0E0;" d="M438.961,95.359c0,0.166-3.881,0.3-8.667,0.3c-4.787,0-8.667-0.134-8.667-0.3
									c0-0.166,3.88-0.3,8.667-0.3C435.081,95.059,438.961,95.193,438.961,95.359z"/>
							</g>
						</g>
					</g>
				</g>
			</g>
			<g>
				<g>
					<g>
						<g>
							<g>
								<path style="fill:#E0E0E0;" d="M430.573,89.688c-0.166,0-0.3-6.242-0.3-13.94c0-7.701,0.134-13.941,0.3-13.941
									c0.166,0,0.3,6.241,0.3,13.941C430.874,83.446,430.739,89.688,430.573,89.688z"/>
							</g>
						</g>
					</g>
				</g>
			</g>
		</g>
		<g>
			<g>
				<g>
					<g>
						<g>
							<rect x="439.149" y="60.591" style="fill:#EBEBEB;" width="18.868" height="46.698"/>
						</g>
					</g>
				</g>
			</g>
		</g>
		<g>
			<g>
				<g>
					<g>
						<path style="fill:#E0E0E0;" d="M419.112,44.221c0,1.771-1.435,3.206-3.206,3.206c-1.771,0-3.206-1.435-3.206-3.206
							c0-1.771,1.435-3.206,3.206-3.206C417.676,41.015,419.112,42.45,419.112,44.221z"/>
					</g>
				</g>
			</g>
		</g>
		<g>
			<g>
				<g>
					<g>
						<rect x="414.915" y="53.039" style="fill:#E0E0E0;" width="1.982" height="45.416"/>
					</g>
				</g>
			</g>
		</g>
	</g>
</g>
<g id="Background_Simple" style="display:none;">
	<path style="display:inline;fill:#EBEBEB;" d="M444.212,115.002l-2.55-4.149C420.17,75.88,381.31,54.797,340.34,57.355
		c-5.267,0.329-10.511,1.033-15.684,2.126c-37.25,7.874-69.663,35.69-83.098,71.314c-7.901,20.951-10.109,45.074-25.103,61.704
		c-19.514,21.643-52.644,22.323-81.772,21.426c-29.128-0.897-62.28-0.132-81.699,21.597c-12.162,13.608-16.027,32.96-15.046,51.184
		c2.596,48.25,20.519,90.755,63.819,112.199c43.3,21.444,110.407,24.001,157.797,14.568
		c66.387-13.215,129.521-49.505,167.469-105.557S474.574,175.5,444.212,115.002z"/>
</g>
<g id="Plant">
	<g>
		<g>
			<g>
				<g>
					<g>
						<path style="fill:#E8505B;" d="M74.262,342.833c5.233-2.7,11.396-3.051,17.206-2.091c3.121,0.516,6.375,1.45,8.499,3.794
							c2.124,2.345,2.526,6.471,0.088,8.485c-1.452,1.199-3.476,1.381-5.359,1.36c-4.548-0.053-9.595-0.854-13.228,1.883
							c-2.073,1.561-3.453,4.157-5.932,4.925c-2.425,0.751-5.161-0.68-6.447-2.868c-1.286-2.189-1.329-4.924-0.729-7.391
							C68.36,350.93,68.991,345.553,74.262,342.833z"/>
					</g>
				</g>
			</g>
			<g>
				<g>
					<g>
						<path style="fill:#E8505B;" d="M62.273,319.688c3.2,4.57,9.42,3.057,12.303,0.268c2.884-2.79,4.103-6.833,5.212-10.689
							c2.535-8.81,5.091-18.052,3.206-27.023c-0.564-2.682-1.567-5.357-3.451-7.347c-1.885-1.99-4.783-3.174-7.433-2.474
							c-3.136,0.829-5.085,3.9-6.493,6.822c-4.141,8.588-6.333,18.109-6.365,27.644C59.236,311.342,59.761,316.012,62.273,319.688"
							/>
					</g>
				</g>
			</g>
			<g>
				<g>
					<g>
						<path style="fill:#E8505B;" d="M53.485,326.246c3.475-4.124,4.134-10.138,2.588-15.304c-1.546-5.166-5.039-9.561-9.064-13.149
							c-4.72-4.207-10.267-7.48-16.231-9.577c-2.347-0.825-4.823-1.476-7.3-1.24c-2.477,0.236-4.971,1.503-6.126,3.706
							c-1.708,3.258-0.07,7.21,1.701,10.433c3.121,5.68,6.689,11.113,10.661,16.235c3.195,4.12,6.856,8.183,11.726,10.045
							c4.87,1.862,9.929,1.643,12.51-1.735"/>
					</g>
				</g>
			</g>
			<g>
				<g>
					<g>
						<g>
							<path style="fill:#263238;" d="M62.056,388.632c0.06,0.004,0.157-0.737,0.289-2.077c0.147-1.512,0.332-3.41,0.552-5.668
								c0.264-2.385,0.612-5.223,1.275-8.314c0.66-3.083,1.694-6.424,3.022-9.812c1.375-3.368,3.051-6.43,5.011-8.878
								c1.945-2.459,4.208-4.239,6.334-5.266c2.119-1.047,4.021-1.472,5.334-1.661c1.325-0.136,2.067-0.241,2.068-0.299
								c0.001-0.059-0.743-0.069-2.104-0.033c-1.349,0.09-3.328,0.432-5.563,1.448c-2.241,0.994-4.641,2.802-6.682,5.312
								c-2.057,2.5-3.794,5.629-5.193,9.057c-1.351,3.448-2.369,6.823-3,9.972c-0.629,3.144-0.917,6.014-1.105,8.419
								c-0.18,2.407-0.248,4.356-0.281,5.703C61.982,387.882,61.998,388.629,62.056,388.632z"/>
						</g>
					</g>
				</g>
			</g>
			<g>
				<g>
					<g>
						<g>
							<path style="fill:#263238;" d="M62.447,384.271c0.029-0.001,0.048-0.333,0.056-0.964c-0.002-0.724-0.004-1.636-0.007-2.756
								c-0.007-2.391-0.006-5.852,0.123-10.126c0.212-8.547,0.948-17.746,2.369-30.715c1.346-12.195,3.153-26.387,5.059-35.613
								c0.409-2.099,0.821-3.987,1.208-5.641c0.369-1.658,0.685-3.086,0.99-4.243c0.262-1.088,0.475-1.975,0.644-2.678
								c0.138-0.615,0.197-0.943,0.169-0.951c-0.028-0.008-0.143,0.303-0.335,0.904c-0.21,0.693-0.475,1.567-0.8,2.641
								c-0.355,1.145-0.719,2.565-1.134,4.216c-0.433,1.647-0.887,3.531-1.335,5.626c-1.886,8.361-3.884,20.046-5.319,33.046
								c-1.424,12.996-2.066,24.829-2.123,33.397c-0.051,4.284,0.04,7.752,0.15,10.146c0.068,1.119,0.124,2.03,0.168,2.754
								C62.378,383.943,62.417,384.273,62.447,384.271z"/>
						</g>
					</g>
				</g>
			</g>
			<g>
				<g>
					<g>
						<g>
							<path style="fill:#263238;" d="M62.504,361.449c0.06-0.002,0.049-1.025-0.02-2.879c-0.106-1.85-0.36-4.524-0.882-7.799
								c-0.552-3.267-1.324-7.147-2.536-11.363c-0.525-1.927-1.76-6.545-4.752-13.446c-3.941-9.35-9.296-16.993-13.954-21.728
								c-1.093-1.257-2.309-2.163-3.283-3.051c-0.504-0.426-0.949-0.85-1.402-1.187c-0.456-0.314-0.88-0.607-1.274-0.878
								c-1.533-1.048-2.392-1.601-2.424-1.552c-0.138,0.187,3.434,2.289,7.944,7.087c4.491,4.788,9.697,12.379,13.606,21.65
								c2.18,5.029,3.7,9.514,4.778,13.322c1.246,4.175,2.074,8.016,2.699,11.25c0.594,3.242,0.939,5.889,1.146,7.722
								C62.322,360.433,62.445,361.451,62.504,361.449z"/>
						</g>
					</g>
				</g>
			</g>
		</g>
		<g>
			<g>
				<g>
					<polygon style="fill:#263238;" points="40.445,401.708 42.731,433.038 82.981,433.038 85.268,401.708 					"/>
				</g>
			</g>
		</g>
		<g>
			<g>
				<g>
					<rect x="36.557" y="389.358" style="fill:#263238;" width="53.513" height="12.349"/>
				</g>
			</g>
		</g>
		<g>
			<g>
				<g>
					<polygon style="fill:#455A64;" points="36.557,431.839 36.557,435.263 39.071,435.263 89.186,435.263 89.186,431.839 					"/>
				</g>
			</g>
		</g>
		<g>
			<g>
				<g>
					<polygon style="fill:#455A64;" points="41.536,441.287 39.071,435.263 87.269,435.263 84.394,441.287 					"/>
				</g>
			</g>
		</g>
		<g>
			<g>
				<g>
					<g>
						<path style="fill:#E0E0E0;" d="M84.521,411.947c0.009,0.007-0.055,0.105-0.188,0.288c-0.16,0.212-0.358,0.474-0.601,0.798
							c-0.572,0.732-1.357,1.737-2.345,3.001l-0.104,0.133l-0.101-0.139c-1.474-2.038-3.443-4.762-5.76-7.967h0.331
							c-1.714,2.426-3.622,5.129-5.671,8.031l-0.178,0.252l-0.199-0.237c-2.093-2.49-4.366-5.195-6.726-8.003l0.388-0.005
							c-0.117,0.147-0.243,0.306-0.37,0.465c-2.086,2.615-4.105,5.146-6.014,7.54l-0.201,0.251l-0.185-0.262
							c-2.042-2.889-3.95-5.588-5.674-8.029l0.33,0.016c-2.796,3.186-5.168,5.888-6.988,7.962l-0.124,0.141l-0.095-0.159
							c-0.921-1.548-1.656-2.782-2.188-3.676c-0.229-0.399-0.414-0.721-0.561-0.979c-0.123-0.224-0.182-0.342-0.171-0.349
							c0.011-0.007,0.09,0.099,0.234,0.31c0.163,0.248,0.368,0.558,0.621,0.942c0.559,0.878,1.33,2.09,2.297,3.609l-0.219-0.018
							c1.791-2.099,4.125-4.834,6.876-8.059l0.173-0.203l0.157,0.219c1.74,2.429,3.665,5.116,5.725,7.992l-0.385-0.01
							c1.905-2.397,3.919-4.932,6-7.551c0.127-0.159,0.253-0.318,0.37-0.465l0.191-0.24l0.197,0.235
							c2.353,2.813,4.62,5.523,6.707,8.018l-0.376,0.015c2.07-2.887,3.997-5.576,5.728-7.99l0.168-0.234l0.164,0.234
							c2.269,3.241,4.196,5.993,5.639,8.054l-0.205-0.006c1.028-1.232,1.844-2.211,2.439-2.924c0.265-0.306,0.48-0.555,0.653-0.756
							C84.429,412.023,84.511,411.94,84.521,411.947z"/>
					</g>
				</g>
			</g>
		</g>
		<g>
			<g>
				<g>
					<g>
						<path style="fill:#455A64;" d="M85.828,401.501c0,0.139-10.085,0.251-22.523,0.251c-12.442,0-22.525-0.112-22.525-0.251
							c0-0.138,10.083-0.25,22.525-0.25C75.743,401.25,85.828,401.362,85.828,401.501z"/>
					</g>
				</g>
			</g>
		</g>
		<g>
			<g>
				<g>
					<g>
						<path style="fill:#263238;" d="M87.861,435.6c0,0.138-10.961,0.251-24.478,0.251c-13.522,0-24.481-0.112-24.481-0.251
							c0-0.138,10.958-0.25,24.481-0.25C76.901,435.349,87.861,435.461,87.861,435.6z"/>
					</g>
				</g>
			</g>
		</g>
	</g>
</g>
<g id="Chair">
	<g>
		<path style="fill:#455A64;" d="M471.749,441.855H347.972V324.237c0-8.354,6.772-15.126,15.126-15.126h93.526
			c8.354,0,15.126,6.772,15.126,15.126V441.855z"/>
		<g>
			<path style="fill:#263238;" d="M461.343,309.788c0.144,0,0.26,29.552,0.26,65.997c0,36.458-0.117,66.003-0.26,66.003
				c-0.144,0-0.26-29.545-0.26-66.003C461.083,339.34,461.199,309.788,461.343,309.788z"/>
		</g>
	</g>
</g>
<g id="Character">
	<g>
		<g>
			<path style="fill:#263238;" d="M400.364,165.002c11.34,16.166,17.951,35.609,18.814,55.337c0.582,13.3-1.208,27.474,5.104,39.196
				c9.055,16.816,28.649,16.245,34.648,34.377c2.609,7.886-2.201,25.242-3.498,33.447c-1.474,9.326,4.23,17.157,2.757,26.482
				c-1.351,8.549-7.748,14.65-15.433,18.631c-6.836,3.541-13.157,3.635-20.27,0.69c-13.553-5.61-24.833-11.533-34.489-22.574
				c-13.557-15.501-17.652-36.965-19.968-57.427c-5.107-45.113-4.072-90.917,3.069-135.753"/>
			<g>
				<path style="fill:#455A64;" d="M429.348,375.068c0,0,0.147-0.046,0.437-0.109c0.289-0.069,0.726-0.136,1.281-0.304
					c1.115-0.295,2.751-0.827,4.683-1.872c1.92-1.039,4.193-2.568,6.185-4.96c0.984-1.192,1.885-2.62,2.418-4.288
					c0.509-1.67,0.739-3.547,0.845-5.495c0.193-3.92-0.405-8.209-1.296-12.742c-0.872-4.537-2.055-9.381-2.34-14.623
					c-0.136-2.612-0.023-5.328,0.566-8.018c0.557-2.697,1.531-5.331,2.542-7.979c1.017-2.647,2.089-5.322,2.865-8.124
					c0.734-2.797,1.185-5.766,0.693-8.699c-0.426-2.936-1.63-5.683-3.244-8.083c-1.612-2.414-3.615-4.496-5.671-6.425
					c-4.132-3.856-8.603-7.04-12.423-10.616c-7.708-7.099-12.899-15.177-16.179-22.337c-1.635-3.593-2.89-6.949-3.725-9.973
					c-0.48-1.494-0.754-2.931-1.097-4.229c-0.257-1.316-0.492-2.519-0.704-3.604c-0.318-2.184-0.55-3.88-0.613-5.041
					c-0.043-0.56-0.077-0.996-0.102-1.316c-0.02-0.297-0.017-0.45-0.017-0.45s0.033,0.15,0.07,0.445
					c0.037,0.318,0.088,0.753,0.153,1.31c0.097,1.156,0.361,2.844,0.709,5.016c0.225,1.079,0.474,2.275,0.747,3.583
					c0.357,1.29,0.643,2.718,1.135,4.202c0.858,3.003,2.131,6.335,3.779,9.9c3.306,7.105,8.498,15.11,16.17,22.139
					c3.798,3.54,8.277,6.717,12.446,10.596c2.074,1.942,4.105,4.047,5.753,6.509c1.649,2.447,2.891,5.273,3.33,8.297
					c0.505,3.024,0.039,6.073-0.708,8.91c-0.789,2.843-1.87,5.532-2.888,8.172c-1.013,2.641-1.981,5.25-2.532,7.899
					c-0.583,2.64-0.701,5.308-0.573,7.891c0.267,5.182,1.428,10.014,2.284,14.565c0.875,4.548,1.458,8.876,1.24,12.842
					c-0.122,1.978-0.361,3.855-0.898,5.58c-0.563,1.716-1.497,3.166-2.509,4.371c-2.049,2.416-4.363,3.931-6.315,4.953
					c-1.964,1.026-3.622,1.53-4.752,1.794C429.96,375.026,429.348,375.068,429.348,375.068z"/>
			</g>
		</g>
		<g>
			<g>
				<g>
					<path style="fill:#E8505B;" d="M243.164,410.801l47.988-22.793c0,0,18.69-90.745,22.223-97.56
						c3.534-6.815,18.306-12.703,18.306-12.703l-2.475,122.88l-4.384,28.345l-67.679,6.412L243.164,410.801z"/>
					<g>
						<g>
							<path style="fill:#FFBE9D;" d="M202.205,432.298c-0.265-0.01-1.6,0.826-0.481,2.932c1.119,2.107,9.243,9.075,11.634,6.648
								c2.392-2.427-1.261-5.389-1.261-5.389L202.205,432.298z"/>
						</g>
						<g>
							<g>
								<g>
									<path style="fill:#FFBE9D;" d="M212.443,436.584c0,0,9.812,1.237,13.591,2.674c4.104,1.559,9.101,0.497,12.464-1.783
										c3.363-2.279,5.324-4.338,5.324-4.338l12.519-0.197c0,0,6.01-6.229,2.442-15.512c-0.622-1.619-1.294-2.9-2.868-4.886
										c-1.487-1.608-3.835-2.912-7.893-3.613l-14.873,3.212c0,0-23.043-1.647-27.138,0.29c0,0-5.148,3.054-6.742,4.334
										c-0.6,0.482-2.425,6.346,1.323,9.394c0,0-3.263,2.595-1.495,4.922l0.847,1.033c0,0-2.194,2.84-1.068,4.076
										c1.126,1.236,10.986,7.015,14.512,5.637C216.914,440.449,213.996,437.182,212.443,436.584"/>
								</g>
							</g>
						</g>
						<g>
							<g>
								<path style="fill:#EB996E;" d="M203.058,421.092c0.012-0.027,0.442,0.139,1.219,0.435c0.777,0.296,1.905,0.716,3.32,1.166
									c0.707,0.225,1.487,0.455,2.331,0.677c0.84,0.23,1.759,0.41,2.711,0.719c0.941,0.313,1.957,0.756,2.702,1.63
									c0.706,0.842,1.186,2.099,0.722,3.291c-0.226,0.585-0.7,1.031-1.217,1.308c-0.526,0.272-1.091,0.4-1.639,0.457
									c-1.105,0.105-2.144-0.035-3.127-0.165c-1.966-0.3-3.679-0.827-5.085-1.325c-1.409-0.498-2.52-0.969-3.287-1.296
									c-0.765-0.33-1.181-0.529-1.171-0.555c0.011-0.027,0.447,0.122,1.23,0.407c0.784,0.281,1.909,0.71,3.321,1.17
									c1.409,0.46,3.113,0.952,5.046,1.226c0.964,0.119,1.997,0.245,3.03,0.14c0.515-0.055,1.031-0.179,1.491-0.417
									c0.449-0.244,0.843-0.619,1.029-1.103c0.391-0.976-0.01-2.115-0.65-2.878c-0.653-0.779-1.608-1.221-2.514-1.529
									c-0.918-0.309-1.837-0.504-2.682-0.75c-0.846-0.238-1.626-0.486-2.332-0.73c-1.412-0.488-2.529-0.952-3.29-1.294
									C203.455,421.333,203.047,421.117,203.058,421.092z"/>
							</g>
						</g>
						<g>
							<g>
								<path style="fill:#EB996E;" d="M203.941,413.998c0.012-0.027,0.44,0.14,1.212,0.44c0.773,0.297,1.892,0.727,3.296,1.195
									c1.403,0.469,3.091,0.976,4.991,1.431c0.937,0.24,2.019,0.432,2.91,1.177c0.436,0.368,0.767,0.91,0.854,1.505
									c0.094,0.592-0.012,1.203-0.254,1.75c-0.493,1.12-1.531,1.837-2.568,2.186c-1.05,0.36-2.142,0.384-3.128,0.248
									c-1.986-0.298-3.62-1.01-5.03-1.456c-1.349-0.472-2.466-0.863-3.316-1.161c-0.78-0.283-1.207-0.452-1.198-0.479
									c0.009-0.027,0.453,0.091,1.248,0.327c0.86,0.266,1.991,0.615,3.357,1.037c1.421,0.413,3.078,1.094,4.987,1.357
									c0.951,0.121,1.974,0.087,2.95-0.253c0.962-0.328,1.894-0.991,2.324-1.972c0.452-0.967,0.303-2.156-0.489-2.788
									c-0.763-0.654-1.799-0.87-2.736-1.113c-1.909-0.479-3.598-1.018-4.996-1.524c-1.399-0.505-2.506-0.978-3.263-1.321
									C204.336,414.239,203.93,414.022,203.941,413.998z"/>
							</g>
						</g>
						<g>
							<g>
								<path style="fill:#EB996E;" d="M208.67,416.025c-0.119-0.001-0.184-0.903-0.446-1.972c-0.253-1.071-0.605-1.904-0.499-1.959
									c0.092-0.055,0.629,0.734,0.898,1.863C208.897,415.085,208.777,416.032,208.67,416.025z"/>
							</g>
						</g>
						<g>
							<g>
								<path style="fill:#FFBE9D;" d="M243.298,416.319l-8.748-3.371c0,0-24.291-11.337-24.702-10.723
									c-0.41,0.614-1.727,0.547-1.439,3.509c0.288,2.961,14.444,8.932,14.891,9.959c0.448,1.027-0.299,6.214,4.929,9.929
									c5.228,3.716,9.001,3.796,9.001,3.796"/>
							</g>
							<g>
								<g>
									<path style="fill:#EB996E;" d="M237.23,429.418c0,0.007-0.071,0.012-0.208,0.007c-0.137-0.006-0.341-0.021-0.605-0.059
										c-0.529-0.074-1.305-0.232-2.272-0.545c-0.967-0.311-2.121-0.787-3.39-1.476c-1.256-0.704-2.684-1.541-4.028-2.793
										c-1.346-1.238-2.447-3.024-2.982-5.114c-0.281-1.038-0.38-2.167-0.517-3.266c-0.017-0.14-0.048-0.264-0.086-0.376
										c-0.029-0.076-0.119-0.146-0.229-0.234c-0.217-0.163-0.464-0.312-0.71-0.46c-0.497-0.293-1.015-0.573-1.541-0.855
										c-2.107-1.122-4.349-2.257-6.611-3.557c-1.131-0.65-2.268-1.34-3.373-2.127c-0.548-0.4-1.09-0.822-1.583-1.321
										c-0.249-0.246-0.475-0.527-0.667-0.844c-0.084-0.17-0.17-0.34-0.202-0.546c-0.043-0.197-0.033-0.357-0.052-0.538
										c-0.028-0.698-0.005-1.448,0.375-2.113c0.186-0.332,0.497-0.581,0.772-0.774c0.138-0.098,0.261-0.19,0.335-0.29
										c0.026-0.025-0.02,0.009,0.084-0.084c0.113-0.069,0.133-0.046,0.171-0.054c0.086-0.006,0.113,0.009,0.171,0.013
										c0.093,0.018,0.181,0.038,0.265,0.062c1.316,0.405,2.52,0.935,3.729,1.431c2.401,1.012,4.694,2.035,6.876,3.015
										c4.362,1.965,8.268,3.778,11.543,5.313c0.82,0.376,1.595,0.769,2.336,1.083c0.756,0.297,1.471,0.578,2.14,0.842
										c1.327,0.526,2.474,0.98,3.424,1.357c0.914,0.37,1.635,0.661,2.158,0.873c0.227,0.096,0.41,0.174,0.558,0.237
										c0.125,0.056,0.188,0.087,0.185,0.094c-0.003,0.007-0.07-0.012-0.2-0.055c-0.152-0.053-0.34-0.118-0.572-0.199
										c-0.53-0.194-1.261-0.462-2.188-0.802c-0.958-0.359-2.115-0.792-3.453-1.293c-0.674-0.254-1.393-0.526-2.154-0.813
										c-0.762-0.312-1.529-0.69-2.356-1.06c-3.304-1.493-7.225-3.265-11.576-5.232c-2.185-0.97-4.48-1.984-6.877-2.989
										c-1.198-0.49-2.426-1.024-3.68-1.408c-0.078-0.022-0.154-0.039-0.226-0.053c-0.025-0.002-0.081-0.013-0.079-0.008
										c-0.005-0.014,0.001,0.03-0.012-0.032c-0.027-0.076,0.005-0.065-0.016-0.1c-0.006-0.012-0.016-0.022-0.028-0.029
										c0.275,0.186,0.069,0.061,0.128,0.106l-0.025,0.031c-0.129,0.171-0.287,0.278-0.422,0.376
										c-0.275,0.195-0.508,0.385-0.659,0.652c-0.307,0.53-0.349,1.22-0.317,1.884c0.021,0.359,0.037,0.634,0.202,0.903
										c0.163,0.268,0.367,0.526,0.602,0.758c0.464,0.47,0.993,0.884,1.529,1.276c1.083,0.774,2.211,1.461,3.334,2.11
										c2.247,1.298,4.482,2.438,6.59,3.572c0.527,0.286,1.046,0.569,1.551,0.87c0.252,0.153,0.501,0.303,0.743,0.487
										c0.11,0.089,0.264,0.199,0.343,0.388c0.055,0.159,0.088,0.311,0.105,0.453c0.136,1.147,0.222,2.219,0.49,3.24
										c0.507,2.035,1.554,3.768,2.854,4.99c1.292,1.23,2.705,2.087,3.937,2.8c1.246,0.701,2.381,1.194,3.331,1.526
										c0.95,0.334,1.714,0.515,2.234,0.615c0.26,0.051,0.461,0.079,0.595,0.099C237.161,429.402,237.231,429.411,237.23,429.418z
										"/>
								</g>
							</g>
						</g>
						<g>
							<g>
								<path style="fill:#EB996E;" d="M210.441,430.56c0.007-0.023,0.347,0.043,0.93,0.271c0.58,0.227,1.404,0.63,2.29,1.324
									c0.438,0.353,0.902,0.756,1.324,1.284c0.402,0.518,0.812,1.216,0.706,2.045c-0.105,0.834-0.819,1.493-1.619,1.75
									c-0.827,0.278-1.723,0.147-2.545-0.08c-3.255-0.991-6.088-2.187-8.054-3.233c-0.982-0.522-1.75-0.992-2.265-1.339
									c-0.516-0.346-0.786-0.56-0.771-0.581c0.017-0.026,0.315,0.143,0.854,0.445c0.538,0.304,1.322,0.733,2.313,1.217
									c1.977,0.97,4.819,2.119,8.031,3.096c0.79,0.22,1.608,0.329,2.31,0.094c0.703-0.223,1.283-0.77,1.372-1.423
									c0.1-0.655-0.232-1.29-0.602-1.784c-0.38-0.5-0.826-0.912-1.237-1.267C211.783,430.981,210.401,430.638,210.441,430.56z"/>
							</g>
						</g>
					</g>
					<g style="opacity:0.3;">
						<path d="M324.478,429c-7.86-26.509-14.792-60.654-22.651-87.163c-2.873,24.475,0.723,56.784,5.228,81.011
							c0.528,2.839,0.77,5.622,2.972,7.49L324.478,429"/>
					</g>
				</g>
				<g>
					<path style="fill:#263238;" d="M311.606,410.801c-0.105,0.025-0.437-1.73-1.503-4.377c-0.522-1.327-1.285-2.847-2.255-4.46
						c-1.001-1.593-2.226-3.267-3.694-4.868c-1.488-1.584-3.067-2.93-4.582-4.046c-1.536-1.086-2.996-1.96-4.281-2.579
						c-2.56-1.259-4.286-1.72-4.253-1.823c0.01-0.034,0.441,0.069,1.217,0.288c0.39,0.103,0.863,0.246,1.394,0.461
						c0.533,0.209,1.156,0.415,1.8,0.742c1.322,0.584,2.824,1.438,4.4,2.521c1.555,1.112,3.172,2.471,4.685,4.082
						c1.494,1.628,2.729,3.341,3.723,4.974c0.963,1.652,1.703,3.213,2.187,4.575c0.278,0.667,0.438,1.303,0.606,1.85
						c0.175,0.546,0.283,1.028,0.356,1.425C311.57,410.356,311.641,410.794,311.606,410.801z"/>
				</g>
			</g>
			<path style="fill:#E8505B;" d="M326.595,276.509c0,0-25.138,56.151-25.138,66.46c0,10.309,18.835,81.936,18.835,81.936
				c-0.179,2.842-0.911,17.119-0.911,17.119l105.59,0.362l0,0l1.608-22.697l-8.242-21.63l8.234-61.145c0,0,5.542-35.502,6.035-45.43
				c0.617-12.424-41.465-26.823-40.318-28.543l-7.267-9.727l-41.634,33.804l-8.225-23.759l-9.857,9.316L326.595,276.509z"/>
			<path style="fill:#E8505B;" d="M395.741,291.445c-11.427,19.337-32.344,54.576-32.344,54.576l-37.48,42.734
				c0,0-2.452,21.717,2.452,28.372c4.904,6.655,13.311,11.209,13.311,11.209s9.895,0,22.462-10.508
				c12.566-10.508,47.244-53.943,47.244-53.943l11.909-14.361c0,0,14.195-34.883,11.546-52.637
				c-1.022-6.845-3.935-9.692-7.825-12.831C417.245,276.172,402.128,280.637,395.741,291.445z"/>
			<g>
				<path style="fill:#263238;" d="M427.696,337.401c0.008,0.004-0.051,0.138-0.173,0.396c-0.136,0.278-0.32,0.656-0.555,1.139
					c-0.497,0.996-1.26,2.452-2.302,4.293c-2.068,3.691-5.282,8.905-9.489,15.19c-2.105,3.141-4.461,6.548-7.043,10.168
					c-2.558,3.641-5.534,7.35-7.955,11.71c-2.485,4.32-4.619,9.122-7.273,13.886c-2.653,4.761-5.784,9.49-9.525,13.91
					c-3.75,4.407-7.99,8.251-12.626,11.16c-4.619,2.932-9.658,4.829-14.617,5.66c-4.96,0.857-9.848,0.578-14.164-0.6
					c-2.167-0.569-4.167-1.442-5.989-2.429c-1.829-0.979-3.492-2.099-4.935-3.341c-1.458-1.221-2.713-2.549-3.722-3.936
					c-1.049-1.359-1.818-2.794-2.461-4.158c-1.231-2.766-1.749-5.344-2.015-7.442c-0.213-2.111-0.225-3.759-0.171-4.871
					c0.031-0.537,0.055-0.956,0.073-1.265c0.019-0.285,0.034-0.43,0.043-0.43c0.009,0.001,0.012,0.147,0.01,0.432
					c-0.005,0.309-0.012,0.728-0.021,1.265c-0.02,1.11,0.025,2.751,0.267,4.844c0.295,2.08,0.838,4.627,2.078,7.346
					c0.648,1.341,1.417,2.748,2.461,4.079c1.004,1.359,2.25,2.658,3.694,3.853c1.429,1.215,3.077,2.311,4.889,3.269
					c1.805,0.966,3.773,1.814,5.912,2.366c4.256,1.142,9.075,1.402,13.97,0.543c4.895-0.835,9.861-2.714,14.425-5.619
					c4.581-2.883,8.779-6.692,12.501-11.066c3.713-4.387,6.832-9.089,9.476-13.82c2.646-4.735,4.791-9.535,7.303-13.876
					c2.453-4.387,5.458-8.107,8.02-11.723c2.595-3.605,4.966-6.997,7.089-10.122c4.242-6.252,7.499-11.43,9.618-15.084
					c1.068-1.823,1.858-3.261,2.385-4.24c0.255-0.473,0.454-0.842,0.6-1.114C427.613,337.523,427.688,337.397,427.696,337.401z"/>
			</g>
			<g>
				<path style="fill:#263238;" d="M324.041,386.827c0.045,0.075-0.533,0.402-1.221,1.169c-0.686,0.751-1.449,2.02-1.596,3.567
					c-0.14,1.548,0.378,2.936,0.915,3.8c0.536,0.88,1.044,1.307,0.987,1.372c-0.03,0.047-0.639-0.286-1.293-1.168
					c-0.65-0.861-1.281-2.35-1.127-4.052c0.161-1.701,1.055-3.049,1.851-3.776C323.361,386.99,324.02,386.776,324.041,386.827z"/>
			</g>
			<g>
				<path style="fill:#263238;" d="M330.934,398.172c0.007-0.017,0.209,0.031,0.587,0.135c0.19,0.049,0.419,0.127,0.697,0.191
					c0.291,0.053,0.614,0.112,0.97,0.178c1.459,0.238,3.65,0.21,6.181-0.575c2.516-0.806,5.333-2.355,7.957-4.677
					c2.628-2.321,4.99-5.417,7.458-8.655c2.459-3.246,4.942-6.301,7.684-8.589c1.359-1.142,2.695-2.153,3.806-3.241
					c1.111-1.078,2.002-2.247,2.501-3.445c0.939-2.464,0.308-4.776-0.577-5.901c-0.924-1.164-1.854-1.279-1.807-1.35
					c0.004-0.016,0.205,0.035,0.582,0.167c0.356,0.171,0.893,0.461,1.383,1.056c0.979,1.148,1.706,3.54,0.762,6.16
					c-0.508,1.284-1.415,2.499-2.541,3.619c-1.124,1.126-2.462,2.159-3.798,3.299c-2.681,2.272-5.122,5.294-7.581,8.54
					c-2.468,3.236-4.857,6.35-7.555,8.699c-2.689,2.343-5.58,3.891-8.166,4.668c-2.602,0.758-4.849,0.727-6.323,0.423
					c-0.358-0.084-0.682-0.159-0.975-0.228c-0.278-0.081-0.505-0.176-0.691-0.241C331.117,398.269,330.927,398.189,330.934,398.172z
					"/>
			</g>
			<g>
				<path style="fill:#263238;" d="M400.826,285.507c0.014,0.012-0.131,0.219-0.419,0.604c-0.324,0.421-0.75,0.975-1.281,1.665
					c-1.14,1.423-2.71,3.544-4.622,6.182c-3.788,5.302-8.65,12.895-13.337,21.67c-4.714,8.762-8.619,16.89-11.605,22.694
					c-1.485,2.906-2.706,5.248-3.587,6.847c-0.422,0.763-0.76,1.374-1.018,1.839c-0.238,0.418-0.37,0.633-0.386,0.624
					c-0.016-0.008,0.086-0.24,0.293-0.673c0.236-0.476,0.545-1.102,0.931-1.883c0.838-1.686,2.005-4.036,3.437-6.918
					c2.9-5.842,6.753-13.997,11.476-22.776c4.696-8.791,9.624-16.38,13.497-21.639c1.954-2.617,3.572-4.707,4.762-6.093
					c0.563-0.666,1.014-1.199,1.358-1.605C400.64,285.681,400.812,285.495,400.826,285.507z"/>
			</g>
			<g style="opacity:0.3;">
				<path d="M322.798,396.441c4.876,2.643,10.227,2.362,15.669,1.294c5.442-1.068,10.481-4.083,13.995-8.374
					c-0.946,4.751-2.981,9.395-6.448,12.78c-3.466,3.384-8.484,5.353-13.249,4.481C328.001,405.749,323.192,401.27,322.798,396.441"
					/>
			</g>
			<g style="opacity:0.3;">
				<path d="M368.902,367.585c3.066,4.697,4.161,10.638,2.97,16.119c4.129-6.323,5.099-14.327,3.988-21.796
					c-1.111-7.469-4.145-14.513-7.526-21.266c0,0-3.729,6.295-3.763,6.99c-0.18,3.634,1.158,10.479,1.86,14.05
					c1.877,1.769,2.765,4.527,2.273,7.059"/>
			</g>
			<g style="opacity:0.3;">
				<path d="M339.323,422.603c9.938,7.746,24.684,8.112,35.558,1.746c10.472-6.13,16.918-17.166,22.903-27.722
					c9.264-16.34,20.568-36.547,27.186-54.126c0,0-18.552,25.312-24.144,36.222c-4.219,8.231-7.456,13.656-12.652,21.309
					c-10.44,15.376-29.345,24.584-47.887,23.326"/>
			</g>
			<g>
				<path style="fill:#263238;" d="M319.38,442.023c-0.011-0.001-0.016-0.107-0.016-0.314c0.005-0.244,0.01-0.544,0.017-0.911
					c0.031-0.85,0.073-2.01,0.126-3.465c0.139-3.042,0.335-7.308,0.57-12.438l0.009,0.071c-1.797-5.998-3.898-13.274-6.07-21.135
					c-2.882-10.418-5.314-19.898-6.95-26.79c-0.816-3.446-1.453-6.241-1.852-8.181c-0.19-0.932-0.341-1.676-0.455-2.235
					c-0.098-0.512-0.142-0.783-0.124-0.787c0.017-0.004,0.095,0.259,0.226,0.764c0.138,0.553,0.321,1.289,0.55,2.212
					c0.488,1.974,1.172,4.741,2.012,8.138c1.727,6.865,4.213,16.325,7.094,26.739c2.172,7.857,4.24,15.141,5.981,21.151l0.011,0.037
					l-0.002,0.034c-0.311,5.128-0.569,9.392-0.754,12.432c-0.102,1.452-0.183,2.611-0.243,3.459
					c-0.032,0.366-0.059,0.665-0.08,0.908C319.408,441.919,319.391,442.024,319.38,442.023z"/>
			</g>
			<g>
				<path style="fill:#263238;" d="M425.015,283.456c-0.03,0.08-1.08-0.292-2.815-0.722c-1.733-0.433-4.17-0.868-6.892-0.953
					c-2.723-0.078-5.182,0.211-6.938,0.539c-1.758,0.325-2.827,0.634-2.853,0.552c-0.011-0.034,0.246-0.145,0.721-0.317
					c0.474-0.178,1.176-0.385,2.056-0.595c1.758-0.425,4.258-0.779,7.029-0.7c2.77,0.087,5.244,0.589,6.973,1.118
					c0.866,0.263,1.555,0.512,2.017,0.717C424.778,283.296,425.028,283.422,425.015,283.456z"/>
			</g>
			<g>
				<path style="fill:#263238;" d="M391.568,265.019c0.015,0.009-0.077,0.188-0.267,0.519c-0.224,0.377-0.505,0.852-0.851,1.434
					c-0.751,1.238-1.865,3.012-3.275,5.184c-2.829,4.335-6.876,10.241-11.663,16.528c-3.852,5.068-7.582,9.615-10.638,13.178
					l-0.214,0.25l-0.135-0.297c-1.452-3.184-2.654-5.821-3.526-7.734c-0.388-0.884-0.702-1.598-0.945-2.149
					c-0.211-0.497-0.313-0.764-0.294-0.773c0.019-0.009,0.16,0.24,0.407,0.72c0.269,0.539,0.617,1.237,1.048,2.101
					c0.912,1.893,2.17,4.504,3.69,7.657l-0.349-0.046c3.003-3.6,6.698-8.162,10.543-13.222c4.779-6.277,8.866-12.139,11.771-16.417
					c1.41-2.104,2.566-3.828,3.41-5.089c0.379-0.561,0.688-1.018,0.933-1.381C391.431,265.169,391.553,265.009,391.568,265.019z"/>
			</g>
			<g>
				<path style="fill:#263238;" d="M415.875,426.265c-0.143-0.016,0.315-5.206,1.023-11.592c0.708-6.388,1.398-11.552,1.541-11.536
					c0.143,0.016-0.315,5.205-1.024,11.593C416.708,421.116,416.018,426.281,415.875,426.265z"/>
			</g>
			<g>
				<path style="fill:#263238;" d="M343.499,424.905c0.143-0.015,0.676,3.886,1.191,8.712c0.515,4.828,0.817,8.753,0.674,8.768
					c-0.143,0.015-0.676-3.885-1.191-8.713C343.657,428.846,343.356,424.92,343.499,424.905z"/>
			</g>
			<path style="fill:#FFFFFF;" d="M396.909,310.69c-0.131-0.827-1.276-1.281-1.939-0.77l-0.067,0.056
				c-0.624,0.558-0.387,1.766,0.401,2.047C396.093,312.303,397.04,311.516,396.909,310.69z"/>
			<path style="fill:#FFFFFF;" d="M386.482,285.275c-0.131-0.827-1.276-1.281-1.939-0.77l-0.067,0.056
				c-0.624,0.558-0.387,1.766,0.401,2.047C385.666,286.888,386.613,286.102,386.482,285.275z"/>
			<path style="fill:#FFFFFF;" d="M362.553,305.739c-0.131-0.827-1.276-1.281-1.939-0.77l-0.067,0.056
				c-0.624,0.558-0.387,1.766,0.401,2.047C361.736,307.353,362.684,306.566,362.553,305.739z"/>
			<path style="fill:#FFFFFF;" d="M336.685,295.463c-0.131-0.827-1.276-1.281-1.939-0.77l-0.067,0.056
				c-0.624,0.558-0.387,1.766,0.401,2.047C335.868,297.077,336.816,296.289,336.685,295.463z"/>
			<path style="fill:#FFFFFF;" d="M332.108,285.333c-0.131-0.827-1.276-1.281-1.939-0.77l-0.067,0.056
				c-0.624,0.558-0.387,1.766,0.401,2.047C331.292,286.947,332.24,286.16,332.108,285.333z"/>
			<path style="fill:#FFFFFF;" d="M334.095,273.628c-0.131-0.827-1.276-1.281-1.939-0.77l-0.067,0.056
				c-0.624,0.558-0.387,1.766,0.401,2.047C333.279,275.241,334.227,274.454,334.095,273.628z"/>
			<path style="fill:#FFFFFF;" d="M319.77,289.728c-0.131-0.827-1.276-1.281-1.939-0.77l-0.067,0.056
				c-0.624,0.558-0.387,1.766,0.401,2.047C318.953,291.341,319.901,290.554,319.77,289.728z"/>
			<path style="fill:#FFFFFF;" d="M352.954,294.371c-0.131-0.827-1.276-1.281-1.939-0.77l-0.067,0.056
				c-0.624,0.558-0.387,1.766,0.401,2.047C352.138,295.984,353.086,295.197,352.954,294.371z"/>
			<path style="fill:#FFFFFF;" d="M324.859,315.237c-0.131-0.827-1.276-1.281-1.939-0.77l-0.067,0.056
				c-0.624,0.558-0.387,1.766,0.401,2.047C324.043,316.85,324.99,316.063,324.859,315.237z"/>
			<path style="fill:#FFFFFF;" d="M299.141,375.258c-0.131-0.827-1.276-1.281-1.939-0.77l-0.067,0.056
				c-0.624,0.558-0.387,1.766,0.401,2.047C298.325,376.871,299.272,376.084,299.141,375.258z"/>
			<path style="fill:#FFFFFF;" d="M308.317,340.642c-0.131-0.827-1.276-1.281-1.939-0.77l-0.067,0.056
				c-0.624,0.558-0.387,1.766,0.401,2.047C307.501,342.255,308.448,341.468,308.317,340.642z"/>
			<path style="fill:#FFFFFF;" d="M375.955,279.856c-0.131-0.827-1.276-1.281-1.939-0.77l-0.067,0.056
				c-0.624,0.558-0.387,1.766,0.401,2.047C375.139,281.47,376.086,280.683,375.955,279.856z"/>
			<path style="fill:#FFFFFF;" d="M408.236,348.785c-0.131-0.827-1.276-1.281-1.939-0.77l-0.067,0.056
				c-0.624,0.558-0.387,1.766,0.401,2.047C407.419,350.398,408.367,349.611,408.236,348.785z"/>
			<path style="fill:#FFFFFF;" d="M420.814,289.467c-0.131-0.827-1.276-1.281-1.939-0.77l-0.067,0.056
				c-0.624,0.558-0.387,1.766,0.401,2.047C419.998,291.081,420.945,290.294,420.814,289.467z"/>
			<path style="fill:#FFFFFF;" d="M415.875,328.313c-0.131-0.827-1.276-1.281-1.939-0.77l-0.067,0.056
				c-0.624,0.558-0.387,1.766,0.401,2.047C415.059,329.926,416.007,329.139,415.875,328.313z"/>
			<path style="fill:#FFFFFF;" d="M387.669,356.362c-0.131-0.827-1.276-1.281-1.939-0.77l-0.067,0.056
				c-0.624,0.558-0.387,1.766,0.401,2.047C386.852,357.975,387.8,357.189,387.669,356.362z"/>
			<path style="fill:#FFFFFF;" d="M388.856,333.013c-0.131-0.827-1.276-1.281-1.939-0.77l-0.067,0.056
				c-0.624,0.558-0.387,1.766,0.401,2.047C388.039,334.626,388.987,333.84,388.856,333.013z"/>
			<path style="fill:#FFFFFF;" d="M405.874,289.67c-0.131-0.827-1.276-1.281-1.939-0.77l-0.067,0.056
				c-0.624,0.558-0.387,1.766,0.401,2.047C405.058,291.283,406.005,290.496,405.874,289.67z"/>
			<path style="fill:#FFFFFF;" d="M382.965,267.047c-0.131-0.827-1.276-1.281-1.939-0.77l-0.067,0.056
				c-0.624,0.558-0.387,1.766,0.401,2.047C382.149,268.66,383.096,267.873,382.965,267.047z"/>
			<path style="fill:#FFFFFF;" d="M382.134,303.515c-0.131-0.827-1.276-1.281-1.939-0.77l-0.067,0.056
				c-0.624,0.558-0.387,1.766,0.401,2.047C381.317,305.129,382.265,304.342,382.134,303.515z"/>
			<path style="fill:#FFFFFF;" d="M352.887,414.765c-0.131-0.827-1.276-1.281-1.939-0.77l-0.067,0.056
				c-0.624,0.558-0.387,1.766,0.401,2.047C352.071,416.379,353.019,415.592,352.887,414.765z"/>
			<path style="fill:#FFFFFF;" d="M319.339,396.471c-0.131-0.827-1.276-1.281-1.939-0.77l-0.067,0.056
				c-0.624,0.558-0.387,1.766,0.401,2.047C318.523,398.085,319.471,397.298,319.339,396.471z"/>
			<path style="fill:#FFFFFF;" d="M292.213,405.438c-0.131-0.827-1.276-1.281-1.939-0.77l-0.067,0.056
				c-0.624,0.558-0.387,1.766,0.401,2.047C291.397,407.051,292.344,406.264,292.213,405.438z"/>
			<path style="fill:#FFFFFF;" d="M289.31,420.887c-0.131-0.827-1.276-1.281-1.939-0.77l-0.067,0.056
				c-0.624,0.558-0.387,1.766,0.401,2.047C288.494,422.501,289.441,421.714,289.31,420.887z"/>
			<path style="fill:#FFFFFF;" d="M314.743,426.063c-0.131-0.827-1.276-1.281-1.939-0.77l-0.067,0.056
				c-0.624,0.558-0.387,1.766,0.401,2.047C313.926,427.676,314.874,426.889,314.743,426.063z"/>
			<path style="fill:#FFFFFF;" d="M306.238,391.464c-0.131-0.827-1.276-1.281-1.939-0.77l-0.067,0.056
				c-0.624,0.558-0.387,1.766,0.401,2.047C305.422,393.078,306.37,392.291,306.238,391.464z"/>
			<path style="fill:#FFFFFF;" d="M337.442,400.256c-0.131-0.827-1.276-1.281-1.939-0.77l-0.067,0.056
				c-0.624,0.558-0.387,1.766,0.401,2.047S337.573,401.082,337.442,400.256z"/>
			<path style="fill:#FFFFFF;" d="M411.615,391.406c-0.131-0.827-1.276-1.281-1.939-0.77l-0.067,0.056
				c-0.624,0.558-0.387,1.766,0.401,2.047C410.798,393.02,411.746,392.233,411.615,391.406z"/>
			<path style="fill:#FFFFFF;" d="M365.721,435.383c-0.131-0.827-1.276-1.281-1.939-0.77l-0.067,0.056
				c-0.624,0.558-0.387,1.766,0.401,2.047C364.905,436.996,365.852,436.209,365.721,435.383z"/>
			<path style="fill:#FFFFFF;" d="M385.295,410.903c-0.131-0.827-1.276-1.281-1.939-0.77l-0.067,0.056
				c-0.624,0.558-0.387,1.766,0.401,2.047C384.479,412.517,385.426,411.729,385.295,410.903z"/>
			<path style="fill:#FFFFFF;" d="M396.921,430.812c-0.131-0.827-1.276-1.281-1.939-0.77l-0.067,0.056
				c-0.624,0.558-0.387,1.766,0.401,2.047C396.105,432.426,397.052,431.639,396.921,430.812z"/>
			<path style="fill:#FFFFFF;" d="M364.571,326.55c-0.131-0.827-1.276-1.281-1.939-0.77l-0.067,0.056
				c-0.624,0.558-0.387,1.766,0.401,2.047C363.755,328.164,364.702,327.377,364.571,326.55z"/>
			<path style="fill:#FFFFFF;" d="M390.895,377.376c-0.131-0.827-1.276-1.281-1.939-0.77l-0.067,0.056
				c-0.624,0.558-0.387,1.766,0.401,2.047C390.079,378.99,391.026,378.203,390.895,377.376z"/>
			<path style="fill:#FFFFFF;" d="M382.358,396.629c-0.131-0.827-1.276-1.281-1.939-0.77l-0.067,0.056
				c-0.624,0.558-0.387,1.766,0.401,2.047C381.542,398.242,382.49,397.455,382.358,396.629z"/>
			<path style="fill:#FFFFFF;" d="M410.428,412.091c-0.131-0.827-1.276-1.281-1.939-0.77l-0.067,0.056
				c-0.624,0.558-0.387,1.766,0.401,2.047C409.611,413.705,410.559,412.918,410.428,412.091z"/>
			<path style="fill:#FFFFFF;" d="M333.62,434.415c-0.131-0.827-1.276-1.281-1.939-0.77l-0.067,0.056
				c-0.624,0.558-0.387,1.766,0.401,2.047C332.804,436.029,333.751,435.242,333.62,434.415z"/>
			<path style="fill:#FFFFFF;" d="M269.617,428.575c-0.131-0.827-1.276-1.281-1.939-0.77l-0.067,0.056
				c-0.624,0.558-0.387,1.766,0.401,2.047C268.801,430.189,269.749,429.401,269.617,428.575z"/>
			<path style="fill:#FFFFFF;" d="M325.979,418.063c-0.131-0.827-1.276-1.281-1.939-0.77l-0.067,0.056
				c-0.624,0.558-0.387,1.766,0.401,2.047C325.163,419.677,326.111,418.89,325.979,418.063z"/>
			<path style="fill:#FFFFFF;" d="M271.991,406.626c-0.131-0.827-1.276-1.281-1.939-0.77l-0.067,0.056
				c-0.624,0.558-0.387,1.766,0.401,2.047C271.175,408.239,272.122,407.452,271.991,406.626z"/>
			<path style="fill:#FFFFFF;" d="M362.197,370.329c-0.131-0.827-1.276-1.281-1.939-0.77l-0.067,0.056
				c-0.624,0.558-0.387,1.766,0.401,2.047C361.381,371.943,362.328,371.156,362.197,370.329z"/>
			<path style="fill:#FFFFFF;" d="M343.319,315.237c-0.131-0.827-1.276-1.281-1.939-0.77l-0.067,0.056
				c-0.624,0.558-0.387,1.766,0.401,2.047C342.503,316.85,343.45,316.063,343.319,315.237z"/>
			<path style="fill:#FFFFFF;" d="M338.602,363.013c-0.131-0.827-1.276-1.281-1.939-0.77l-0.067,0.056
				c-0.624,0.558-0.387,1.766,0.401,2.047C337.786,364.627,338.734,363.84,338.602,363.013z"/>
			<path style="fill:#FFFFFF;" d="M330.921,347.429c-0.131-0.827-1.276-1.281-1.939-0.77l-0.067,0.056
				c-0.624,0.558-0.387,1.766,0.401,2.047C330.105,349.043,331.053,348.256,330.921,347.429z"/>
			<path style="fill:#FFFFFF;" d="M364.888,396.413c-0.131-0.827-1.276-1.281-1.939-0.77l-0.067,0.056
				c-0.624,0.558-0.387,1.766,0.401,2.047C364.072,398.027,365.019,397.24,364.888,396.413z"/>
			<path style="fill:#FFFFFF;" d="M340.945,386.802c-0.131-0.827-1.276-1.281-1.939-0.77l-0.067,0.056
				c-0.624,0.558-0.387,1.766,0.401,2.047C340.128,388.415,341.076,387.628,340.945,386.802z"/>
			<path style="fill:#FFFFFF;" d="M351.194,334.047c-0.131-0.827-1.276-1.281-1.939-0.77l-0.067,0.056
				c-0.624,0.558-0.387,1.766,0.401,2.047C350.378,335.66,351.325,334.873,351.194,334.047z"/>
			<path style="fill:#FFFFFF;" d="M314.743,371.401c-0.131-0.827-1.276-1.281-1.939-0.77l-0.067,0.056
				c-0.624,0.558-0.387,1.766,0.401,2.047C313.926,373.015,314.874,372.228,314.743,371.401z"/>
			<path style="fill:#FFFFFF;" d="M371.005,354.256c-0.131-0.827-1.276-1.281-1.939-0.77L369,353.542
				c-0.624,0.558-0.387,1.766,0.401,2.047C370.189,355.87,371.137,355.082,371.005,354.256z"/>
			<path style="fill:#FFFFFF;" d="M423.188,309.501c-0.131-0.827-1.276-1.281-1.939-0.77l-0.067,0.056
				c-0.624,0.558-0.387,1.766,0.401,2.047C422.371,311.115,423.319,310.328,423.188,309.501z"/>
			<path style="fill:#FFFFFF;" d="M402,275.612c-0.131-0.827-1.276-1.281-1.939-0.77l-0.067,0.056
				c-0.624,0.558-0.387,1.766,0.401,2.047C401.184,277.226,402.132,276.439,402,275.612z"/>
			<path style="fill:#FFFFFF;" d="M360.936,279.856c-0.131-0.827-1.276-1.281-1.939-0.77l-0.067,0.056
				c-0.624,0.558-0.387,1.766,0.401,2.047C360.119,281.47,361.067,280.683,360.936,279.856z"/>
		</g>
		<g>
			<g>
				<g>
					<g>
						<g>
							<path style="fill:#263238;" d="M319.052,158.209c-7.877,5.012-11.02,15.514-9.518,21.721
								c0.757,3.128,2.177,6.276,1.557,9.434c-0.535,2.729-2.497,4.912-3.966,7.274c-4.897,7.877-4.03,18.901,2.039,25.915
								c6.069,7.014,16.853,9.457,25.353,5.743"/>
						</g>
					</g>
					<g>
						<g>
							<g>
								<g>
									<path style="fill:#263238;" d="M314.391,199.196c-19.159-42.14,26.415-63.311,51.283-56.287
										c23.371,6.601,33.339,18.232,37.185,33.863c3.847,15.638,3.663,32.574-2.465,47.468
										c-3.022,7.343-8.464,14.805-16.352,15.722"/>
								</g>
							</g>
						</g>
						<g>
							<g>
								<g>
									<g>
										<g>
											<g>
												<g>
													<g>
														<g>
															<g>
																<g>
																	<g>
																		<g>
																			<g>
																				<g>
																					<g>
																						<path style="fill:#FFBE9D;" d="M336.839,302.108c-0.331-20.134-0.565-47.791-0.572-47.676
																							c0,0-17.306-2.874-20.892-25.454c-1.783-11.229-1.219-29.641-0.271-44.691
																							c0.854-13.546,9.829-30.167,23.327-28.739l42.147,10.653c4.1,0.434,7.187,3.933,7.106,8.055l0,0
																							l-2.746,87.178"/>
																					</g>
																				</g>
																			</g>
																		</g>
																	</g>
																</g>
															</g>
														</g>
													</g>
													<g>
														<g>
															<g>
																<g>
																	<g>
																		<g>
																			<g>
																				<g>
																					<g>
																						<g>
																							<g>
																								<g>
																									<g>
																										<g>
																											<path style="fill:#263238;" d="M322.64,198.077c-0.072,1.52,1.156,2.833,2.742,2.937
																												c1.582,0.104,2.926-1.041,2.997-2.56c0.071-1.519-1.156-2.834-2.738-2.938
																												C324.055,195.411,322.711,196.557,322.64,198.077z"/>
																										</g>
																									</g>
																								</g>
																							</g>
																						</g>
																					</g>
																				</g>
																			</g>
																		</g>
																	</g>
																</g>
															</g>
														</g>
													</g>
													<g>
														<g>
															<g>
																<g>
																	<g>
																		<g>
																			<g>
																				<g>
																					<g>
																						<g>
																							<g>
																								<g>
																									<g>
																										<g>
																											<path style="fill:#263238;" d="M352.56,198.077c-0.072,1.519,1.156,2.833,2.741,2.936
																												c1.582,0.104,2.926-1.041,2.998-2.56c0.071-1.519-1.156-2.834-2.738-2.938
																												C353.975,195.411,352.631,196.557,352.56,198.077z"/>
																										</g>
																									</g>
																								</g>
																							</g>
																						</g>
																					</g>
																				</g>
																			</g>
																		</g>
																	</g>
																</g>
															</g>
														</g>
													</g>
													<g>
														<g>
															<g>
																<g>
																	<g>
																		<g>
																			<g>
																				<g>
																					<g>
																						<g>
																							<g>
																								<path style="fill:#263238;" d="M319.523,192.816c0.346,0.39,2.593-1.16,5.707-1.048
																									c3.112,0.067,5.345,1.745,5.696,1.375c0.171-0.163-0.172-0.857-1.143-1.615
																									c-0.955-0.754-2.603-1.511-4.543-1.568c-1.94-0.054-3.596,0.606-4.558,1.306
																									C319.699,191.97,319.352,192.641,319.523,192.816z"/>
																							</g>
																						</g>
																					</g>
																				</g>
																			</g>
																		</g>
																	</g>
																</g>
															</g>
														</g>
													</g>
													<g>
														<g>
															<g>
																<g>
																	<g>
																		<g>
																			<g>
																				<g>
																					<g>
																						<g>
																							<g>
																								<path style="fill:#263238;" d="M349.096,193.561c0.362,0.376,2.551-1.257,5.665-1.262
																									c3.112-0.051,5.407,1.542,5.743,1.159c0.165-0.17-0.2-0.85-1.203-1.57
																									c-0.983-0.718-2.658-1.413-4.599-1.396c-1.941,0.02-3.571,0.742-4.506,1.477
																									C349.243,192.708,348.92,193.392,349.096,193.561z"/>
																							</g>
																						</g>
																					</g>
																				</g>
																			</g>
																		</g>
																	</g>
																</g>
															</g>
														</g>
													</g>
													<g>
														<g>
															<g>
																<g>
																	<g>
																		<g>
																			<g>
																				<g>
																					<g>
																						<g>
																							<path style="fill:#263238;" d="M338.42,217.557c0.014-0.177-1.923-0.511-5.061-0.913
																								c-0.796-0.082-1.549-0.24-1.683-0.783c-0.187-0.575,0.145-1.433,0.531-2.359
																								c0.748-1.925,1.531-3.944,2.353-6.059c3.268-8.627,5.633-15.721,5.285-15.849
																								c-0.348-0.128-3.281,6.76-6.548,15.387c-0.786,2.127-1.539,4.155-2.254,6.095
																								c-0.301,0.904-0.819,1.93-0.413,3.123c0.214,0.595,0.798,1.026,1.309,1.164
																								c0.51,0.155,0.958,0.164,1.352,0.188C336.448,217.72,338.408,217.734,338.42,217.557z"/>
																						</g>
																					</g>
																				</g>
																			</g>
																		</g>
																	</g>
																</g>
															</g>
														</g>
													</g>
													<g>
														<g>
															<g>
																<g>
																	<g>
																		<g>
																			<g>
																				<g>
																					<g>
																						<path style="fill:#EB996E;" d="M336.267,254.432c0,0,15.191,0.979,30.241-8.067
																							c0,0-7.641,15.709-30.241,13.596V254.432z"/>
																					</g>
																				</g>
																			</g>
																		</g>
																	</g>
																</g>
															</g>
														</g>
													</g>
												</g>
											</g>
										</g>
										<g>
											<g>
												<g>
													<g>
														<g>
															<g>
																<g>
																	<g>
																		<g>
																			<path style="fill:#263238;" d="M348.327,189.129c0.307,0.847,3.419,0.445,7.074,0.886
																				c3.666,0.367,6.613,1.437,7.098,0.677c0.217-0.364-0.297-1.16-1.489-1.981c-1.181-0.819-3.067-1.597-5.262-1.842
																				c-2.195-0.24-4.205,0.109-5.536,0.65C348.871,188.061,348.195,188.727,348.327,189.129z"/>
																		</g>
																	</g>
																</g>
															</g>
														</g>
													</g>
												</g>
											</g>
										</g>
										<g>
											<g>
												<g>
													<g>
														<g>
															<g>
																<g>
																	<g>
																		<g>
																			<path style="fill:#263238;" d="M320.243,184.985c0.549,0.708,2.695-0.027,5.277-0.061
																				c2.58-0.125,4.767,0.475,5.271-0.265c0.221-0.36-0.124-1.068-1.079-1.738c-0.941-0.668-2.515-1.213-4.29-1.16
																				c-1.773,0.056-3.31,0.698-4.208,1.423C320.302,183.911,320.002,184.64,320.243,184.985z"/>
																		</g>
																	</g>
																</g>
															</g>
														</g>
													</g>
												</g>
											</g>
										</g>
									</g>
								</g>
							</g>
						</g>
					</g>
					<g>
						<g>
							<g>
								<g>
									<g>
										<g>
											<g>
												<g>
													<g>
														<path style="fill:#FFBE9D;" d="M383.811,203.983c0.331-0.16,12.086-5.359,12.224,8.16
															c0.138,13.519-13.463,10.869-13.491,10.481C382.517,222.236,383.811,203.983,383.811,203.983z"/>
													</g>
												</g>
											</g>
										</g>
									</g>
								</g>
							</g>
						</g>
						<g>
							<g>
								<g>
									<g>
										<g>
											<g>
												<g>
													<g>
														<g>
															<path style="fill:#EB996E;" d="M386.622,217.46c0.059-0.044,0.237,0.162,0.637,0.341
																c0.39,0.173,1.059,0.29,1.761,0.018c1.423-0.539,2.602-2.819,2.643-5.256c0.022-1.231-0.248-2.4-0.694-3.365
																c-0.423-0.985-1.07-1.669-1.79-1.79c-0.717-0.158-1.222,0.278-1.383,0.66c-0.177,0.38-0.088,0.649-0.16,0.673
																c-0.038,0.034-0.292-0.223-0.189-0.783c0.053-0.269,0.208-0.59,0.523-0.853c0.322-0.267,0.798-0.406,1.299-0.357
																c1.043,0.061,1.991,1.011,2.481,2.071c0.548,1.064,0.88,2.378,0.855,3.76c-0.059,2.725-1.427,5.288-3.376,5.873
																c-0.948,0.257-1.745-0.021-2.158-0.336C386.65,217.786,386.576,217.485,386.622,217.46z"/>
														</g>
													</g>
												</g>
											</g>
										</g>
									</g>
								</g>
							</g>
						</g>
					</g>
					<g>
						<g>
							<path style="fill:#263238;" d="M333.929,148.88c-7.521,3.887-10.617,19.274-7.505,27.147
								c3.112,7.873,11.498,11.719,19.768,13.531c8.27,1.812,16.378,2.026,24.534-0.243c0.568,5.485,3.855,11.115,9.177,12.562
								c7.045,1.916,14.146-4.536,15.714-11.666c1.568-7.131-0.782-14.475-3.103-21.397"/>
						</g>
					</g>
					<g>
						<g>
							<g>
								<path style="fill:#263238;" d="M393.577,197.934c0.032,0.042-0.338,0.393-1.042,0.985c-0.707,0.589-1.743,1.429-3.118,2.352
									c-1.375,0.91-3.113,1.924-5.256,2.543c-2.115,0.612-4.706,0.834-7.174-0.105c-2.463-0.937-4.282-2.802-5.43-4.694
									c-1.165-1.915-1.687-3.882-1.946-5.519c-0.253-1.647-0.25-2.994-0.212-3.915c0.043-0.923,0.126-1.428,0.176-1.426
									c0.148-0.003-0.012,2.055,0.579,5.244c0.32,1.579,0.881,3.45,2.013,5.235c1.119,1.772,2.84,3.489,5.096,4.344
									c2.255,0.861,4.675,0.69,6.704,0.142c2.049-0.551,3.763-1.48,5.152-2.316C391.88,199.079,393.497,197.823,393.577,197.934z"
									/>
							</g>
						</g>
					</g>
				</g>
			</g>
			<g>
				<g>
					<g>
						<path style="fill:#EB996E;" d="M339.341,226.239c0.454,1.15,0.918,2.318,1.679,3.292c0.761,0.974,1.874,1.746,3.109,1.805
							c1.316,0.063,2.585-0.716,3.319-1.81c0.734-1.094,0.984-2.458,0.925-3.774c-0.053-1.19-0.598-2.61-1.781-2.751
							c-0.492-0.058-0.977,0.132-1.436,0.318c-2.072,0.84-4.145,1.681-6.217,2.521"/>
					</g>
				</g>
				<g>
					<g>
						<g>
							<path style="fill:#263238;" d="M341.824,231.354c0.032-0.195,1.396,0.359,3.316-0.41c0.929-0.374,1.946-1.114,2.507-2.277
								c0.56-1.15,0.671-2.706,0.082-4.067c-0.137-0.341-0.342-0.652-0.542-0.929c-0.246-0.258-0.201-0.247-0.469-0.207
								c-0.253,0.068-0.662,0.261-0.996,0.391c-0.346,0.141-0.687,0.28-1.021,0.416c-1.331,0.538-2.536,1.009-3.553,1.389
								c-2.036,0.76-3.325,1.161-3.385,1.019c-0.06-0.141,1.12-0.796,3.077-1.741c0.979-0.473,2.151-1.018,3.46-1.608
								c0.329-0.147,0.665-0.298,1.006-0.45c0.363-0.149,0.64-0.312,1.135-0.468c0.243-0.068,0.587-0.107,0.922,0.027
								c0.328,0.133,0.533,0.356,0.686,0.542c0.278,0.37,0.523,0.75,0.699,1.179c0.731,1.699,0.555,3.58-0.19,4.974
								c-0.76,1.424-2.056,2.224-3.155,2.551c-1.118,0.345-2.082,0.262-2.694,0.105
								C342.089,231.626,341.799,231.416,341.824,231.354z"/>
						</g>
					</g>
				</g>
			</g>
			<path style="fill:#455A64;" d="M398.971,194.729c-1.385-0.097-12.55,1.348-11.671,22.103
				c0.821,19.385,14.421,15.116,18.761,7.818C410.172,217.736,412.547,195.682,398.971,194.729z"/>
			<g>
				<path style="fill:#455A64;" d="M405.874,197.181c-0.015,0-0.032-0.187-0.052-0.546c-0.017-0.404-0.039-0.928-0.066-1.581
					c-0.04-1.433-0.096-3.43-0.165-5.912c-0.102-5.098-0.244-12.178-0.408-20.355l0.25,0.247c-1.841,0.003-3.776,0.005-5.756,0.008
					l0.258-0.265c0.042,1.545,0.086,3.175,0.131,4.829c0.193,7.789,0.373,15.042,0.523,21.113l0.004,0.178l-0.172,0.04
					c-2.59,0.607-4.638,2.113-5.929,3.817c-1.315,1.706-1.969,3.519-2.368,5.007c-0.398,1.5-0.534,2.719-0.61,3.545
					c-0.037,0.414-0.057,0.732-0.068,0.947c-0.013,0.215-0.02,0.326-0.032,0.326c-0.011,0.001-0.027-0.111-0.036-0.326
					c-0.011-0.216-0.013-0.537,0.003-0.955c0.035-0.835,0.13-2.068,0.497-3.598c0.37-1.518,0.998-3.378,2.329-5.159
					c1.304-1.778,3.43-3.379,6.112-4.029l-0.168,0.219c-0.174-6.07-0.383-13.323-0.607-21.111c-0.043-1.654-0.086-3.284-0.127-4.829
					l-0.007-0.266l0.265,0c1.98,0.003,3.915,0.005,5.756,0.008l0.248,0l0.003,0.246c0.09,8.178,0.168,15.26,0.224,20.358
					c0.008,2.483,0.014,4.48,0.019,5.914c-0.007,0.653-0.013,1.177-0.017,1.582C405.901,196.993,405.889,197.181,405.874,197.181z"
					/>
			</g>
			<path style="fill:#455A64;" d="M398.969,168.783c0,0-5.838-13.666-19.753-20.409c-6.74-3.266-11.782-4.951-16.668-6.18
				c0,0,8.117-1.927,21.253,3.917c5.969,2.655,11.982,6.114,15.958,11.297c2.526,3.292,5.679,9.726,5.674,11.376H398.969z"/>
			<g>
				<path style="fill:#FFFFFF;" d="M362.949,334.249c-0.005-0.006,0.079-0.098,0.249-0.273c0.167-0.178,0.432-0.427,0.755-0.778
					c0.657-0.692,1.597-1.746,2.699-3.202c1.105-1.453,2.345-3.327,3.647-5.598c1.305-2.27,2.658-4.944,4.132-7.934
					c2.949-5.977,6.363-13.223,9.894-21.525c1.769-4.149,3.569-8.561,5.361-13.205c0.444-1.163,0.892-2.338,1.345-3.525
					c0.449-1.188,0.91-2.411,1.607-3.545c0.685-1.136,1.68-2.14,2.904-2.76c0.608-0.313,1.289-0.55,2.034-0.517
					c0.371,0.03,0.75,0.153,1.062,0.385c0.321,0.231,0.514,0.569,0.675,0.899l0.033,0.067l-0.017,0.079
					c-0.1,0.457-0.244,0.924-0.538,1.333c-0.288,0.412-0.756,0.714-1.248,0.818c-0.998,0.203-1.949-0.114-2.79-0.512
					c-1.806-0.753-2.878-2.894-2.47-4.845c0.188-0.982,0.8-1.876,1.623-2.442c0.821-0.57,1.83-0.869,2.842-0.81
					c0.989,0.063,2.074,0.466,2.624,1.447c0.283,0.479,0.252,1.186-0.104,1.63c-0.333,0.453-0.789,0.725-1.267,0.927
					c-1.691,0.671-3.723,0.079-4.793-1.359c-0.536-0.719-0.759-1.653-0.649-2.522c0.092-0.874,0.469-1.701,1.039-2.357
					c0.569-0.657,1.363-1.135,2.251-1.245c0.872-0.087,1.802,0.157,2.432,0.836c0.316,0.335,0.492,0.81,0.478,1.277
					c-0.004,0.477-0.245,0.93-0.577,1.232c-0.669,0.608-1.587,0.827-2.445,0.659c-0.892-0.189-1.533-0.859-1.947-1.565
					c-0.414-0.724-0.618-1.521-0.732-2.307c-0.2-1.561-0.178-3.204,0.531-4.664c0.381-0.705,0.908-1.363,1.704-1.685
					c0.78-0.31,1.638-0.229,2.375,0.076c0.715,0.312,1.428,0.961,1.465,1.851c0.063,0.867-0.545,1.641-1.268,1.954
					c-0.716,0.342-1.595,0.357-2.301-0.034c-0.7-0.376-1.177-1.047-1.421-1.755c-0.265-0.702-0.247-1.512-0.136-2.188
					c0.091-0.701,0.219-1.402,0.462-2.076c0.232-0.667,0.639-1.33,1.213-1.767c0.558-0.444,1.193-0.769,1.883-0.936
					c0.334-0.071,0.721-0.139,1.101-0.012c0.362,0.12,0.662,0.334,0.915,0.583c0.25,0.253,0.455,0.549,0.588,0.886
					c0.136,0.327,0.187,0.743,0.034,1.105c-0.296,0.759-1.14,1.006-1.788,0.99c-0.686,0.009-1.344-0.264-1.878-0.63
					c-1.073-0.76-1.763-1.935-2.008-3.147c-0.268-1.21-0.131-2.493,0.42-3.562c0.288-0.525,0.639-1.016,1.123-1.375
					c0.475-0.36,1.028-0.586,1.598-0.689c0.568-0.091,1.181-0.055,1.701,0.239c0.511,0.289,0.889,0.83,0.918,1.418
					c0.039,1.188-0.881,2.121-1.885,2.399c-1.075,0.284-2.106-0.298-2.719-1.022c-0.636-0.738-0.965-1.662-1.026-2.559
					c-0.085-1.82,0.631-3.352,0.979-4.788c0.407-1.437,0.779-2.752,1.114-3.936c0.672-2.345,1.196-4.175,1.559-5.441
					c0.179-0.604,0.318-1.073,0.418-1.411c0.097-0.317,0.159-0.476,0.159-0.476s-0.028,0.169-0.108,0.491
					c-0.088,0.342-0.211,0.816-0.368,1.426c-0.341,1.272-0.833,3.11-1.464,5.467c-0.322,1.188-0.679,2.506-1.07,3.947
					c-0.341,1.449-1.029,2.991-0.928,4.702c0.063,0.837,0.38,1.701,0.971,2.375c0.562,0.664,1.509,1.158,2.397,0.906
					c0.868-0.233,1.676-1.106,1.622-2.053c-0.023-0.462-0.33-0.899-0.745-1.131c-0.423-0.238-0.955-0.274-1.463-0.189
					c-0.509,0.095-1.012,0.303-1.432,0.626c-0.422,0.313-0.75,0.774-1.008,1.251c-0.5,0.979-0.626,2.174-0.37,3.299
					c0.232,1.13,0.881,2.207,1.852,2.889c0.494,0.332,1.045,0.557,1.644,0.549c0.576,0.011,1.201-0.213,1.384-0.723
					c0.203-0.483-0.121-1.108-0.531-1.523c-0.213-0.211-0.469-0.384-0.738-0.472c-0.255-0.09-0.557-0.042-0.867,0.024
					c-1.221,0.315-2.382,1.146-2.767,2.425c-0.224,0.623-0.347,1.296-0.433,1.978c-0.108,0.698-0.112,1.337,0.119,1.975
					c0.216,0.621,0.63,1.188,1.205,1.493c0.556,0.31,1.279,0.301,1.87,0.017c0.598-0.268,1.037-0.855,0.989-1.494
					c-0.018-0.635-0.56-1.158-1.175-1.428c-0.627-0.259-1.373-0.322-1.998-0.066c-0.617,0.239-1.12,0.832-1.444,1.451
					c-0.635,1.301-0.672,2.878-0.475,4.367c0.109,0.745,0.304,1.486,0.672,2.125c0.362,0.625,0.932,1.185,1.611,1.319
					c0.685,0.14,1.479-0.058,1.988-0.531c0.54-0.455,0.545-1.288,0.068-1.794c-0.467-0.516-1.271-0.746-1.993-0.666
					c-0.727,0.09-1.423,0.497-1.918,1.072c-1.008,1.132-1.3,2.989-0.361,4.23c0.903,1.238,2.74,1.77,4.177,1.184
					c0.405-0.167,0.804-0.417,1.04-0.748c0.244-0.325,0.26-0.726,0.067-1.083c-0.402-0.738-1.324-1.123-2.195-1.171
					c-1.771-0.123-3.618,1.096-3.927,2.836c-0.353,1.716,0.574,3.615,2.186,4.28c0.782,0.379,1.666,0.643,2.453,0.477
					c0.809-0.147,1.251-0.932,1.402-1.748l0.015,0.145c-0.233-0.567-0.708-0.945-1.304-0.978c-0.594-0.028-1.212,0.171-1.771,0.461
					c-1.137,0.576-2.058,1.496-2.712,2.574c-0.665,1.077-1.121,2.271-1.571,3.457c-0.456,1.187-0.908,2.363-1.354,3.526
					c-1.805,4.645-3.62,9.057-5.405,13.204c-3.563,8.299-7.015,15.535-10.007,21.497c-1.495,2.981-2.872,5.65-4.203,7.916
					c-1.329,2.267-2.596,4.134-3.728,5.577C364.527,332.996,362.949,334.249,362.949,334.249z"/>
			</g>
			<g>
				<path style="fill:#455A64;" d="M411.088,184.997c-0.09,0.019,0.042-1.416-0.91-3.698c-0.923-2.24-3.196-5.279-7.178-7.19
					c-1.977-0.933-4.345-1.523-6.919-1.692c-2.576-0.169-5.349,0.077-8.207,0.627c-5.733,1.054-11.751,3.529-18.492,4.545
					c-3.377,0.442-6.723,0.421-9.902-0.011c-3.181-0.446-6.159-1.348-8.901-2.413c-5.451-2.25-9.847-5.389-12.96-8.561
					c-3.131-3.162-5.155-6.189-6.279-8.398c-0.319-0.533-0.553-1.032-0.737-1.474c-0.187-0.427-0.349-0.795-0.485-1.107
					c-0.117-0.277-0.211-0.501-0.288-0.684c-0.062-0.155-0.09-0.236-0.082-0.24c0.008-0.003,0.052,0.071,0.131,0.219
					c0.089,0.176,0.199,0.394,0.335,0.662c0.149,0.304,0.324,0.664,0.529,1.081c0.198,0.433,0.444,0.922,0.775,1.445
					c1.172,2.167,3.227,5.136,6.36,8.234c3.116,3.108,7.486,6.179,12.881,8.377c2.713,1.04,5.655,1.92,8.793,2.354
					c3.137,0.419,6.43,0.435,9.757,0c6.65-0.998,12.679-3.458,18.478-4.501c2.889-0.542,5.703-0.776,8.325-0.586
					c2.619,0.191,5.032,0.813,7.049,1.791c4.052,1.997,6.323,5.141,7.205,7.445c0.479,1.159,0.603,2.133,0.696,2.777
					c0.013,0.301,0.024,0.546,0.033,0.744C411.099,184.911,411.097,184.996,411.088,184.997z"/>
			</g>
			<g>
				<path style="fill:#455A64;" d="M395.997,163.446c0.002,0.018-0.246,0.061-0.717,0.127c-0.472,0.064-1.166,0.167-2.056,0.322
					c-1.783,0.296-4.336,0.864-7.476,1.646c-3.137,0.778-6.9,1.721-11.182,2.166c-4.273,0.454-9.036,0.415-13.945-0.303
					c-4.913-0.711-9.487-2.021-13.473-3.623c-3.986-1.606-7.402-3.462-10.112-5.251c-1.343-0.911-2.549-1.753-3.561-2.55
					c-0.992-0.823-1.883-1.488-2.541-2.113c-0.63-0.593-1.136-1.068-1.521-1.431c-0.343-0.331-0.518-0.511-0.505-0.524
					c0.012-0.013,0.211,0.142,0.577,0.447c0.401,0.343,0.926,0.793,1.582,1.354c0.676,0.6,1.582,1.238,2.586,2.035
					c1.023,0.771,2.238,1.587,3.584,2.472c5.415,3.463,13.683,7.28,23.46,8.667c4.866,0.711,9.584,0.764,13.823,0.341
					c4.244-0.414,7.993-1.313,11.146-2.047c3.153-0.736,5.731-1.252,7.53-1.488c0.898-0.125,1.6-0.196,2.076-0.226
					C395.745,163.436,395.996,163.428,395.997,163.446z"/>
			</g>
			<g>
				<path style="fill:#263238;" d="M397.485,230.447c-0.007,0.017-0.14-0.023-0.391-0.114c-0.247-0.1-0.609-0.261-1.037-0.536
					c-0.858-0.536-2.001-1.54-2.926-3.122c-0.938-1.574-1.559-3.705-1.796-6.087c-0.231-2.384-0.231-5.011-0.009-7.757
					c0.232-2.745,0.695-5.336,1.285-7.647c0.581-2.306,1.278-4.376,2.232-5.937c0.94-1.569,2.078-2.577,2.944-3.105
					c0.433-0.269,0.793-0.432,1.042-0.526c0.251-0.092,0.387-0.124,0.393-0.109c0.019,0.045-0.512,0.232-1.323,0.803
					c-0.809,0.565-1.867,1.579-2.738,3.122c-0.885,1.536-1.533,3.57-2.084,5.867c-0.558,2.294-1.002,4.859-1.231,7.575
					c-0.22,2.712-0.233,5.323-0.032,7.666c0.206,2.34,0.774,4.41,1.638,5.951c0.854,1.552,1.918,2.563,2.72,3.136
					C396.974,230.212,397.507,230.399,397.485,230.447z"/>
			</g>
			<g>
				<path style="fill:#455A64;" d="M353.686,233.321l-10.256,2.013c-1.546,0.303-3.045-0.704-3.348-2.25l-0.074-0.378
					c-0.303-1.546,0.704-3.045,2.249-3.348l10.256-2.013c1.546-0.303,3.045,0.704,3.348,2.25l0.074,0.378
					C356.239,231.518,355.232,233.017,353.686,233.321z"/>
				<path style="fill:#455A64;" d="M354.471,228.885L401.917,214c1.174-0.368,2.425,0.28,2.8,1.452l0,0
					c0.39,1.215-0.315,2.51-1.547,2.843l-48.517,13.107L354.471,228.885z"/>
				<g>
					<path style="fill:#263238;" d="M389.54,222.342c-0.01-0.035,0.55-0.23,1.572-0.553c1.11-0.338,2.572-0.783,4.338-1.321
						c1.82-0.562,4.055-1.155,6.419-1.93c0.571-0.221,1.125-0.518,1.554-0.956c0.412-0.426,0.679-1.042,0.668-1.65
						c0-0.61-0.389-1.158-0.98-1.359c-0.594-0.198-1.304-0.11-1.983,0.06c-5.515,1.775-10.504,3.38-14.225,4.577
						c-1.764,0.545-3.224,0.996-4.333,1.339c-1.027,0.305-1.6,0.457-1.611,0.423c-0.011-0.034,0.54-0.252,1.547-0.616
						c1.095-0.383,2.538-0.887,4.281-1.496c3.633-1.234,8.613-2.94,14.213-4.732c0.724-0.177,1.51-0.298,2.283-0.044
						c0.781,0.249,1.334,1.052,1.319,1.835c0.006,0.775-0.316,1.488-0.823,2.011c-0.507,0.509-1.13,0.828-1.737,1.056
						c-2.452,0.777-4.639,1.313-6.49,1.836c-1.785,0.473-3.262,0.865-4.384,1.162C390.129,222.247,389.55,222.376,389.54,222.342z"
						/>
				</g>
			</g>
			<path style="fill:#263238;" d="M311.958,186c1.625,5.702-4.171,10.591-6.212,16.159c-1.973,5.383-0.293,11.415,2.136,16.608
				c2.428,5.193,5.626,10.12,6.869,15.716c3.067,13.8-9.411,28.666-7.034,42.601c0.866,5.075,2.909,10.373,4.682,15.207
				c1.773,4.834,1.648,9.256,0,14.133c-2.697,7.981-7.275,11.744-10.5,19.527c-1.649,3.98-1.519,8.438-1.436,12.745
				s0.052,8.798-1.864,12.656c-1.916,3.858-6.304,6.84-10.464,5.723c4.354,5.119,12.393,6.649,18.323,3.488
				c5.471-2.917,8.532-8.842,11.151-14.462c12.682-27.212,19.389-29.509,19.041-59.529c-0.022-1.932-0.384-31.999-0.384-31.999
				s-4.749-1.266-7.486-3.155c-14.165-9.776-14.681-27.199-14.569-40.702"/>
		</g>
		<g>
			<path style="fill:#FFBE9D;" d="M340.303,277.083v11.329c0,0-8.715,44.445-11.329,69.137c-2.614,24.692-3.056,31.206-3.056,31.206
				s6.252,9.753,19.324-6.805c13.072-16.558,15.396-19.172,20.625-19.463c0,0-6.391-69.428-6.1-72.042
				c0.29-2.614,2.324-4.938,2.324-4.938L340.303,277.083z"/>
			<g>
				<path style="fill:#FFBE9D;" d="M357.442,251.519c0,0-14.234,18.882-15.396,21.497c-1.162,2.614-1.743,4.067-1.743,4.067
					l21.787,8.424l21.206-23.24l7.843-20.625l-2.324-24.401c0,0-4.648-0.29-5.519,3.776c-0.871,4.067-0.581,7.843-0.581,7.843
					l-6.509-5.229l-10.485-3.195c0,0-2.469,4.067,1.598,6.1c4.067,2.034,5.229,2.034,5.229,2.034l3.659,6.391l-1.599,7.16
					l-7.415-6.953c-1.488-1.395-3.757-1.537-5.406-0.337l-4.791,3.483l-4.491-2.006l-8.715,7.658l-3.486,3.195
					c0,0,2.324,4.357,6.972,2.324c4.648-2.034,4.648-2.034,4.648-2.034L357.442,251.519z"/>
				<g>
					<path style="fill:#EB996E;" d="M340.303,280.906c0,0-0.018-0.205-0.005-0.605c0.013-0.4,0.048-0.996,0.143-1.773
						c0.098-0.776,0.249-1.737,0.545-2.847c0.323-1.096,0.689-2.398,1.528-3.658c3.255-5.005,8.387-11.965,14.782-20.613
						l0.038,0.256c-1.725-1.265-3.592-2.635-5.528-4.056l0.195,0.022c-0.94,0.413-1.898,0.834-2.873,1.263
						c-0.98,0.408-1.938,0.93-3.061,1.193c-1.105,0.253-2.348,0.171-3.401-0.386c-1.067-0.527-1.927-1.394-2.556-2.438l-0.085-0.141
						l0.13-0.122c3.747-3.516,7.912-7.075,12.191-10.871l0.129-0.114l0.149,0.088c1.198,0.707,2.526,1.492,3.868,2.285l-0.256,0.006
						c1.487-0.978,2.997-1.972,4.527-2.979c0.782-0.502,1.499-1.014,2.349-1.518c0.911-0.465,2.082-0.366,2.912,0.255
						c2.876,2.43,5.821,4.918,8.818,7.45l-0.415,0.139c0.48-2.153,1-4.484,1.525-6.837l0.028,0.184
						c-1.157-2.02-2.403-4.196-3.66-6.39l0.225,0.131c-0.69-0.075-1.214-0.283-1.805-0.487c-0.574-0.211-1.142-0.452-1.71-0.705
						c-0.569-0.252-1.132-0.526-1.697-0.804c-0.283-0.14-0.566-0.324-0.85-0.486c-0.249-0.22-0.544-0.388-0.753-0.659
						c-0.669-0.707-1.057-1.705-1.008-2.67c0.022-0.97,0.31-1.879,0.773-2.719l0.097-0.175l0.202,0.062
						c3.542,1.08,7.039,2.147,10.484,3.197l0.048,0.015l0.039,0.031c2.197,1.766,4.366,3.51,6.507,5.231l-0.413,0.218
						c-0.137-2.633,0.046-5.224,0.554-7.734c0.219-1.282,0.981-2.546,2.119-3.217c1.124-0.695,2.413-0.958,3.697-0.934l0.209,0.004
						l0.021,0.218c0.817,8.674,1.586,16.847,2.298,24.404l0.005,0.051l-0.018,0.048c-2.907,7.603-5.543,14.497-7.88,20.611
						l-0.012,0.032l-0.023,0.025c-6.973,7.59-12.584,13.699-16.466,17.924c-1.933,2.088-3.434,3.71-4.466,4.824
						c-0.504,0.537-0.892,0.949-1.168,1.242c-0.265,0.278-0.41,0.411-0.41,0.411s0.12-0.157,0.372-0.446
						c0.267-0.301,0.642-0.725,1.13-1.276c1.016-1.129,2.494-2.773,4.396-4.888c3.854-4.251,9.424-10.397,16.346-18.034
						l-0.035,0.057c2.316-6.122,4.926-13.025,7.806-20.639l-0.013,0.098c-0.728-7.555-1.515-15.726-2.35-24.399l0.229,0.222
						c-1.16-0.021-2.402,0.235-3.401,0.863c-1.022,0.613-1.682,1.697-1.893,2.898c-0.495,2.454-0.672,5.031-0.537,7.593l0.03,0.575
						l-0.444-0.357c-2.142-1.719-4.313-3.462-6.511-5.226l0.086,0.045c-3.446-1.049-6.944-2.115-10.486-3.193l0.298-0.114
						c-0.406,0.736-0.685,1.608-0.697,2.458c-0.041,0.858,0.29,1.688,0.869,2.307c0.176,0.237,0.448,0.386,0.666,0.584
						c0.264,0.148,0.508,0.31,0.786,0.448c0.559,0.276,1.117,0.547,1.678,0.795c1.1,0.481,2.28,0.99,3.303,1.147l0.165,0.025
						l0.06,0.106c1.256,2.195,2.501,4.371,3.657,6.391l0.05,0.087l-0.022,0.098c-0.526,2.353-1.048,4.684-1.529,6.836l-0.092,0.413
						l-0.323-0.274c-2.985-2.528-5.918-5.011-8.784-7.438c-0.681-0.511-1.646-0.595-2.396-0.213
						c-0.745,0.442-1.539,0.997-2.298,1.484c-1.532,1.005-3.044,1.996-4.532,2.972l-0.126,0.083l-0.13-0.077
						c-1.341-0.795-2.668-1.583-3.864-2.292l0.278-0.026c-4.284,3.786-8.458,7.334-12.21,10.836l0.045-0.263
						c0.565,0.943,1.39,1.786,2.362,2.262c0.965,0.514,2.09,0.591,3.121,0.361c1.028-0.232,2.005-0.75,2.987-1.157
						c0.977-0.425,1.936-0.843,2.878-1.253l0.104-0.045l0.091,0.067c1.93,1.428,3.791,2.806,5.511,4.078l0.148,0.109l-0.11,0.147
						c-6.429,8.615-11.609,15.549-14.904,20.501c-0.835,1.222-1.216,2.511-1.551,3.592c-0.309,1.098-0.476,2.051-0.59,2.821
						c-0.111,0.771-0.163,1.364-0.193,1.762C340.32,280.702,340.303,280.906,340.303,280.906z"/>
				</g>
				<g>
					<path style="fill:#EB996E;" d="M367.263,255.892c-0.104-0.016,0.281-1.541,0.44-4.016c0.051-1.227-0.019-2.734-0.687-4.198
						c-0.664-1.467-1.975-2.743-3.47-3.897c-3.016-2.327-5.924-4.201-8.064-5.492c-1.001-0.589-1.853-1.091-2.553-1.503
						c-0.605-0.353-0.936-0.557-0.919-0.59c0.016-0.031,0.378,0.112,1.013,0.411c0.636,0.298,1.543,0.757,2.643,1.364
						c2.199,1.215,5.157,3.051,8.2,5.4c1.516,1.17,2.895,2.519,3.587,4.11c0.692,1.585,0.716,3.166,0.618,4.419
						c-0.106,1.265-0.334,2.262-0.492,2.946C367.413,255.527,367.297,255.899,367.263,255.892z"/>
				</g>
				<g>
					<path style="fill:#EB996E;" d="M382.51,246.828c-0.079-0.02,0.132-1.008,0.37-2.613c0.239-1.605,0.466-3.837,0.448-6.309
						c-0.024-2.473-0.289-4.701-0.555-6.302c-0.265-1.601-0.492-2.585-0.414-2.607c0.06-0.017,0.414,0.936,0.775,2.537
						c0.362,1.599,0.69,3.857,0.714,6.367c0.019,2.51-0.271,4.772-0.606,6.377C382.908,245.885,382.57,246.844,382.51,246.828z"/>
				</g>
			</g>
		</g>
	</g>
</g>
<g id="Speech_Bubble">
	<g>
		<g>
			<g>
				<g>
					<path style="fill:#FFFFFF;" d="M285.402,172.734l-10.424-18.371c4.611-7.485,7.277-16.297,7.277-25.734
						c0-27.138-22-49.138-49.138-49.138c-27.138,0-49.138,22-49.138,49.138c0,27.138,22,49.138,49.138,49.138
						c11.332,0,21.76-3.846,30.072-10.29l-0.017,0.022L285.402,172.734z"/>
					<g>
						<path style="fill:#263238;" d="M285.402,172.734c-0.909-0.209-8.04-1.845-22.26-5.108l-0.195-0.045l0.122-0.16l0.017-0.022
							l0.182,0.181c-2.803,2.169-6.16,4.307-10.106,6.087c-3.95,1.75-8.476,3.179-13.472,3.843c-2.494,0.318-5.1,0.523-7.778,0.391
							c-1.338-0.076-2.7-0.109-4.074-0.224c-1.365-0.206-2.748-0.416-4.15-0.628c-5.561-1.099-11.247-3.211-16.551-6.503
							c-5.3-3.28-10.208-7.734-14.141-13.206c-3.927-5.462-6.905-11.938-8.299-18.975c-1.38-7.027-1.265-14.559,0.581-21.849
							c1.859-7.264,5.33-14.36,10.527-20.198l2.006-2.207c0.659-0.742,1.446-1.354,2.16-2.035c0.748-0.644,1.423-1.373,2.227-1.942
							c0.787-0.589,1.573-1.176,2.357-1.762c0.763-0.617,1.604-1.114,2.44-1.614c0.833-0.506,1.663-1.01,2.492-1.513
							c0.872-0.423,1.741-0.846,2.609-1.267c0.875-0.403,1.716-0.881,2.633-1.171c7.134-2.833,14.743-3.911,22.015-3.384
							c7.275,0.523,14.236,2.61,20.208,5.971c5.991,3.334,11.043,7.786,14.943,12.759c3.912,4.975,6.668,10.463,8.376,15.928
							c1.696,5.49,2.156,10.936,2.138,15.977c-0.145,5.053-1.063,9.71-2.402,13.796c-1.342,4.092-3.104,7.613-4.924,10.575
							l0.002-0.127C281.701,166.121,284.966,171.955,285.402,172.734c-0.445-0.773-3.779-6.569-10.533-18.309l-0.036-0.063
							l0.039-0.064c1.793-2.958,3.528-6.466,4.844-10.539c1.313-4.066,2.207-8.694,2.334-13.711c0-5.005-0.471-10.407-2.167-15.847
							c-1.707-5.415-4.452-10.849-8.338-15.772c-3.874-4.921-8.887-9.323-14.824-12.616c-5.919-3.321-12.812-5.377-20.014-5.889
							c-7.201-0.515-14.729,0.558-21.787,3.363c-0.908,0.286-1.74,0.76-2.605,1.16c-0.858,0.417-1.718,0.835-2.581,1.254
							c-0.82,0.498-1.641,0.998-2.465,1.498c-0.827,0.495-1.66,0.987-2.414,1.598c-0.776,0.58-1.553,1.161-2.332,1.744
							c-0.796,0.563-1.462,1.285-2.203,1.922c-0.707,0.674-1.486,1.279-2.137,2.014L196.2,96.66
							c-5.143,5.776-8.578,12.797-10.421,19.983c-1.829,7.211-1.949,14.667-0.589,21.624c1.373,6.966,4.315,13.38,8.196,18.794
							c3.889,5.424,8.742,9.844,13.988,13.104c5.249,3.272,10.88,5.378,16.392,6.481c1.39,0.214,2.762,0.425,4.115,0.633
							c1.362,0.118,2.714,0.153,4.041,0.233c2.657,0.138,5.243-0.058,7.72-0.365c4.961-0.642,9.459-2.045,13.392-3.768
							c3.928-1.753,7.275-3.862,10.075-6.004l0.785-0.601l-0.603,0.782l-0.017,0.022l-0.073-0.205
							C277.384,170.798,284.496,172.515,285.402,172.734z"/>
					</g>
				</g>
			</g>
		</g>
		<g>
			<g>
				<g>
					<g>
						<g>
							<path style="fill:#263238;" d="M222.467,128.629c0,2.204-1.786,3.99-3.99,3.99c-2.204,0-3.99-1.786-3.99-3.99
								c0-2.203,1.786-3.989,3.99-3.989C220.681,124.64,222.467,126.426,222.467,128.629z"/>
						</g>
					</g>
				</g>
			</g>
			<g>
				<g>
					<g>
						<g>
							<path style="fill:#263238;" d="M238.433,128.629c0,2.204-1.786,3.99-3.99,3.99c-2.204,0-3.99-1.786-3.99-3.99
								c0-2.203,1.786-3.989,3.99-3.989C236.647,124.64,238.433,126.426,238.433,128.629z"/>
						</g>
					</g>
				</g>
			</g>
			<g>
				<g>
					<g>
						<g>
							<path style="fill:#263238;" d="M254.358,126.634c1.102,1.908,0.448,4.348-1.46,5.45c-1.908,1.102-4.348,0.448-5.45-1.46
								c-1.102-1.908-0.448-4.348,1.46-5.45C250.816,124.073,253.256,124.726,254.358,126.634z"/>
						</g>
					</g>
				</g>
			</g>
		</g>
	</g>
</g>
<g id="Table">
	<g>
		<path style="fill:#263238;" d="M482.044,442.142c0,0.144-101.659,0.26-227.033,0.26c-125.418,0-227.055-0.117-227.055-0.26
			s101.637-0.26,227.055-0.26C380.385,441.882,482.044,441.998,482.044,442.142z"/>
	</g>
</g>
<g id="Device">
	<g>
		<g>
			<path style="fill:#455A64;" d="M353.555,442.385c0,0,6.782-11.582,21.388-12.079s21.91,12.079,21.91,12.079H353.555z"/>
		</g>
		<g>
			<g>
				<path style="fill:#263238;" d="M381.546,442.023c-0.107,0-0.133-0.857-0.428-2.18c-0.289-1.322-0.929-3.102-2.084-4.811
					c-1.164-1.704-2.583-2.955-3.705-3.71c-1.122-0.762-1.909-1.101-1.869-1.201c0.021-0.065,0.879,0.127,2.108,0.819
					c1.226,0.683,2.773,1.946,3.993,3.734c1.212,1.793,1.816,3.696,2,5.088C381.751,441.159,381.614,442.028,381.546,442.023z"/>
			</g>
		</g>
	</g>
	<g>
		<path style="fill:#455A64;" d="M344.513,441.855l-0.001-0.092c-0.05-3.061-2.546-5.516-5.607-5.516H214.56
			c-3.097,0-5.608,2.511-5.608,5.608l0,0H344.513z"/>
	</g>
	<g>
		<path style="fill:#263238;" d="M106.473,224.044c0,2.616,1.959,158.78,1.959,158.78l115.985,27.906h9.593l-6.105-218.017h-8.721
			L106.473,224.044z"/>
		<path style="fill:#263238;" d="M131.002,376.287l-35.947,65.886h32.856c-5.876-0.587,52.028,0,52.028,0l-52.028-13.796
			l16.269-36.952l-1.388-15.138H131.002z"/>
		<polygon style="fill:#263238;" points="131.804,388.448 127.911,265.654 163.229,262.267 167.583,393.38 154.967,394.021 		"/>
		<g>
			<path style="fill:#455A64;" d="M172.52,398.244c0,0-0.015-0.193-0.022-0.571c-0.005-0.392-0.012-0.952-0.021-1.684
				c-0.009-1.498-0.023-3.688-0.041-6.524c-0.017-5.707-0.042-14.003-0.073-24.424c-0.023-20.872-0.055-50.245-0.093-84.305
				l0.249,0.249c-13.071,0.003-27.132,0.007-41.674,0.011l0.26-0.26c0,1.792,0,3.725,0,5.667
				c-0.016,33.214-0.03,64.129-0.042,89.884v0.056l-0.027,0.048c-10.817,19.833-19.79,36.284-26.067,47.793
				c-3.143,5.733-5.61,10.231-7.299,13.311c-0.842,1.521-1.49,2.69-1.934,3.492c-0.44,0.788-0.683,1.186-0.683,1.186
				s0.202-0.42,0.623-1.218c0.431-0.81,1.059-1.988,1.877-3.523c1.665-3.093,4.096-7.611,7.194-13.368
				c6.238-11.53,15.155-28.012,25.905-47.881l-0.026,0.104c-0.012-25.755-0.027-56.67-0.042-89.884c0-1.941,0-3.874,0-5.667v-0.26
				h0.26c14.542,0.004,28.603,0.008,41.674,0.011l0.25,0l0,0.249c-0.037,34.06-0.07,63.433-0.093,84.305
				c-0.031,10.421-0.056,18.716-0.073,24.424c-0.018,2.837-0.032,5.027-0.041,6.524c-0.009,0.732-0.016,1.291-0.021,1.684
				C172.535,398.051,172.52,398.244,172.52,398.244z"/>
		</g>
		<g>
			<path style="fill:#455A64;" d="M144.179,391.425c0.132,0.058-4.871,11.623-11.171,25.827
				c-6.303,14.209-11.517,25.676-11.649,25.618c-0.131-0.058,4.87-11.62,11.172-25.829
				C138.833,402.837,144.048,391.367,144.179,391.425z"/>
		</g>
		<g>
			<path style="fill:#455A64;" d="M224.418,410.731c0,0-0.019-0.19-0.029-0.562c-0.008-0.391-0.019-0.939-0.033-1.648
				c-0.018-1.47-0.043-3.602-0.076-6.337c-0.041-5.503-0.165-13.467-0.359-23.305c-0.374-19.678-1.262-46.852-2.352-76.862
				c-1.09-30.021-1.92-57.204-2.2-76.887c-0.147-9.841-0.215-17.805-0.194-23.309c0.009-2.736,0.017-4.868,0.022-6.337
				c0.008-0.709,0.014-1.257,0.019-1.648c0.007-0.371,0.024-0.561,0.024-0.561s0.019,0.19,0.029,0.561
				c0.008,0.391,0.019,0.939,0.033,1.648c0.018,1.47,0.043,3.601,0.076,6.337c0.041,5.503,0.165,13.465,0.359,23.304
				c0.374,19.678,1.262,46.854,2.352,76.875c1.09,30.01,1.92,57.191,2.2,76.874c0.147,9.841,0.215,17.806,0.194,23.311
				c-0.009,2.736-0.017,4.868-0.022,6.338c-0.008,0.709-0.014,1.257-0.019,1.648C224.435,410.54,224.418,410.731,224.418,410.731z"
				/>
		</g>
		<g>
			<path style="fill:#455A64;" d="M166.193,279.829c0.144,0,0.26,26.117,0.26,58.327c0,32.221-0.117,58.333-0.26,58.333
				c-0.144,0-0.26-26.112-0.26-58.333C165.933,305.946,166.049,279.829,166.193,279.829z"/>
		</g>
		<g>
			<path style="fill:#455A64;" d="M103.696,431.889c-0.015,0.01-0.186-0.229-0.499-0.695c-0.163-0.247-0.354-0.535-0.574-0.867
				c-0.237-0.337-0.48-0.744-0.72-1.222c-1.083-1.84-2.313-4.72-3.172-8.45c-0.854-3.73-1.144-8.338-0.619-13.368
				c0.574-5.022,1.923-10.478,4.334-15.805c1.215-2.667,2.783-5.085,4.534-7.212c0.422-0.546,0.856-1.073,1.325-1.561
				c0.46-0.496,0.901-1,1.363-1.475c0.963-0.909,1.867-1.843,2.859-2.632c1.903-1.672,3.915-3.003,5.81-4.211
				c0.986-0.541,1.915-1.107,2.853-1.566c0.951-0.43,1.828-0.923,2.73-1.246c3.542-1.441,6.591-2.141,8.72-2.323
				c1.055-0.177,1.893-0.112,2.452-0.149c0.561-0.011,0.855-0.008,0.855,0.01s-0.294,0.05-0.852,0.095
				c-0.556,0.071-1.386,0.039-2.43,0.246c-2.106,0.242-5.113,0.991-8.603,2.462c-0.889,0.331-1.753,0.83-2.69,1.264
				c-0.924,0.463-1.839,1.033-2.81,1.577c-1.866,1.212-3.849,2.543-5.723,4.207c-0.977,0.785-1.866,1.713-2.815,2.616
				c-0.455,0.471-0.889,0.971-1.342,1.462c-0.462,0.484-0.889,1.006-1.304,1.545c-1.723,2.104-3.265,4.49-4.458,7.11
				c-2.382,5.262-3.736,10.675-4.33,15.64c-0.545,4.978-0.298,9.536,0.502,13.237c0.804,3.701,1.969,6.575,2.99,8.432
				c0.224,0.482,0.452,0.894,0.674,1.238c0.203,0.341,0.378,0.636,0.529,0.889C103.569,431.62,103.711,431.879,103.696,431.889z"/>
		</g>
	</g>
</g>
</svg>
