<?xml version="1.0" encoding="utf-8"?>
<!-- Generator: Adobe Illustrator 27.5.0, SVG Export Plug-In . SVG Version: 6.00 Build 0)  -->
<svg version="1.1" xmlns="http://www.w3.org/2000/svg" xmlns:xlink="http://www.w3.org/1999/xlink" x="0px" y="0px"
	 viewBox="0 0 750 500" style="enable-background:new 0 0 750 500;" xml:space="preserve">
<g id="Background_Complete">
	<g>
		<g>
			<g>
				<g>
					<path style="fill:#EBEBEB;" d="M66.861,216.425c0,0-8.352-0.601-7.583,18.136c0.769,18.737,2.681,28.717,2.681,28.717
						s-0.245,4.155-3.463,3.339c-3.218-0.815-9.27-4.858-12.26-1.836c-3.1,3.134-1.998,7.942,2.114,13.605
						s12.667,18.4,13.436,19.555c0.755,1.134,1.058,3.259-1.223,3.055c-2.281-0.204-17.676-5.422-19.715,2.031
						c-2.039,7.454,12.01,21.347,13.517,22.895c1.507,1.548,1.588,2.526,0.977,3.462c-0.611,0.937-5.621-1.305-10.06-2.609
						c-4.44-1.305-9.816-2.039-10.632,2.36c-0.816,4.399,5.372,17.272,28.545,30.801l11.148,5.566l10.552-6.73
						c21.703-15.78,26.572-29.207,25.321-33.502c-1.252-4.295-6.528-3.026-10.814-1.284c-4.287,1.742-9.047,4.474-9.749,3.603
						c-0.702-0.871-0.719-1.852,0.625-3.543c1.344-1.691,13.933-16.92,11.159-24.132c-2.774-7.212-17.57-0.48-19.819-0.049
						c-2.249,0.431-2.16-1.714-1.522-2.917c0.65-1.226,7.888-14.755,11.413-20.801c3.525-6.046,4.141-10.939,0.743-13.748
						c-3.277-2.708-8.895,1.92-12.015,3.053c-3.12,1.133-3.78-2.976-3.78-2.976s0.904-10.121-0.205-28.841
						c-1.109-18.72-9.56-17.209-9.56-17.209"/>
				</g>
			</g>
			<g>
				<g>
					<g>
						<path style="fill:#E0E0E0;" d="M67.521,233.206c0,0,0.022,0.132,0.045,0.391c0.021,0.277,0.051,0.659,0.089,1.15
							c0.07,1.032,0.171,2.519,0.3,4.425c0.256,3.843,0.585,9.406,0.964,16.282c0.764,13.751,1.657,32.756,2.574,53.747
							c0.917,20.999,1.763,40.006,2.45,53.76c0.349,6.862,0.632,12.422,0.828,16.287c0.095,1.908,0.169,3.396,0.22,4.428
							c0.02,0.492,0.035,0.875,0.047,1.152c0.008,0.26,0.001,0.393,0.001,0.393s-0.022-0.132-0.045-0.391
							c-0.021-0.277-0.051-0.659-0.089-1.15c-0.07-1.031-0.171-2.518-0.3-4.424c-0.256-3.842-0.585-9.405-0.964-16.281
							c-0.764-13.751-1.657-32.758-2.575-53.757c-0.917-20.992-1.762-39.996-2.449-53.75c-0.349-6.862-0.632-12.422-0.829-16.288
							c-0.095-1.908-0.169-3.397-0.22-4.429c-0.02-0.492-0.035-0.875-0.047-1.153C67.514,233.34,67.521,233.206,67.521,233.206z"/>
					</g>
				</g>
			</g>
			<g>
				<g>
					<g>
						<path style="fill:#E0E0E0;" d="M54.475,270.778c0.021-0.021,0.267,0.185,0.694,0.577c0.429,0.389,1.031,0.972,1.769,1.699
							c1.471,1.457,3.45,3.524,5.59,5.845c2.094,2.291,3.988,4.363,5.452,5.966c0.651,0.706,1.204,1.306,1.659,1.799
							c0.393,0.424,0.601,0.668,0.581,0.69c-0.02,0.021-0.268-0.183-0.698-0.572c-0.428-0.391-1.031-0.974-1.761-1.709
							c-1.457-1.472-3.408-3.564-5.548-5.884c-2.11-2.275-4.017-4.332-5.493-5.924c-0.655-0.703-1.212-1.301-1.669-1.792
							C54.66,271.045,54.454,270.798,54.475,270.778z"/>
					</g>
				</g>
			</g>
			<g>
				<g>
					<g>
						<path style="fill:#E0E0E0;" d="M71.326,286.986c-0.084-0.083,3.993-4.352,9.105-9.535c5.114-5.185,9.326-9.319,9.41-9.236
							c0.084,0.083-3.992,4.351-9.106,9.536C75.623,282.933,71.41,287.068,71.326,286.986z"/>
					</g>
				</g>
			</g>
			<g>
				<g>
					<g>
						<path style="fill:#E0E0E0;" d="M71.28,319.291c-0.013-0.026,0.264-0.201,0.777-0.494c0.595-0.334,1.323-0.743,2.181-1.224
							c1.84-1.034,4.376-2.47,7.117-4.156c2.746-1.68,5.18-3.284,6.933-4.458c0.818-0.546,1.512-1.009,2.08-1.387
							c0.494-0.324,0.775-0.493,0.793-0.469c0.017,0.024-0.231,0.237-0.695,0.604c-0.465,0.366-1.147,0.882-2.005,1.5
							c-1.713,1.24-4.128,2.89-6.883,4.575c-2.75,1.69-5.318,3.09-7.198,4.057c-0.942,0.48-1.709,0.859-2.247,1.105
							C71.596,319.192,71.293,319.317,71.28,319.291z"/>
					</g>
				</g>
			</g>
			<g>
				<g>
					<g>
						<path style="fill:#E0E0E0;" d="M52.812,307.985c0.015-0.025,0.289,0.105,0.771,0.362c0.482,0.257,1.173,0.641,2.021,1.123
							c1.697,0.964,4.027,2.322,6.586,3.844c2.56,1.523,4.866,2.921,6.523,3.952c0.829,0.516,1.496,0.939,1.952,1.24
							c0.456,0.301,0.701,0.479,0.686,0.505c-0.015,0.025-0.289-0.105-0.771-0.362c-0.482-0.257-1.173-0.641-2.021-1.123
							c-1.697-0.964-4.027-2.322-6.587-3.845c-2.559-1.522-4.864-2.921-6.522-3.951c-0.829-0.515-1.496-0.939-1.952-1.24
							C53.041,308.189,52.796,308.01,52.812,307.985z"/>
					</g>
				</g>
			</g>
			<g>
				<g>
					<g>
						<path style="fill:#E0E0E0;" d="M49.148,336.5c0.015-0.026,0.363,0.145,0.981,0.474c0.687,0.379,1.557,0.859,2.595,1.431
							c2.181,1.225,5.18,2.942,8.479,4.861c3.3,1.92,6.275,3.679,8.417,4.97c1.011,0.619,1.858,1.138,2.526,1.548
							c0.592,0.374,0.912,0.593,0.897,0.618c-0.015,0.026-0.363-0.145-0.981-0.474c-0.687-0.379-1.557-0.859-2.595-1.431
							c-2.181-1.225-5.181-2.942-8.48-4.862c-3.299-1.919-6.274-3.678-8.416-4.969c-1.011-0.62-1.858-1.139-2.527-1.549
							C49.453,336.744,49.133,336.525,49.148,336.5z"/>
					</g>
				</g>
			</g>
			<g>
				<g>
					<g>
						<path style="fill:#E0E0E0;" d="M72.565,349.909c-0.014-0.026,0.332-0.255,0.969-0.649c0.709-0.432,1.619-0.986,2.71-1.65
							c2.287-1.394,5.439-3.329,8.86-5.561c3.425-2.228,6.474-4.324,8.671-5.854c1.049-0.729,1.924-1.336,2.605-1.81
							c0.618-0.424,0.968-0.648,0.985-0.624c0.018,0.023-0.299,0.292-0.887,0.758c-0.588,0.466-1.449,1.125-2.528,1.922
							c-2.155,1.595-5.182,3.735-8.614,5.967c-3.427,2.236-6.611,4.134-8.94,5.463c-1.166,0.661-2.116,1.187-2.78,1.534
							C72.953,349.754,72.579,349.935,72.565,349.909z"/>
					</g>
				</g>
			</g>
		</g>
		<g>
			<g>
				<g>
					<g>
						<polygon style="fill:#E0E0E0;" points="89.32,369.149 58.478,369.149 68.544,445.347 79.253,445.347 						"/>
					</g>
				</g>
			</g>
			<g>
				<g>
					<g>
						<g>
							<path style="fill:#F5F5F5;" d="M60.079,378.515c-0.012,0.008,0.034,0.108,0.165,0.271c0.131,0.162,0.373,0.373,0.744,0.532
								c0.731,0.318,2.015,0.344,3.257-0.4c1.245-0.687,2.33-2.036,3.999-2.633c1.655-0.632,3.706-0.519,5.671,0.113
								c1.989,0.615,3.716,1.622,5.281,2.559c1.568,0.933,3.005,1.765,4.294,2.304c1.28,0.559,2.395,0.817,3.167,0.916
								c0.387,0.051,0.689,0.067,0.895,0.061c0.205,0,0.312-0.009,0.313-0.026c0.017-0.101-1.746-0.085-4.23-1.275
								c-1.245-0.569-2.644-1.421-4.2-2.377c-1.548-0.956-3.318-2.007-5.371-2.642c-2.029-0.653-4.211-0.771-5.986-0.065
								c-0.887,0.338-1.632,0.868-2.253,1.393c-0.63,0.521-1.194,1.012-1.765,1.368c-1.128,0.729-2.313,0.759-3.004,0.521
								C60.346,378.889,60.118,378.473,60.079,378.515z"/>
						</g>
					</g>
				</g>
			</g>
			<g>
				<g>
					<g>
						<g>
							<path style="fill:#F5F5F5;" d="M61.204,392.549c0.041,0.026,0.244-0.314,0.727-0.818c0.491-0.489,1.295-1.129,2.463-1.562
								c1.157-0.444,2.644-0.708,4.289-0.646c1.652,0.057,3.452,0.42,5.367,0.731c1.911,0.321,3.804,0.465,5.495,0.228
								c1.69-0.217,3.159-0.704,4.324-1.234c1.168-0.533,2.032-1.116,2.6-1.546c0.569-0.431,0.84-0.721,0.824-0.741
								c-0.058-0.083-1.249,0.983-3.566,1.961c-1.156,0.477-2.595,0.915-4.237,1.1c-1.642,0.204-3.46,0.054-5.36-0.264
								c-1.899-0.308-3.728-0.664-5.432-0.698c-1.707-0.038-3.245,0.273-4.436,0.78c-1.202,0.495-2.014,1.214-2.475,1.761
								c-0.222,0.285-0.384,0.512-0.467,0.684C61.229,392.45,61.189,392.541,61.204,392.549z"/>
						</g>
					</g>
				</g>
			</g>
			<g>
				<g>
					<g>
						<g>
							<path style="fill:#F5F5F5;" d="M85.826,400.063c0.012-0.023-0.274-0.216-0.85-0.441c-0.574-0.227-1.45-0.46-2.556-0.548
								c-1.105-0.088-2.428-0.016-3.864,0.221c-1.438,0.233-2.98,0.63-4.599,0.974c-1.618,0.341-3.179,0.57-4.593,0.519
								c-1.413-0.049-2.67-0.358-3.646-0.789c-1.984-0.871-2.691-2.139-2.766-2.059c-0.019,0.011,0.121,0.329,0.522,0.805
								c0.397,0.475,1.091,1.081,2.094,1.576c1.001,0.492,2.304,0.852,3.776,0.929c1.475,0.08,3.08-0.145,4.717-0.49
								c1.637-0.348,3.167-0.756,4.574-1.01c1.406-0.258,2.691-0.363,3.765-0.323C84.564,399.5,85.795,400.155,85.826,400.063z"/>
						</g>
					</g>
				</g>
			</g>
			<g>
				<g>
					<g>
						<g>
							<path style="fill:#F5F5F5;" d="M63.929,410.63c0.015,0.081,1.101-0.686,2.994-0.302c0.928,0.167,1.966,0.638,3.133,1.168
								c1.162,0.542,2.563,1.006,4.066,1.121c3.03,0.291,5.725-0.688,7.378-1.71c0.847-0.502,1.437-1.043,1.836-1.412
								c0.375-0.399,0.568-0.629,0.543-0.653c-0.067-0.074-0.878,0.838-2.558,1.757c-1.651,0.914-4.253,1.796-7.155,1.516
								c-2.92-0.167-5.161-1.908-7.186-2.138c-0.987-0.148-1.812-0.006-2.326,0.202C64.134,410.383,63.914,410.612,63.929,410.63z"
								/>
						</g>
					</g>
				</g>
			</g>
			<g>
				<g>
					<g>
						<g>
							<path style="fill:#F5F5F5;" d="M65.647,425.256c-0.001,0.058,1.034,0.051,2.571-0.511c1.55-0.518,3.469-1.707,5.71-2.597
								c1.124-0.428,2.252-0.692,3.277-0.686c1.026,0.005,1.942,0.255,2.635,0.601c1.417,0.705,1.827,1.708,1.905,1.644
								c0.022-0.01-0.04-0.261-0.293-0.65c-0.249-0.387-0.721-0.892-1.445-1.308c-0.722-0.412-1.692-0.719-2.796-0.751
								c-1.106-0.032-2.298,0.236-3.463,0.68c-2.322,0.926-4.18,2.149-5.661,2.736C66.626,425.044,65.635,425.175,65.647,425.256z"
								/>
						</g>
					</g>
				</g>
			</g>
			<g>
				<g>
					<g>
						<g>
							<path style="fill:#F5F5F5;" d="M67.159,432.06c-0.017,0.063,0.722,0.329,1.953,0.634c1.229,0.306,2.955,0.632,4.881,0.823
								c1.928,0.188,3.683,0.204,4.949,0.143c1.266-0.06,2.043-0.176,2.039-0.241c-0.008-0.152-3.125-0.019-6.938-0.402
								C70.229,432.651,67.197,431.913,67.159,432.06z"/>
						</g>
					</g>
				</g>
			</g>
		</g>
	</g>
	<g>
		<g>
			<g>
				<g>
					<g>
						<g>
							<path style="fill:#F5F5F5;" d="M692.184,54.185l-56.776-20.389L579.184,53.91c-7.177,3.39-13.473,5.42-13.473,12.106v33.292
								c0,23.12,6.058,46.03,18.521,66.257c10.488,17.021,26.728,34.546,51.728,45.685c22.982-7.465,40.136-27.366,50.624-44.387
								c12.464-20.227,18.521-43.137,18.521-66.257V70.669C705.105,61.134,700.052,56.478,692.184,54.185z"/>
						</g>
					</g>
				</g>
				<g>
					<g>
						<path style="fill:#EBEBEB;" d="M635.96,191.93c-19.78-8.813-32.628-22.975-40.926-36.441
							c-9.861-16.003-14.653-34.129-14.653-52.421V79.716c0-5.29,3.191-10.245,9.528-13.203l45.51-17.017l-0.01-15.7L579.184,53.91
							c-5.901,2.578-13.473,5.42-13.473,12.106v33.292c0,23.12,6.058,46.03,18.521,66.257
							c10.488,17.021,26.728,34.546,51.728,45.685V191.93z"/>
					</g>
				</g>
				<g>
					<g>
						<path style="fill:#E0E0E0;" d="M635.96,211.251c3.982-1.333,7.641-2.869,11.154-4.783
							c9.426-5.135,17.467-12.186,23.603-18.568c6.864-7.139,11.979-14.854,16.419-22.06c12.463-20.227,18.521-43.137,17.969-66.895
							l0.035-27.486c-0.035-13.687-7.055-14.696-12.956-17.274l-56.776-20.389l0.01,15.7l46.041,17.291
							c6.337,2.958,9.528,7.913,9.528,13.203v23.354c0,18.292-4.793,36.418-14.653,52.42c-8.298,13.467-20.594,27.353-40.374,36.166
							V211.251z"/>
					</g>
				</g>
			</g>
			<g>
				<path style="fill:#E0E0E0;" d="M650.47,101.571l0.063-4.493c0-8.128-6.613-14.741-14.741-14.741
					c-8.128,0-14.741,6.613-14.741,14.718l-0.064,4.577c-3.978,0.589-7.033,4.008-7.033,8.149v26.502
					c0,4.555,3.693,8.249,8.249,8.249h27.514c4.556,0,8.249-3.693,8.249-8.249v-26.502
					C657.966,105.48,654.672,101.952,650.47,101.571z M639.723,129.687h-7.196l1.123-5.197c-1.246-0.774-2.078-2.151-2.078-3.725
					c0-2.423,1.964-4.387,4.388-4.387c2.423,0,4.387,1.965,4.387,4.387c0,1.518-0.771,2.855-1.942,3.643
					C638.914,126.423,639.723,129.687,639.723,129.687z M647.294,101.533h-23.129l0.062-4.455c0-6.377,5.188-11.565,11.565-11.565
					c6.377,0,11.565,5.188,11.565,11.542L647.294,101.533z"/>
			</g>
			<g>
				<g>
					<path style="fill:#FFFFFF;" d="M589.581,101.247c-0.125,0.018-0.519-1.734-0.851-4.611c-0.341-2.875-0.593-6.881-0.461-11.303
						c0.063-2.211,0.209-4.315,0.41-6.22c0.183-1.904,0.532-3.689,1.269-5.024c0.722-1.343,1.729-2.143,2.487-2.499
						c0.77-0.358,1.25-0.341,1.257-0.287c0.096,0.125-1.918,0.521-3.117,3.101c-0.591,1.248-0.853,2.906-0.985,4.792
						c-0.149,1.892-0.266,3.976-0.328,6.165c-0.13,4.377,0.008,8.344,0.168,11.215C589.58,99.448,589.727,101.228,589.581,101.247z"
						/>
				</g>
			</g>
			<g>
				<g>
					<path style="fill:#FFFFFF;" d="M590.415,115.739c-0.274,0.006-0.524-1.363-0.557-3.055c-0.033-1.693,0.162-3.07,0.436-3.075
						c0.274-0.005,0.523,1.362,0.556,3.056C590.885,114.357,590.689,115.734,590.415,115.739z"/>
				</g>
			</g>
		</g>
	</g>
</g>
<g id="Background_Simple" style="display:none;">
	<path style="display:inline;fill:#EBEBEB;" d="M696.215,240.209c-30.213-36.492-84.157-52.056-128.411-35.143
		c-35.563,13.591-61.674,44.666-95.726,61.693c-36.928,18.465-82.489,18.598-119.524,0.349
		c-29.492-14.532-52.558-39.261-73.738-64.407s-41.512-51.572-67.841-71.262c-26.33-19.69-64.123-16.355-96.147-8.914
		c-32.025,7.441-97.023,43.195-87.768,166.86c0,0,14.629,153.502,207.453,155.963H602.16c47.004-5.925,89.931-28.4,109.919-71.353
		C732.066,331.041,726.428,276.701,696.215,240.209z"/>
</g>
<g id="Floor">
	<g>
		<g>
			<path style="fill:#263238;" d="M717.618,445.414c0,0.144-152.643,0.26-340.894,0.26c-188.316,0-340.926-0.117-340.926-0.26
				s152.61-0.26,340.926-0.26C564.975,445.153,717.618,445.27,717.618,445.414z"/>
		</g>
	</g>
</g>
<g id="Device">
	<g>
		<g>
			<g>
				<g>
					<g>
						<g>
							<g>
								<g>
									<g>
										<path style="fill:#455A64;" d="M595.956,62.055H162.028c-7.481,0-13.545,6.064-13.545,13.544v306.493
											c0,7.481,6.064,13.546,13.545,13.546h166.541c0,0,10.594,32.759-22.247,49.709h155.724c0,0-37.078-12.712-27.544-49.709
											h161.455c7.48,0,13.544-6.065,13.544-13.545V75.6C609.501,68.119,603.437,62.055,595.956,62.055z"/>
									</g>
								</g>
							</g>
						</g>
						<g>
							<g>
								<g>
									<g>
										<path style="fill:#263238;" d="M384.786,363.404c5.903,8.436-3.335,17.675-11.774,11.773
											c-0.278-0.196-0.531-0.448-0.725-0.727c-5.887-8.434,3.34-17.661,11.773-11.772
											C384.338,362.873,384.591,363.125,384.786,363.404z"/>
									</g>
								</g>
							</g>
						</g>
					</g>
					<g>
						<g>
							<path style="fill:#FFFFFF;" d="M602.03,339.567H155.955v-262.2c0-5.356,4.342-9.697,9.697-9.697h426.68
								c5.356,0,9.697,4.342,9.697,9.697V339.567z"/>
						</g>
					</g>
				</g>
				<g>
					<path style="fill:#EBEBEB;" d="M602.03,90.263H155.955V76.824c0-5.055,4.098-9.154,9.154-9.154h429.406
						c4.151,0,7.516,3.365,7.516,7.516V90.263z"/>
				</g>
				<g>
					<g>
						<circle style="fill:#E0E0E0;" cx="170.16" cy="79.44" r="3.134"/>
					</g>
					<g>
						<circle style="fill:#E0E0E0;" cx="179.502" cy="79.44" r="3.133"/>
					</g>
					<g>
						<circle style="fill:#E0E0E0;" cx="188.385" cy="79.44" r="3.133"/>
					</g>
				</g>
			</g>
			<g>
				<g>
					<path style="fill:#263238;" d="M518.377,395.681c0,0.144-61.748,0.26-137.901,0.26c-76.179,0-137.914-0.116-137.914-0.26
						c0-0.144,61.735-0.26,137.914-0.26C456.628,395.421,518.377,395.537,518.377,395.681z"/>
				</g>
			</g>
		</g>
		<g>
			<g>
				<g>
					<g>
						<g>
							<g>
								<path style="fill:#E8505B;" d="M447.89,128.524l-68.015-25.053l-67.355,24.716c-8.598,4.166-16.141,6.66-16.141,14.876
									v40.908c0,28.409,7.257,56.561,22.188,81.415c12.564,20.915,32.019,42.449,61.969,56.137
									c27.532-9.173,48.082-33.627,60.646-54.541c14.931-24.854,22.187-53.005,22.187-81.415V148.78
									C463.369,137.063,457.316,131.342,447.89,128.524z"/>
							</g>
						</g>
					</g>
					<g style="opacity:0.8;">
						<g>
							<g>
								<path style="fill:#FFFFFF;" d="M447.89,128.524l-68.015-25.053l-67.355,24.716c-8.598,4.166-16.141,6.66-16.141,14.876
									v40.908c0,28.409,7.257,56.561,22.188,81.415c12.564,20.915,32.019,42.449,61.969,56.137
									c27.532-9.173,48.082-33.627,60.646-54.541c14.931-24.854,22.187-53.005,22.187-81.415V148.78
									C463.369,137.063,457.316,131.342,447.89,128.524z"/>
							</g>
						</g>
					</g>
				</g>
				<g>
					<g>
						<g>
							<g>
								<path style="fill:#E8505B;" d="M421.409,232.082h-12.498v-68.024c0-16.011-13.026-29.037-29.037-29.037
									c-16.011,0-29.037,13.026-29.037,29.037v68.024H338.34v-68.024c0-22.902,18.633-41.535,41.535-41.535
									c22.902,0,41.535,18.633,41.535,41.535V232.082z"/>
							</g>
						</g>
						<g style="opacity:0.4;">
							<g>
								<path d="M421.409,232.082h-12.498v-68.024c0-16.011-13.026-29.037-29.037-29.037c-16.011,0-29.037,13.026-29.037,29.037
									v68.024H338.34v-68.024c0-22.902,18.633-41.535,41.535-41.535c22.902,0,41.535,18.633,41.535,41.535V232.082z"/>
							</g>
						</g>
						<g>
							<g>
								<path style="fill:#E8505B;" d="M430.038,273.645H329.711c-3.209,0-5.811-2.602-5.811-5.811v-60.2
									c0-3.209,2.602-5.811,5.811-5.811h100.326c3.209,0,5.811,2.602,5.811,5.811v60.2
									C435.848,271.044,433.247,273.645,430.038,273.645z"/>
							</g>
						</g>
						<g style="opacity:0.5;">
							<path d="M389.232,228.377c0-5.168-4.189-9.357-9.357-9.357c-5.168,0-9.357,4.189-9.357,9.357c0,4.277,2.886,7.843,6.805,8.96
								v13.99h5.105v-13.99C386.345,236.22,389.232,232.654,389.232,228.377z"/>
						</g>
					</g>
					<g>
						<g>
							<g>
								<path style="fill:#FAFAFA;" d="M329.87,266.834c-0.257,0-0.465-11.978-0.465-26.75c0-14.777,0.208-26.752,0.465-26.752
									c0.257,0,0.465,11.975,0.465,26.752C330.335,254.857,330.127,266.834,329.87,266.834z"/>
							</g>
						</g>
					</g>
					<g>
						<g>
							<g>
								<path style="fill:#FAFAFA;" d="M372.547,240.372c-0.03,0.046-0.439-0.146-1.097-0.623c-0.66-0.473-1.538-1.281-2.412-2.458
									c-1.745-2.289-3.341-6.446-2.305-10.935c1.087-4.479,4.378-7.479,6.964-8.742c1.309-0.66,2.455-0.989,3.258-1.115
									c0.802-0.13,1.253-0.119,1.26-0.064c0.039,0.176-1.775,0.346-4.202,1.756c-2.389,1.349-5.374,4.243-6.375,8.38
									c-0.96,4.145,0.411,8.07,1.941,10.347C371.115,239.267,372.66,240.232,372.547,240.372z"/>
							</g>
						</g>
					</g>
				</g>
				<g>
					<g>
						<path style="fill:#E8505B;" d="M463.959,305.658c0,0,0.268-0.375,0.809-1.088c0.136-0.179,0.288-0.378,0.456-0.599
							c0.154-0.231,0.292-0.504,0.459-0.79c0.327-0.576,0.736-1.23,1.028-2.056c0.16-0.405,0.351-0.827,0.513-1.285
							c0.13-0.47,0.266-0.964,0.409-1.483c0.166-0.513,0.254-1.07,0.342-1.652c0.075-0.583,0.234-1.18,0.253-1.819
							c0.274-2.539,0.106-5.502-0.402-8.772c-1.014-6.561-3.796-14.288-8.055-22.686c-4.252-8.416-10.107-17.468-17.301-26.904
							c-7.197-9.439-15.849-19.188-25.797-28.977c-9.957-9.777-21.231-19.6-33.867-28.908c-6.322-4.646-12.991-9.153-20.021-13.398
							c-7.023-4.255-14.428-8.221-22.237-11.66c-7.81-3.395-16.051-6.354-24.743-7.756c-4.331-0.668-8.8-0.99-13.194-0.325
							c-2.192,0.337-4.346,0.935-6.374,1.846c-1.996,0.974-3.832,2.272-5.349,3.912c-1.458,1.694-2.545,3.663-3.288,5.757
							c-0.672,2.12-1.03,4.327-1.113,6.544c-0.167,4.443,0.663,8.847,1.818,13.076c2.38,8.479,6.258,16.332,10.521,23.707
							c4.305,7.369,9.089,14.277,14.117,20.771c5.018,6.503,10.256,12.616,15.592,18.369c10.688,11.497,21.73,21.58,32.578,30.361
							c10.859,8.769,21.529,16.256,31.726,22.332c10.193,6.073,19.853,10.859,28.697,14.126c8.828,3.276,16.82,5.16,23.453,5.42
							c3.306,0.132,6.269-0.039,8.759-0.599c0.633-0.091,1.208-0.317,1.778-0.458c0.568-0.153,1.111-0.304,1.602-0.528
							c0.499-0.201,0.974-0.392,1.427-0.575c0.437-0.214,0.834-0.451,1.218-0.656c0.787-0.384,1.39-0.865,1.925-1.255
							c0.265-0.199,0.52-0.367,0.732-0.546c0.2-0.192,0.381-0.365,0.543-0.521C463.617,305.967,463.959,305.658,463.959,305.658
							s-0.315,0.333-0.952,0.966c-0.16,0.159-0.339,0.336-0.536,0.532c-0.21,0.183-0.464,0.355-0.727,0.559
							c-0.533,0.399-1.134,0.889-1.921,1.283c-0.384,0.21-0.782,0.453-1.22,0.672c-0.453,0.187-0.93,0.384-1.43,0.59
							c-0.493,0.229-1.037,0.385-1.608,0.543c-0.572,0.146-1.151,0.377-1.786,0.473c-2.502,0.58-5.479,0.768-8.801,0.651
							c-6.664-0.23-14.688-2.092-23.546-5.349c-8.875-3.248-18.563-8.02-28.785-14.082c-10.225-6.065-20.923-13.545-31.808-22.312
							c-10.874-8.778-21.943-18.864-32.658-30.37c-5.349-5.758-10.601-11.879-15.634-18.392
							c-5.042-6.505-9.841-13.427-14.164-20.818c-4.279-7.399-8.177-15.28-10.579-23.825c-1.165-4.264-2.007-8.712-1.839-13.234
							c0.085-2.257,0.449-4.513,1.14-6.691c0.763-2.153,1.885-4.187,3.393-5.937c1.568-1.697,3.465-3.037,5.517-4.037
							c2.084-0.936,4.286-1.545,6.517-1.889c4.473-0.676,8.986-0.346,13.353,0.327c8.76,1.416,17.031,4.391,24.867,7.8
							c7.833,3.453,15.255,7.433,22.289,11.701c7.042,4.258,13.719,8.779,20.048,13.437c12.649,9.335,23.927,19.183,33.885,28.987
							c9.948,9.816,18.597,19.593,25.787,29.061c7.186,9.465,13.03,18.548,17.268,26.996c4.245,8.43,7.008,16.19,7.996,22.786
							c0.495,3.287,0.647,6.266,0.356,8.818c-0.023,0.642-0.186,1.243-0.266,1.829c-0.092,0.585-0.185,1.144-0.356,1.659
							c-0.148,0.52-0.289,1.017-0.423,1.488c-0.167,0.46-0.363,0.883-0.528,1.289c-0.302,0.827-0.72,1.481-1.056,2.055
							c-0.172,0.285-0.314,0.557-0.472,0.786c-0.172,0.219-0.328,0.416-0.468,0.593
							C464.254,305.307,463.959,305.658,463.959,305.658z"/>
					</g>
				</g>
				<g>
					<g>
						<path style="fill:#E8505B;" d="M495.971,228.387c0,0-0.05-0.458-0.12-1.35c-0.017-0.224-0.037-0.474-0.059-0.75
							c-0.039-0.275-0.118-0.571-0.183-0.895c-0.139-0.648-0.269-1.408-0.601-2.218c-0.15-0.409-0.288-0.851-0.473-1.301
							c-0.216-0.437-0.444-0.897-0.682-1.379c-0.217-0.494-0.523-0.967-0.844-1.46c-0.332-0.485-0.611-1.037-1.023-1.526
							c-1.486-2.077-3.583-4.176-6.139-6.279c-5.124-4.221-12.343-8.136-21.112-11.567c-8.775-3.45-19.17-6.308-30.82-8.561
							c-11.654-2.253-24.6-3.769-38.54-4.452c-13.939-0.668-28.891-0.494-44.517,0.971c-7.81,0.742-15.787,1.817-23.859,3.329
							c-8.073,1.5-16.24,3.469-24.356,6.102c-8.089,2.665-16.208,5.943-23.627,10.683c-3.677,2.385-7.226,5.119-10.062,8.54
							c-1.411,1.711-2.621,3.59-3.528,5.621c-0.841,2.055-1.347,4.246-1.388,6.48c0.039,2.234,0.539,4.427,1.378,6.485
							c0.91,2.03,2.112,3.915,3.525,5.625c2.832,3.426,6.384,6.161,10.061,8.548c7.42,4.743,15.542,8.022,23.632,10.688
							c8.118,2.633,16.287,4.604,24.361,6.104c8.073,1.512,16.051,2.588,23.863,3.329c15.629,1.465,30.582,1.639,44.522,0.971
							c13.941-0.684,26.887-2.2,38.541-4.453c11.649-2.253,22.044-5.111,30.818-8.561c8.768-3.432,15.987-7.346,21.11-11.567
							c2.555-2.102,4.652-4.202,6.138-6.278c0.411-0.489,0.691-1.041,1.022-1.526c0.322-0.493,0.627-0.966,0.844-1.46
							c0.238-0.482,0.466-0.942,0.682-1.378c0.184-0.45,0.322-0.892,0.472-1.301c0.332-0.811,0.462-1.57,0.601-2.218
							c0.065-0.324,0.144-0.62,0.183-0.895c0.022-0.276,0.041-0.526,0.059-0.75C495.921,228.845,495.971,228.387,495.971,228.387
							s-0.014,0.458-0.067,1.354c-0.014,0.225-0.029,0.476-0.046,0.754c-0.034,0.276-0.109,0.574-0.171,0.901
							c-0.132,0.652-0.254,1.419-0.579,2.236c-0.147,0.413-0.282,0.859-0.464,1.313c-0.214,0.441-0.439,0.905-0.675,1.392
							c-0.215,0.499-0.518,0.978-0.838,1.475c-0.33,0.49-0.608,1.048-1.018,1.542c-1.481,2.099-3.578,4.22-6.134,6.344
							c-5.126,4.264-12.354,8.216-21.132,11.682c-8.785,3.484-19.192,6.372-30.855,8.652c-11.668,2.28-24.63,3.819-38.589,4.523
							c-13.959,0.688-28.932,0.53-44.588-0.924c-7.825-0.736-15.818-1.808-23.91-3.318c-8.092-1.498-16.282-3.469-24.428-6.107
							c-8.119-2.673-16.273-5.959-23.754-10.738c-3.707-2.406-7.297-5.165-10.181-8.652c-1.439-1.74-2.67-3.667-3.604-5.752
							c-0.864-2.115-1.381-4.38-1.42-6.69c0.04-2.31,0.564-4.573,1.43-6.685c0.932-2.086,2.17-4.006,3.606-5.747
							c2.888-3.482,6.475-6.24,10.183-8.644c7.48-4.775,15.632-8.06,23.749-10.732c8.144-2.638,16.332-4.607,24.423-6.105
							c8.09-1.51,16.081-2.581,23.905-3.318c15.653-1.454,30.625-1.612,44.583-0.925c13.958,0.703,26.92,2.242,38.588,4.522
							c11.663,2.279,22.07,5.167,30.856,8.651c8.779,3.465,16.007,7.417,21.134,11.682c2.557,2.124,4.654,4.245,6.136,6.344
							c0.41,0.494,0.689,1.052,1.019,1.542c0.32,0.498,0.623,0.977,0.839,1.476c0.236,0.487,0.461,0.951,0.675,1.393
							c0.182,0.455,0.316,0.901,0.464,1.313c0.325,0.818,0.448,1.584,0.58,2.237c0.061,0.327,0.136,0.625,0.171,0.901
							c0.017,0.278,0.032,0.529,0.046,0.754C495.957,227.929,495.971,228.387,495.971,228.387z"/>
					</g>
				</g>
				<g>
					<g>
						<path style="fill:#E8505B;" d="M453.557,132.201c0,0-0.393-0.241-1.141-0.732c-0.188-0.123-0.397-0.261-0.629-0.413
							c-0.241-0.137-0.523-0.257-0.819-0.404c-0.597-0.287-1.277-0.649-2.122-0.884c-0.415-0.132-0.849-0.293-1.318-0.424
							c-0.478-0.097-0.98-0.199-1.508-0.305c-0.523-0.131-1.085-0.18-1.671-0.227c-0.586-0.035-1.193-0.152-1.832-0.127
							c-2.552-0.098-5.496,0.273-8.723,1.005c-6.476,1.463-13.993,4.771-22.077,9.599c-8.103,4.822-16.731,11.286-25.648,19.113
							c-8.921,7.83-18.05,17.133-27.131,27.731c-9.068,10.607-18.091,22.531-26.507,35.778c-4.199,6.627-8.236,13.59-11.987,20.896
							c-3.761,7.299-7.208,14.96-10.1,22.988c-2.849,8.026-5.233,16.451-6.033,25.218c-0.368,4.367-0.382,8.847,0.585,13.185
							c0.487,2.163,1.232,4.271,2.28,6.232c1.109,1.924,2.531,3.666,4.271,5.067c1.79,1.338,3.829,2.286,5.969,2.884
							c2.161,0.524,4.388,0.729,6.605,0.66c4.444-0.139,8.781-1.271,12.92-2.714c8.295-2.959,15.862-7.368,22.926-12.129
							c7.055-4.803,13.617-10.051,19.749-15.514c6.142-5.454,11.879-11.1,17.252-16.82c10.733-11.454,20.032-23.165,28.045-34.592
							c8-11.437,14.735-22.598,20.094-33.189c5.356-10.587,9.466-20.553,12.115-29.602c2.66-9.032,3.989-17.136,3.791-23.771
							c-0.096-3.308-0.47-6.251-1.201-8.697c-0.135-0.625-0.399-1.183-0.579-1.743c-0.192-0.556-0.38-1.087-0.637-1.562
							c-0.235-0.484-0.459-0.945-0.672-1.384c-0.243-0.421-0.508-0.801-0.739-1.17c-0.437-0.759-0.958-1.327-1.385-1.834
							c-0.216-0.25-0.402-0.494-0.595-0.693c-0.205-0.186-0.391-0.355-0.557-0.506C453.888,132.521,453.557,132.201,453.557,132.201
							s0.353,0.292,1.029,0.883c0.169,0.149,0.359,0.315,0.568,0.498c0.197,0.197,0.387,0.438,0.607,0.687
							c0.435,0.504,0.965,1.07,1.413,1.828c0.236,0.369,0.506,0.749,0.754,1.171c0.218,0.439,0.447,0.902,0.687,1.386
							c0.262,0.476,0.455,1.008,0.652,1.566c0.185,0.561,0.455,1.123,0.595,1.749c0.751,2.456,1.143,5.413,1.255,8.735
							c0.229,6.664-1.075,14.797-3.715,23.858c-2.629,9.078-6.722,19.072-12.066,29.686c-5.346,10.618-12.072,21.806-20.068,33.27
							c-8.009,11.453-17.307,23.19-28.049,34.673c-5.376,5.733-11.12,11.394-17.271,16.864
							c-6.142,5.478-12.717,10.743-19.793,15.564c-7.087,4.779-14.68,9.21-23.04,12.195c-4.173,1.456-8.553,2.603-13.076,2.746
							c-2.257,0.071-4.534-0.136-6.754-0.676c-2.2-0.613-4.307-1.592-6.157-2.976c-1.801-1.447-3.268-3.248-4.407-5.226
							c-1.078-2.014-1.837-4.169-2.333-6.371c-0.983-4.415-0.964-8.941-0.593-13.344c0.809-8.837,3.207-17.293,6.069-25.345
							c2.905-8.053,6.365-15.73,10.138-23.043c3.763-7.319,7.813-14.291,12.024-20.926c8.441-13.262,17.489-25.192,26.584-35.802
							c9.108-10.601,18.266-19.902,27.216-27.727c8.947-7.821,17.606-14.277,25.742-19.086c8.117-4.815,15.669-8.107,22.181-9.546
							c3.245-0.72,6.207-1.077,8.773-0.962c0.642-0.022,1.253,0.1,1.843,0.139c0.59,0.052,1.154,0.106,1.68,0.241
							c0.529,0.112,1.034,0.218,1.514,0.32c0.47,0.135,0.906,0.302,1.322,0.438c0.846,0.244,1.527,0.617,2.123,0.912
							c0.296,0.152,0.577,0.275,0.817,0.417c0.23,0.157,0.438,0.299,0.624,0.426C453.186,131.931,453.557,132.201,453.557,132.201z"
							/>
					</g>
				</g>
				<g>
					<path style="fill:#E8505B;" d="M262.515,276.302c1.684,1.684,1.684,4.414,0,6.097c-1.684,1.684-4.414,1.684-6.098,0
						c-1.684-1.684-1.684-4.414,0-6.097C258.101,274.618,260.831,274.618,262.515,276.302z"/>
				</g>
				<g>
					<path style="fill:#E8505B;" d="M505.783,142.696c0,2.381-1.93,4.312-4.312,4.312s-4.312-1.93-4.312-4.312
						c0-2.381,1.93-4.311,4.312-4.311S505.783,140.314,505.783,142.696z"/>
				</g>
				<g>
					<path style="fill:#E8505B;" d="M289.743,290.479c0,0.605-0.491,1.096-1.096,1.096s-1.096-0.491-1.096-1.096
						c0-0.605,0.491-1.096,1.096-1.096S289.743,289.874,289.743,290.479z"/>
				</g>
				<g>
					<path style="fill:#E8505B;" d="M313.13,169.66c0,0.605-0.491,1.096-1.096,1.096c-0.605,0-1.096-0.491-1.096-1.096
						c0-0.605,0.491-1.096,1.096-1.096C312.64,168.564,313.13,169.055,313.13,169.66z"/>
				</g>
				<g>
					<path style="fill:#E8505B;" d="M484.124,228.387c0,0.605-0.491,1.096-1.096,1.096c-0.605,0-1.096-0.491-1.096-1.096
						c0-0.605,0.491-1.096,1.096-1.096C483.634,227.291,484.124,227.782,484.124,228.387z"/>
				</g>
				<g>
					<path style="fill:#E8505B;" d="M499.352,177.303c0,0.605-0.491,1.096-1.096,1.096c-0.605,0-1.096-0.491-1.096-1.096
						c0-0.605,0.491-1.096,1.096-1.096C498.861,176.207,499.352,176.698,499.352,177.303z"/>
				</g>
			</g>
		</g>
	</g>
</g>
<g id="Plant">
	<g>
		<g>
			<g>
				<g>
					<path style="fill:#E8505B;" d="M675.521,340.903c4.806-3.018,10.312-4.913,15.957-5.492c2.607-0.268,5.456-0.192,7.548,1.388
						c0.444,0.335,0.877,0.831,0.777,1.378c-0.073,0.402-0.413,0.695-0.738,0.943C692.572,344.073,682.751,344.698,675.521,340.903"
						/>
				</g>
			</g>
			<g>
				<g>
					<path style="fill:#E8505B;" d="M675.93,340.452c3.612-2.819,7.246-5.658,10.306-9.068s5.547-7.46,6.462-11.95
						c0.277-1.362,0.363-2.918-0.511-3.999C683.972,321.851,677.518,330.149,675.93,340.452"/>
				</g>
			</g>
			<g>
				<g>
					<path style="fill:#E8505B;" d="M675.606,340.841c0.619-4.494,0.841-9.114-0.191-13.532c-1.032-4.418-3.435-8.646-7.208-11.166
						c-1.42,3.318-0.81,7.141,0.19,10.609c1.546,5.359,3.97,10.463,7.147,15.047"/>
				</g>
			</g>
			<g>
				<g>
					<path style="fill:#E8505B;" d="M667.552,355.272c4.889,0.594,9.147,3.171,12.797,6.477c3.651,3.306,6.245,7.76,7.32,12.566
						c-4.795-0.296-8.863-3.678-11.814-7.47c-2.951-3.792-4.995-7.952-8.236-11.499"/>
				</g>
			</g>
			<g>
				<g>
					<path style="fill:#E8505B;" d="M665.803,357.58c3.938-9.7,2.511-21.387-3.644-29.855
						C659.373,337.632,660.396,348.823,665.803,357.58"/>
				</g>
			</g>
			<g>
				<g>
					<path style="fill:#E8505B;" d="M655.162,370.25c4.437-0.275,8.948,0.781,12.8,2.999c3.853,2.218,7.032,5.588,9.022,9.563
						c0.271,0.54,0.509,1.227,0.147,1.711c-0.315,0.421-0.923,0.46-1.447,0.426c-4.301-0.279-8.112-2.866-11.258-5.813
						c-3.145-2.946-5.885-6.35-9.361-8.898"/>
				</g>
			</g>
			<g>
				<g>
					<path style="fill:#E8505B;" d="M655.501,369.56c2.289-7.323,2.431-15.303,0.406-22.703c-0.8-2.922-2.143-5.999-4.845-7.369
						c-0.231-0.117-0.499-0.221-0.741-0.13c-0.229,0.086-0.363,0.322-0.468,0.543c-0.961,2.008-1.241,4.289-1.142,6.513
						c0.099,2.225,0.561,4.415,1.021,6.594c0.851,4.03,1.304,8.361,3.514,11.836c0.525,0.825,0.987,1.716,1.405,2.6
						c0.418,0.884,0.421,1.194,0.805,1.897"/>
				</g>
			</g>
			<g>
				<g>
					<path style="fill:#E8505B;" d="M627.334,373.757c2.087-7.938-0.128-17.561-5.13-24.069c-0.368-0.479-0.857-0.993-1.458-0.937
						c-0.921,0.085-1.16,1.313-1.119,2.237C619.989,359.1,622.694,367.094,627.334,373.757"/>
				</g>
			</g>
			<g>
				<g>
					<path style="fill:#E8505B;" d="M624.795,375.493c-9.644,2.51-20.708,0.07-28.729-5.843c4.754-2.409,10.357-3.097,15.552-1.909
						C616.813,368.929,621.561,371.257,624.795,375.493"/>
				</g>
			</g>
			<g>
				<g>
					<path style="fill:#E8505B;" d="M622.653,370.207c-5.401-8.806-15.756-14.554-26.074-15.077
						c1.189,4.196,4.637,7.458,8.528,9.429c3.891,1.971,8.234,2.829,12.516,3.66C619.289,368.543,621.573,368.899,622.653,370.207"
						/>
				</g>
			</g>
			<g>
				<g>
					<path style="fill:#E8505B;" d="M626.798,344.561c-1.463-5.011-2.933-10.066-3.335-15.27
						c-0.402-5.204,0.341-10.638,3.041-15.105c5.045,9.763,5.556,21.17,0.445,30.898"/>
				</g>
			</g>
			<g>
				<g>
					<path style="fill:#E8505B;" d="M609.811,335.975c-5.9-10.723-17.938-19.289-30.118-20.489
						C584.392,327.185,597.206,336.227,609.811,335.975"/>
				</g>
			</g>
			<g>
				<g>
					<path style="fill:#E8505B;" d="M613.523,338.077c-8.799,1.34-16.296,6.96-24.519,10.367c-1.759,0.729-3.656,1.309-5.543,1.062
						c-1.887-0.247-3.75-1.513-4.173-3.37c-0.351-1.541,0.35-3.177,1.456-4.307c1.106-1.129,2.567-1.835,4.026-2.442
						c8.956-3.729,18.561-3.822,27.995-1.561"/>
				</g>
			</g>
			<g>
				<g>
					<path style="fill:#E8505B;" d="M618.615,344.248c-1.992,0.57-2.673,1.602-4.25,2.945c-5.352,4.558-11.771,7.856-18.593,9.551
						c-0.71,0.176-1.642,0.247-1.994-0.395c-0.308-0.56,0.082-1.239,0.481-1.738c2.859-3.577,6.936-6.023,11.227-7.621
						c4.291-1.598,8.008-3.524,13.13-3.111"/>
				</g>
			</g>
			<g>
				<g>
					<path style="fill:#E8505B;" d="M624.361,306.974c-7.155,6.679-17.233,10.108-26.977,9.178
						c-0.443-0.042-0.927-0.113-1.228-0.441c-0.679-0.739,0.136-1.879,0.927-2.496C605.014,307.032,614.621,304.469,624.361,306.974
						"/>
				</g>
			</g>
			<g>
				<g>
					<path style="fill:#E8505B;" d="M617.549,304.481c-9.458-7.091-22.428-9.231-33.663-5.554
						c4.239,4.178,10.121,6.426,16.041,7.042C605.847,306.585,611.775,305.929,617.549,304.481"/>
				</g>
			</g>
			<g>
				<g>
					<path style="fill:#E8505B;" d="M620.256,287.352c0.779-7.916,0.273-14.166,0.823-22.119c0.044-0.635,0.18-1.4,0.775-1.629
						c0.828-0.319,1.518,0.699,1.789,1.543c2.357,7.332,1.069,15.741-3.375,22.031"/>
				</g>
			</g>
			<g>
				<g>
					<path style="fill:#E8505B;" d="M620.826,288.227c-5.366-3.318-9.391-7.652-13.114-12.746c-2.59-3.544-4.774-7.79-4.185-12.14
						c3.637-0.073,7.094,1.934,9.459,4.697c2.366,2.764,3.772,6.219,4.822,9.702C618.859,281.225,619.594,284.804,620.826,288.227"
						/>
				</g>
			</g>
			<g>
				<g>
					<path style="fill:#E8505B;" d="M607.942,284.648c-11.776-4.355-22.763-10.833-32.273-19.03
						c3.855-1.553,8.269-0.624,12.123,0.932c8.806,3.555,16,9.554,20.318,18.012"/>
				</g>
			</g>
			<g>
				<g>
					<path style="fill:#E8505B;" d="M617.203,292.558c-5.957,0.651-12.009,1.075-17.92,0.087c-5.81-0.971-11.3-3.274-16.729-5.559
						c-0.45-0.189-0.939-0.417-1.137-0.863c-0.214-0.485,0.014-1.076,0.408-1.431c0.393-0.356,0.916-0.526,1.427-0.669
						c5.902-1.651,12.272-0.878,18.079,1.08C607.138,287.162,611.899,289.488,617.203,292.558"/>
				</g>
			</g>
			<g>
				<g>
					<path style="fill:#E8505B;" d="M651.221,307.245c4.064-8.205,3.801-17.779,0.289-26.235c-2.472,3.766-2.774,8.562-2.322,13.044
						c0.452,4.482,1.816,9.095,1.905,13.599"/>
				</g>
			</g>
			<g>
				<g>
					<path style="fill:#E8505B;" d="M667.459,299.055c10.148-0.194,20.3,4.131,27.19,11.583c-5.065,0.796-10.281-0.51-14.889-2.76
						c-4.607-2.25-8.701-5.406-12.759-8.54"/>
				</g>
			</g>
			<g>
				<g>
					<path style="fill:#E8505B;" d="M678.376,295.404c4.965-0.403,9.741-1.017,14.515,0.445c4.773,1.463,9.117,4.783,11.063,9.381
						c-4.643,0.523-9.352-0.641-13.608-2.57C686.09,300.732,682.22,298.061,678.376,295.404"/>
				</g>
			</g>
			<g>
				<g>
					<path style="fill:#E8505B;" d="M662.212,295.571c4.466-2.927,9.052-5.906,14.253-7.119c5.2-1.212,11.227-0.316,14.853,3.603
						c-4.21,2.47-9.317,2.762-14.198,2.758c-4.881-0.004-10.864-0.059-15.465,1.569"/>
				</g>
			</g>
			<g>
				<g>
					<path style="fill:#E8505B;" d="M662.185,295.807c7.635-7.497,10.53-20.966,7.458-31.217
						C663.642,273.709,660.954,284.96,662.185,295.807"/>
				</g>
			</g>
			<g>
				<g>
					<path style="fill:#E8505B;" d="M641.19,274.564c-1.44-3.348-2.453-6.861-3.745-10.269s-2.898-6.761-5.339-9.467
						c-2.441-2.706-5.817-4.72-9.456-4.901c2.278,10.317,9.131,19.535,18.353,24.69"/>
				</g>
			</g>
			<g>
				<g>
					<path style="fill:#E8505B;" d="M644.99,278.99c2.383-3.28,5.136-7.732,8.368-10.18c3.232-2.448,7.439-3.93,11.383-2.99
						C660.73,272.99,653.151,278.044,644.99,278.99"/>
				</g>
			</g>
			<g>
				<g>
					<path style="fill:#E8505B;" d="M644.23,274.837c1.562-3.969,3.135-7.98,3.767-12.198c0.632-4.218,0.247-8.724-1.909-12.403
						c-4.191,7.923-5.541,16.427-2.071,24.691"/>
				</g>
			</g>
			<g>
				<g>
					<path style="fill:#E8505B;" d="M641.152,250.235c-2.374-7.854-9.566-13.637-17.33-16.29c-0.979-0.335-2.016-0.613-3.039-0.455
						s-2.025,0.857-2.239,1.869c-0.283,1.336,0.82,2.533,1.858,3.421C626.449,243.949,633.556,247.873,641.152,250.235"/>
				</g>
			</g>
			<g>
				<g>
					<path style="fill:#E8505B;" d="M641.066,243.812c-0.302-5.064-0.618-10.201-2.265-14.999c-1.647-4.798-4.822-9.299-9.44-11.399
						c-0.786,5.115,1.471,10.203,4.192,14.604c2.721,4.401,6.001,8.555,7.636,13.464"/>
				</g>
			</g>
			<g>
				<g>
					<path style="fill:#E8505B;" d="M641.19,247.298c1.962-5.724,2.165-12.994,5.592-17.981c2.396-3.486,6.233-5.86,8.297-9.552
						c1.371,3.448,0.952,7.421-0.483,10.844c-1.434,3.423-3.804,6.368-6.341,9.077C645.72,242.395,643.548,244.433,641.19,247.298"
						/>
				</g>
			</g>
			<g>
				<g>
					<g>
						<path style="fill:#E8505B;" d="M641.152,415.861c0.153,0,0.285-38.184,0.295-85.274c0.011-47.107-0.104-85.283-0.257-85.283
							s-0.285,38.175-0.295,85.283C640.885,377.677,641,415.861,641.152,415.861z"/>
					</g>
				</g>
			</g>
			<g>
				<g>
					<g>
						<path style="fill:#E8505B;" d="M607.784,301.483c-0.011,0.037,0.501,0.227,1.436,0.539c1.031,0.348,2.359,0.796,3.951,1.333
							c3.331,1.135,7.908,2.778,12.875,4.814c4.918,2.11,9.556,3.823,12.197,6.111c1.319,1.13,2.077,2.352,2.451,3.243
							c0.379,0.896,0.447,1.445,0.497,1.435c0.019-0.003,0.013-0.14-0.016-0.401c-0.044-0.257-0.11-0.642-0.28-1.113
							c-0.322-0.942-1.059-2.249-2.392-3.456c-1.328-1.21-3.175-2.298-5.292-3.288c-2.117-0.988-4.464-2.019-6.955-3.042
							c-4.982-2.042-9.594-3.632-12.963-4.674c-1.683-0.525-3.057-0.912-4.01-1.168
							C608.327,301.567,607.795,301.446,607.784,301.483z"/>
					</g>
				</g>
			</g>
			<g>
				<g>
					<g>
						<path style="fill:#E8505B;" d="M596.847,274.617c-0.013,0.014,0.126,0.162,0.402,0.43c0.325,0.305,0.73,0.686,1.225,1.151
							c1.138,1.034,2.686,2.441,4.574,4.155c3.95,3.517,9.306,8.286,15.224,13.556c5.943,5.29,11.079,10.345,14.638,14.15
							c1.782,1.901,3.186,3.475,4.143,4.574c0.447,0.51,0.813,0.928,1.106,1.264c0.256,0.286,0.398,0.431,0.413,0.419
							c0.015-0.012-0.098-0.18-0.327-0.489c-0.231-0.307-0.568-0.764-1.028-1.331c-0.909-1.144-2.271-2.761-4.021-4.701
							c-3.495-3.884-8.603-8.997-14.557-14.298c-5.964-5.278-11.39-10.019-15.334-13.437c-1.935-1.661-3.523-3.023-4.69-4.024
							c-0.523-0.434-0.951-0.788-1.294-1.073C597.023,274.723,596.859,274.603,596.847,274.617z"/>
					</g>
				</g>
			</g>
			<g>
				<g>
					<g>
						<path style="fill:#E8505B;" d="M624.688,299.288c0.156-0.069-1.086-2.936-2.323-6.561c-1.249-3.625-1.836-6.684-1.994-6.658
							c-0.144,0.015,0.207,3.164,1.472,6.835c0.622,1.833,1.308,3.445,1.848,4.589C624.232,298.637,624.621,299.318,624.688,299.288
							z"/>
					</g>
				</g>
			</g>
			<g>
				<g>
					<g>
						<path style="fill:#E8505B;" d="M641.117,322.399c0.031,0.022,0.356-0.357,0.916-1.063c0.621-0.797,1.408-1.805,2.346-3.008
							c1.971-2.547,4.695-6.063,7.748-9.911c3.056-3.849,5.862-7.3,7.895-9.798c0.959-1.187,1.762-2.181,2.397-2.967
							c0.56-0.706,0.856-1.108,0.827-1.133c-0.029-0.025-0.38,0.33-0.991,0.994c-0.612,0.663-1.477,1.638-2.533,2.856
							c-2.112,2.435-4.969,5.852-8.029,9.705c-3.057,3.853-5.736,7.411-7.628,10.02c-0.947,1.304-1.7,2.369-2.207,3.115
							C641.352,321.954,641.086,322.376,641.117,322.399z"/>
					</g>
				</g>
			</g>
			<g>
				<g>
					<g>
						<path style="fill:#E8505B;" d="M648.433,313.006c0.09,0.097,2.042-2.219,3.065-5.738c0.755-2.48,0.788-4.748,0.695-5.785
							l-0.244,0.02c0.109,0.442,0.189,0.675,0.233,0.668c0.044-0.007,0.046-0.253,0.01-0.708l-0.244,0.02
							c-0.089,1.029-0.245,3.219-0.979,5.628C649.982,310.521,648.285,312.913,648.433,313.006z"/>
					</g>
				</g>
			</g>
			<g>
				<g>
					<g>
						<path style="fill:#E8505B;" d="M657.879,301.125c0.071,0.077,0.699-0.715,2.14-1.243c1.43-0.553,3.581-0.675,5.942-0.473
							c2.363,0.173,4.473,0.595,5.983,0.966c1.51,0.374,2.434,0.668,2.462,0.591c0.025-0.065-0.854-0.491-2.357-0.967
							c-1.501-0.472-3.641-0.963-6.046-1.14c-2.387-0.206-4.652-0.022-6.129,0.661C658.375,300.183,657.829,301.111,657.879,301.125
							z"/>
					</g>
				</g>
			</g>
			<g>
				<g>
					<g>
						<path style="fill:#E8505B;" d="M660.118,298.245c0.042,0.086,1.247-0.5,3.279-1.194c2.028-0.698,4.918-1.43,8.18-1.684
							c3.264-0.243,6.232,0.042,8.342,0.424c2.114,0.378,3.393,0.774,3.422,0.683c0.012-0.036-0.297-0.166-0.869-0.37
							c-0.569-0.212-1.416-0.455-2.476-0.695c-2.117-0.486-5.137-0.84-8.46-0.592c-3.321,0.258-6.252,1.066-8.272,1.867
							c-1.011,0.398-1.812,0.766-2.342,1.062C660.387,298.036,660.101,298.211,660.118,298.245z"/>
					</g>
				</g>
			</g>
			<g>
				<g>
					<g>
						<path style="fill:#E8505B;" d="M641.19,286.068c0.148,0.038,1.218-3.681,2.391-8.305c1.173-4.625,2.004-8.404,1.856-8.442
							c-0.148-0.038-1.218,3.681-2.391,8.306C641.874,282.251,641.043,286.031,641.19,286.068z"/>
					</g>
				</g>
			</g>
			<g>
				<g>
					<g>
						<path style="fill:#E8505B;" d="M641.038,286.068c0.164,0.053,0.853-2.431,2.65-4.972c1.749-2.595,3.982-3.897,3.901-4.025
							c-0.029-0.058-0.645,0.169-1.505,0.776c-0.862,0.6-1.928,1.617-2.847,2.932C641.371,283.423,640.905,286.059,641.038,286.068z
							"/>
					</g>
				</g>
			</g>
			<g>
				<g>
					<g>
						<path style="fill:#E8505B;" d="M641.152,395.506c0.06,0.009,0.172-0.918,0.602-2.539c0.425-1.621,1.226-3.921,2.552-6.611
							c2.638-5.391,7.438-12.226,13.538-19.073c3.022-3.453,5.955-6.711,8.444-9.83c2.493-3.115,4.542-6.083,6.038-8.708
							c1.501-2.623,2.478-4.874,3.048-6.462c0.28-0.796,0.486-1.418,0.599-1.848c0.121-0.427,0.175-0.654,0.157-0.659
							c-0.049-0.016-0.327,0.874-0.956,2.43c-0.628,1.556-1.652,3.764-3.184,6.343c-1.528,2.581-3.594,5.504-6.097,8.586
							c-2.499,3.087-5.435,6.327-8.463,9.786c-6.116,6.865-10.905,13.786-13.474,19.266c-1.292,2.735-2.044,5.079-2.408,6.729
							c-0.177,0.827-0.296,1.471-0.338,1.915C641.153,395.271,641.133,395.503,641.152,395.506z"/>
					</g>
				</g>
			</g>
			<g>
				<g>
					<g>
						<path style="fill:#E8505B;" d="M611,361.449c-0.018,0.041,0.559,0.333,1.58,0.887c1.013,0.57,2.452,1.447,4.099,2.71
							c1.648,1.262,3.49,2.918,5.383,4.91c1.889,1.996,3.836,4.314,5.822,6.797c3.971,4.983,7.686,9.392,9.91,12.912
							c1.129,1.746,1.95,3.218,2.488,4.25c0.543,1.03,0.83,1.609,0.87,1.591c0.017-0.008-0.034-0.162-0.146-0.448
							c-0.118-0.284-0.277-0.711-0.531-1.238c-0.481-1.066-1.255-2.578-2.351-4.363c-2.16-3.604-5.845-8.074-9.81-13.049
							c-1.99-2.488-3.96-4.811-5.885-6.804c-1.928-1.989-3.82-3.635-5.516-4.87c-1.696-1.237-3.181-2.072-4.233-2.587
							c-0.523-0.263-0.951-0.424-1.233-0.546C611.161,361.483,611.007,361.431,611,361.449z"/>
					</g>
				</g>
			</g>
			<g>
				<g>
					<g>
						<path style="fill:#E8505B;" d="M610.409,372.497c-0.007,0.08,1.276,0.236,3.34,0.485c2.057,0.266,4.922,0.61,7.922,1.56
							c2.989,0.974,5.474,2.457,7.093,3.722c1.635,1.263,2.406,2.309,2.482,2.248c0.026-0.019-0.133-0.304-0.495-0.769
							c-0.357-0.468-0.942-1.093-1.74-1.781c-1.593-1.373-4.102-2.945-7.17-3.945c-3.073-0.973-5.977-1.255-8.052-1.423
							C611.705,372.443,610.415,372.426,610.409,372.497z"/>
					</g>
				</g>
			</g>
			<g>
				<g>
					<g>
						<path style="fill:#E8505B;" d="M630.271,379.299c0.174-0.099-1.331-2.398-2.499-5.491c-1.096-3.121-1.352-5.857-1.549-5.826
							c-0.071,0.009-0.068,0.693,0.055,1.792c0.131,1.095,0.394,2.618,0.974,4.222c0.584,1.601,1.349,2.94,1.937,3.872
							C629.786,378.799,630.209,379.337,630.271,379.299z"/>
					</g>
				</g>
			</g>
			<g>
				<g>
					<g>
						<path style="fill:#E8505B;" d="M601.234,331.787c-0.007,0.018,0.178,0.115,0.534,0.284c0.414,0.188,0.934,0.424,1.57,0.713
							c0.688,0.295,1.522,0.669,2.462,1.165c0.944,0.487,2.045,0.988,3.191,1.677c0.582,0.331,1.19,0.677,1.822,1.036
							c0.632,0.363,1.257,0.795,1.922,1.211c1.343,0.815,2.689,1.818,4.125,2.843c2.811,2.133,5.766,4.658,8.611,7.573
							c2.818,2.944,5.241,5.985,7.277,8.867c0.975,1.471,1.932,2.85,2.7,4.221c0.393,0.679,0.803,1.319,1.145,1.962
							c0.337,0.644,0.662,1.264,0.973,1.857c0.649,1.169,1.113,2.287,1.567,3.247c0.463,0.957,0.808,1.803,1.08,2.5
							c0.267,0.646,0.485,1.173,0.659,1.593c0.157,0.362,0.248,0.55,0.266,0.544c0.018-0.006-0.038-0.206-0.161-0.581
							c-0.149-0.431-0.335-0.972-0.564-1.633c-0.241-0.712-0.559-1.574-0.997-2.546c-0.429-0.976-0.871-2.111-1.501-3.299
							c-0.303-0.602-0.619-1.231-0.948-1.884c-0.334-0.653-0.737-1.302-1.124-1.991c-0.757-1.39-1.706-2.788-2.677-4.278
							c-2.028-2.92-4.459-5.995-7.299-8.962c-2.868-2.939-5.857-5.473-8.705-7.599c-1.455-1.021-2.82-2.017-4.183-2.821
							c-0.675-0.411-1.31-0.836-1.951-1.192c-0.642-0.351-1.26-0.688-1.851-1.011c-1.165-0.67-2.285-1.15-3.245-1.613
							c-0.958-0.471-1.808-0.818-2.511-1.084c-0.654-0.251-1.187-0.456-1.613-0.619
							C601.439,331.832,601.241,331.769,601.234,331.787z"/>
					</g>
				</g>
			</g>
			<g>
				<g>
					<g>
						<path style="fill:#E8505B;" d="M625.098,347.776c0.049-0.008-0.217-0.935-1.312-1.954c-1.068-1.018-3.018-1.96-5.287-2.028
							c-2.262-0.06-4.224,0.573-5.564,1.087c-1.347,0.529-2.13,0.958-2.104,1.022c0.031,0.077,0.87-0.225,2.232-0.653
							c1.357-0.415,3.274-0.962,5.418-0.904c2.136,0.066,3.981,0.889,5.05,1.773C624.624,346.998,625.01,347.829,625.098,347.776z"
							/>
					</g>
				</g>
			</g>
			<g>
				<g>
					<g>
						<path style="fill:#E8505B;" d="M628.665,351.456c0.151-0.084-1.194-2.057-1.501-4.884c-0.353-2.822,0.503-5.052,0.336-5.099
							c-0.06-0.025-0.361,0.494-0.62,1.423c-0.261,0.924-0.433,2.27-0.264,3.74c0.174,1.469,0.651,2.739,1.118,3.578
							C628.2,351.058,628.612,351.494,628.665,351.456z"/>
					</g>
				</g>
			</g>
		</g>
		<g>
			<g>
				<path style="fill:#263238;" d="M667.524,400.977c-0.823,14.592-5.22,29.433-11.984,44.437h-29.412
					c-6.45-14.855-10.544-29.673-11.271-44.437H667.524z"/>
			</g>
		</g>
		<g>
			<g>
				<g>
					<path style="fill:#FAFAFA;" d="M619.624,424.59c0,0.152,9.684,0.276,21.627,0.276c11.947,0,21.629-0.124,21.629-0.276
						s-9.682-0.276-21.629-0.276C629.308,424.314,619.624,424.437,619.624,424.59z"/>
				</g>
			</g>
		</g>
		<g>
			<g>
				<g>
					<path style="fill:#FAFAFA;" d="M620.281,429.876c0,0.153,9.078,0.276,20.275,0.276c11.2,0,20.276-0.124,20.276-0.276
						c0-0.152-9.076-0.276-20.276-0.276C629.359,429.6,620.281,429.724,620.281,429.876z"/>
				</g>
			</g>
		</g>
		<g>
			<g>
				<g>
					<path style="fill:#FAFAFA;" d="M655.066,410.558c-0.153,0-0.276,3.034-0.276,6.774c0,3.742,0.123,6.775,0.276,6.775
						c0.152,0,0.276-3.033,0.276-6.775C655.342,413.591,655.218,410.558,655.066,410.558z"/>
				</g>
			</g>
		</g>
		<g>
			<g>
				<g>
					<path style="fill:#FAFAFA;" d="M639.307,410.558c-0.152,0-0.276,3.141-0.276,7.016c0,3.876,0.124,7.016,0.276,7.016
						c0.152,0,0.276-3.141,0.276-7.016C639.583,413.699,639.459,410.558,639.307,410.558z"/>
				</g>
			</g>
		</g>
		<g>
			<g>
				<g>
					<path style="fill:#FAFAFA;" d="M624.513,410.439c-0.152,0-0.276,3.204-0.276,7.156c0,3.953,0.124,7.156,0.276,7.156
						s0.276-3.203,0.276-7.156C624.789,413.643,624.666,410.439,624.513,410.439z"/>
				</g>
			</g>
		</g>
		<g>
			<g>
				<g>
					<path style="fill:#FAFAFA;" d="M615.791,410.558c0,0.152,11.358,0.276,25.366,0.276c14.013,0,25.368-0.124,25.368-0.276
						c0-0.152-11.356-0.276-25.368-0.276C627.149,410.282,615.791,410.406,615.791,410.558z"/>
				</g>
			</g>
		</g>
	</g>
</g>
<g id="Character">
	<g>
		<g>
			<g>
				<path style="fill:#E8505B;" d="M108.628,412.803l-4.751,24.312l-9.302,18.146c-0.67,1.308-0.093,2.91,1.257,3.49l0,0
					c0.756,0.325,1.616,0.267,2.318-0.162c4.469-2.732,20.86-12.863,21.108-14.662c0.287-2.083,6.714-25.313,6.714-25.313
					L108.628,412.803z"/>
			</g>
			<g>
				<path style="fill:#263238;" d="M95.832,458.751l23.783-16.456l-0.225,1.025c-0.195,0.886-0.693,1.677-1.415,2.226
					c-1.932,1.469-7.357,5.407-19.752,13.06C97.502,459.052,96.601,459.107,95.832,458.751L95.832,458.751z"/>
			</g>
			<g>
				<g>
					<path style="fill:#EBEBEB;" d="M116.336,435.141c-0.698,0.286-1.097,1.16-0.84,1.869c0.257,0.709,1.142,1.123,1.845,0.849
						c0.703-0.274,1.214-1.308,0.879-1.984c-0.335-0.676-1.4-1.105-2.017-0.67"/>
				</g>
			</g>
			<g>
				<g>
					<path style="fill:#263238;" d="M103.681,449.392c-0.152,0.037-0.419-1.35-1.709-2.347c-1.26-1.036-2.671-0.987-2.669-1.144
						c-0.008-0.064,0.34-0.185,0.923-0.141c0.579,0.04,1.38,0.299,2.085,0.859c0.702,0.562,1.133,1.285,1.301,1.841
						C103.786,449.02,103.745,449.385,103.681,449.392z"/>
				</g>
			</g>
			<g>
				<g>
					<path style="fill:#263238;" d="M101.247,452.254c-0.138,0.079-0.742-0.878-1.915-1.51c-1.159-0.659-2.29-0.663-2.296-0.823
						c-0.043-0.139,1.234-0.397,2.56,0.347C100.928,450.997,101.387,452.217,101.247,452.254z"/>
				</g>
			</g>
			<g>
				<g>
					<path style="fill:#263238;" d="M107.8,445.942c-0.138,0.09-1.061-1.387-2.798-2.531c-1.72-1.171-3.436-1.461-3.406-1.624
						c-0.011-0.138,1.861-0.08,3.709,1.172C107.164,444.191,107.931,445.9,107.8,445.942z"/>
				</g>
			</g>
			<g>
				<g>
					<path style="fill:#263238;" d="M109.861,438.672c-0.096,0.131-1.311-0.721-3.036-1.165c-1.72-0.468-3.196-0.329-3.215-0.49
						c-0.041-0.133,1.505-0.534,3.354-0.036C108.818,437.463,109.963,438.577,109.861,438.672z"/>
				</g>
			</g>
			<g>
				<g>
					<path style="fill:#263238;" d="M111.437,431.571c-0.106,0.124-1.273-0.978-3.129-1.297c-1.849-0.36-3.33,0.255-3.385,0.102
						c-0.028-0.059,0.302-0.305,0.931-0.505c0.624-0.202,1.555-0.314,2.552-0.132c0.997,0.185,1.827,0.619,2.339,1.029
						C111.262,431.178,111.484,431.525,111.437,431.571z"/>
				</g>
			</g>
			<g>
				<g>
					<path style="fill:#263238;" d="M108.647,428.931c-0.031-0.006-0.014-0.344,0.168-0.922c0.182-0.574,0.541-1.4,1.253-2.238
						c0.36-0.392,0.759-0.911,1.504-1.081c0.371-0.087,0.858,0.085,1.075,0.468c0.216,0.374,0.219,0.791,0.143,1.176
						c-0.362,1.531-2.006,2.727-3.782,2.569c-1.776-0.19-3.13-1.525-3.527-3.002c-0.075-0.376-0.087-0.82,0.191-1.188
						c0.275-0.372,0.803-0.428,1.136-0.293c0.695,0.265,1.058,0.778,1.412,1.178c0.687,0.853,1.048,1.671,1.239,2.242
						c0.191,0.575,0.219,0.91,0.188,0.918c-0.099,0.045-0.351-1.323-1.721-2.911c-0.351-0.373-0.75-0.836-1.256-0.997
						c-0.247-0.08-0.486-0.028-0.62,0.156c-0.135,0.175-0.151,0.49-0.08,0.788c0.343,1.212,1.583,2.43,3.087,2.567
						c1.495,0.148,2.939-0.906,3.242-2.135c0.069-0.297,0.055-0.614-0.065-0.825c-0.119-0.208-0.346-0.308-0.589-0.267
						c-0.512,0.087-0.939,0.526-1.291,0.892C108.946,427.58,108.749,428.979,108.647,428.931z"/>
				</g>
			</g>
		</g>
		<g>
			<g>
				<path style="fill:#E8505B;" d="M189.659,414.694l4.049,24.439l8.776,18.406c0.633,1.327,0.01,2.911-1.357,3.452l0,0
					c-0.765,0.303-1.623,0.221-2.312-0.229c-4.389-2.859-20.481-13.457-20.677-15.263c-0.227-2.09-5.983-25.495-5.983-25.495
					L189.659,414.694z"/>
			</g>
			<g>
				<path style="fill:#263238;" d="M201.127,460.991l-23.3-17.134l0.195,1.031c0.169,0.892,0.645,1.696,1.351,2.266
					c1.889,1.523,7.198,5.617,19.368,13.623C199.45,461.243,200.348,461.324,201.127,460.991L201.127,460.991z"/>
			</g>
			<g>
				<g>
					<path style="fill:#EBEBEB;" d="M181.311,436.801c0.689,0.306,1.063,1.191,0.786,1.892c-0.278,0.702-1.174,1.09-1.869,0.796
						c-0.695-0.294-1.176-1.342-0.822-2.008c0.354-0.666,1.432-1.064,2.036-0.612"/>
				</g>
			</g>
			<g>
				<g>
					<path style="fill:#263238;" d="M193.551,451.41c0.15,0.041,0.458-1.337,1.776-2.297c1.289-0.999,2.699-0.91,2.701-1.066
						c0.01-0.064-0.334-0.195-0.919-0.167c-0.58,0.023-1.388,0.259-2.109,0.799c-0.718,0.542-1.17,1.252-1.354,1.803
						C193.457,451.035,193.487,451.401,193.551,451.41z"/>
				</g>
			</g>
			<g>
				<g>
					<path style="fill:#263238;" d="M195.902,454.341c0.136,0.083,0.767-0.856,1.958-1.455c1.178-0.626,2.309-0.597,2.319-0.756
						c0.047-0.138-1.223-0.432-2.569,0.273C196.256,453.094,195.763,454.299,195.902,454.341z"/>
				</g>
			</g>
			<g>
				<g>
					<path style="fill:#263238;" d="M189.533,447.843c0.136,0.094,1.1-1.355,2.87-2.449c1.753-1.121,3.477-1.362,3.451-1.525
						c0.015-0.137-1.857-0.133-3.741,1.064C190.219,446.111,189.403,447.797,189.533,447.843z"/>
				</g>
			</g>
			<g>
				<g>
					<path style="fill:#263238;" d="M187.681,440.517c0.093,0.134,1.331-0.683,3.069-1.077c1.733-0.418,3.204-0.236,3.228-0.397
						c0.044-0.132-1.489-0.577-3.352-0.132C188.76,439.338,187.583,440.418,187.681,440.517z"/>
				</g>
			</g>
			<g>
				<g>
					<path style="fill:#263238;" d="M186.311,433.373c0.102,0.126,1.3-0.941,3.164-1.206c1.858-0.307,3.322,0.351,3.381,0.2
						c0.03-0.059-0.293-0.314-0.916-0.532c-0.618-0.219-1.545-0.358-2.548-0.206c-1.002,0.156-1.844,0.567-2.368,0.961
						C186.497,432.986,186.265,433.326,186.311,433.373z"/>
				</g>
			</g>
			<g>
				<g>
					<path style="fill:#263238;" d="M189.175,430.815c0.031-0.005,0.024-0.343-0.141-0.927c-0.165-0.579-0.501-1.415-1.188-2.273
						c-0.348-0.402-0.732-0.932-1.472-1.124c-0.368-0.098-0.86,0.06-1.088,0.437c-0.227,0.368-0.242,0.784-0.177,1.172
						c0.318,1.54,1.927,2.783,3.707,2.677c1.781-0.139,3.173-1.434,3.612-2.899c0.086-0.374,0.11-0.817-0.157-1.193
						c-0.264-0.38-0.79-0.451-1.127-0.326c-0.702,0.245-1.08,0.747-1.446,1.137c-0.711,0.833-1.096,1.64-1.303,2.205
						c-0.208,0.569-0.245,0.904-0.215,0.912c0.097,0.047,0.389-1.312,1.804-2.861c0.362-0.363,0.773-0.814,1.285-0.96
						c0.249-0.073,0.486-0.014,0.615,0.174c0.13,0.179,0.137,0.494,0.057,0.79c-0.378,1.202-1.653,2.383-3.16,2.477
						c-1.499,0.105-2.912-0.99-3.179-2.227c-0.06-0.299-0.037-0.615,0.089-0.823c0.124-0.205,0.355-0.298,0.597-0.25
						c0.51,0.101,0.924,0.552,1.264,0.929C188.915,429.456,189.072,430.86,189.175,430.815z"/>
				</g>
			</g>
		</g>
		<g>
			<path style="fill:#263238;" d="M110.95,253.626c-2.258-3.439-11.627,183.377-10.999,184.449l24.679,0.355l13.434-99.822
				l7.305-76.326l11.779,71.718L171.6,439.106l26.971,0.388l-16.67-190.522l-34.927-20.014L110.95,253.626z"/>
		</g>
		<g>
			<g>
				<path style="fill:#E8505B;" d="M134.515,128.122c0,0-7.565,1.315-10.449,3.836c-2.884,2.521-5.815,8.317-5.815,8.317
					l-14.379,9.76l12.658,50.444l-10.61,69.711l2.119,6.011l79.315-1.326l1.512-5.47l-8.2-63.447l3.602-42.521l3.312-17.074
					l-14.364-6.436c0,0,6.579-2.041,6.88-3.176c0.301-1.135-14.822-8.899-14.822-8.899S141.412,123.808,134.515,128.122z"/>
			</g>
			<g style="opacity:0.3;">
				<g>
					<path d="M110.454,237.445c8.946,11.596,21.171,20.143,33.197,28.502c2.537,1.763,5.17,3.569,8.202,4.166
						c4.342,0.855,9.108-1.146,11.537-4.845c1.74-2.651,2.331-5.993,4.395-8.401c1.396-1.628,3.349-2.682,4.846-4.216
						c1.296-1.328,2.21-2.972,3.109-4.595c1.639-2.96,3.278-5.92,4.918-8.88c-5.978-0.025-11.501,2.919-16.894,5.497
						c-5.393,2.578-11.389,4.907-17.216,3.574c-8.067-1.845-13.207-10.054-20.959-12.951c-4.875-1.822-10.573-1.28-15.017,1.428"/>
				</g>
			</g>
			<g>
				<path style="fill:#E8505B;" d="M103.872,150.036c0,0-2.955,3.772-3.61,11.693s-5.758,49.478-4.042,55.451
					c1.716,5.972,23.927,30.9,31.325,30.286l2.762-0.998l2.644,2.049l11.822-8.861l-26.056-32.786l1.4-47.198
					C120.116,159.671,112.114,148.168,103.872,150.036z"/>
			</g>
			<g>
				<g>
					<path style="fill:#263238;" d="M124.066,131.959c0.014,0.021-0.239,0.165-0.648,0.544c-0.41,0.376-0.972,0.988-1.59,1.875
						c-0.635,0.878-1.279,2.04-2.071,3.41c-0.843,1.335-1.809,2.866-2.89,4.579l-0.168-0.206c1.437-0.56,3.194-0.569,4.875-0.018
						c1.688,0.541,3.322,1.51,4.904,2.685c3.16,2.392,6.048,5.727,8.844,9.51c5.575,7.605,11.007,17.002,16.249,27.417l0.028,0.055
						l-0.002,0.066c-0.118,4.123-0.242,8.437-0.368,12.832c-0.636,22.308-1.211,42.501-1.629,57.147
						c-0.227,7.292-0.411,13.201-0.539,17.317c-0.074,2.023-0.132,3.604-0.173,4.707c-0.025,0.518-0.044,0.924-0.058,1.224
						c-0.016,0.276-0.029,0.417-0.038,0.416c-0.009,0-0.014-0.142-0.016-0.418c0.002-0.3,0.004-0.706,0.006-1.225
						c0.018-1.104,0.043-2.686,0.075-4.71c0.089-4.117,0.216-10.027,0.373-17.32c0.353-14.626,0.804-34.827,1.476-57.152
						c0.129-4.397,0.255-8.712,0.375-12.836l0.026,0.121c-5.215-10.39-10.62-19.793-16.136-27.385
						c-2.768-3.78-5.615-7.098-8.713-9.475c-1.554-1.171-3.152-2.131-4.784-2.669c-1.627-0.547-3.297-0.548-4.676-0.03l-0.398,0.15
						l0.23-0.356c1.1-1.699,2.084-3.217,2.941-4.542c0.802-1.343,1.478-2.515,2.134-3.383c0.642-0.88,1.229-1.484,1.66-1.845
						C123.798,132.081,124.066,131.959,124.066,131.959z"/>
				</g>
			</g>
			<g>
				<g>
					<path style="fill:#263238;" d="M177.366,137.985c0.025,0.083-1.519,0.536-3.92,1.497c-2.391,0.965-5.656,2.482-8.777,4.88
						c-3.127,2.392-5.556,5.042-7.315,6.94c-0.817,0.891-1.51,1.648-2.076,2.265c-0.495,0.531-0.781,0.815-0.809,0.791
						c-0.027-0.023,0.207-0.351,0.655-0.923c0.449-0.572,1.11-1.388,1.954-2.378c1.693-1.965,4.098-4.678,7.274-7.11
						c3.176-2.44,6.519-3.927,8.961-4.81c1.225-0.445,2.238-0.741,2.941-0.926C176.96,138.027,177.357,137.953,177.366,137.985z"/>
				</g>
			</g>
			<g>
				<g>
					<path style="fill:#263238;" d="M151.518,181.956c-0.036-0.004,0.001-0.531,0.098-1.484c0.111-0.95,0.313-2.321,0.631-4.001
						c0.623-3.363,1.736-7.957,3.204-12.962c1.496-4.998,3.072-9.459,4.446-12.594c0.678-1.571,1.297-2.813,1.756-3.652
						c0.478-0.831,0.757-1.28,0.788-1.262c0.031,0.018-0.187,0.5-0.607,1.354c-0.401,0.863-0.965,2.12-1.596,3.702
						c-1.28,3.156-2.795,7.618-4.286,12.601c-1.464,4.99-2.63,9.555-3.343,12.887c-0.363,1.665-0.619,3.019-0.792,3.957
						C151.658,181.441,151.553,181.96,151.518,181.956z"/>
				</g>
			</g>
			<g>
				<g>
					<path style="fill:#263238;" d="M153.982,154.061c-0.13-0.062,1.685-4.095,4.052-9.007c2.368-4.913,4.392-8.844,4.521-8.781
						c0.13,0.062-1.684,4.095-4.052,9.007C156.136,150.192,154.112,154.123,153.982,154.061z"/>
				</g>
			</g>
			<g>
				<g>
					<path style="fill:#FFFFFF;" d="M156.45,172.773l0.232-0.496c0.239,0.18,0.597,0.308,0.941,0.313
						c0.393,0.006,0.554-0.123,0.557-0.299c0.008-0.536-1.663-0.192-1.648-1.256c0.007-0.487,0.406-0.887,1.22-0.875
						c0.36,0.005,0.727,0.096,0.991,0.268l-0.212,0.501c-0.264-0.155-0.537-0.233-0.791-0.236c-0.393-0.006-0.547,0.139-0.549,0.32
						c-0.008,0.528,1.664,0.188,1.648,1.24c-0.007,0.479-0.41,0.882-1.229,0.871C157.158,173.115,156.701,172.973,156.45,172.773z"
						/>
				</g>
				<g>
					<path style="fill:#FFFFFF;" d="M161.51,172.596l-0.008,0.532l-2.218-0.032l0.041-2.865l2.165,0.031l-0.008,0.532l-1.506-0.022
						l-0.009,0.622l1.33,0.019l-0.007,0.516l-1.33-0.019l-0.009,0.663L161.51,172.596z"/>
				</g>
				<g>
					<path style="fill:#FFFFFF;" d="M161.864,171.701c0.012-0.864,0.684-1.472,1.577-1.459c0.495,0.007,0.906,0.193,1.171,0.524
						l-0.431,0.387c-0.189-0.224-0.429-0.342-0.716-0.346c-0.536-0.008-0.922,0.363-0.93,0.904c-0.008,0.54,0.367,0.922,0.904,0.93
						c0.287,0.004,0.53-0.107,0.725-0.329l0.42,0.399c-0.275,0.328-0.691,0.502-1.19,0.495
						C162.506,173.192,161.852,172.565,161.864,171.701z"/>
				</g>
				<g>
					<path style="fill:#FFFFFF;" d="M167.156,172.352c-0.045-0.141-0.083-0.281-0.118-0.419c-0.038-0.094-0.066-0.19-0.098-0.285
						l-0.004,0.274c-0.008,0.544-0.244,0.766-0.65,0.76c-0.401-0.006-0.635-0.234-0.627-0.779l0.023-1.58l-0.663-0.009l-0.023,1.604
						c-0.012,0.843,0.464,1.317,1.279,1.328c0.478,0.007,0.838-0.154,1.062-0.454C167.265,172.653,167.205,172.505,167.156,172.352z
						"/>
				</g>
			</g>
			<g>
				<g>
					<path style="fill:#FFFFFF;" d="M167.306,171.042l-0.014,0.975c0.009,0.035,0.019,0.069,0.029,0.104
						c0.027,0.077,0.061,0.148,0.08,0.231c0.028,0.12,0.056,0.24,0.085,0.36c0.079,0.335,0.093,0.648,0.059,0.937
						c0.246-0.219,0.386-0.552,0.393-0.993l0.023-1.604L167.306,171.042z"/>
				</g>
				<g>
					<path style="fill:#FFFFFF;" d="M170.402,173.952l-0.541-0.806l-0.033,0l-0.577-0.008l-0.012,0.798l-0.663-0.01l0.041-2.865
						l1.24,0.018c0.765,0.011,1.238,0.415,1.229,1.058c-0.006,0.43-0.228,0.742-0.602,0.896l0.629,0.93L170.402,173.952z
						 M169.813,171.618l-0.54-0.008l-0.014,0.999l0.54,0.008c0.405,0.006,0.613-0.179,0.617-0.49
						C170.42,171.811,170.218,171.624,169.813,171.618z"/>
				</g>
				<g>
					<path style="fill:#FFFFFF;" d="M171.628,171.104l0.663,0.01l-0.041,2.865l-0.663-0.01L171.628,171.104z"/>
				</g>
				<g>
					<path style="fill:#FFFFFF;" d="M173.557,171.672l-0.917-0.013l0.008-0.54l2.496,0.036l-0.008,0.54l-0.917-0.013l-0.033,2.325
						l-0.663-0.01L173.557,171.672z"/>
				</g>
				<g>
					<path style="fill:#FFFFFF;" d="M176.797,173.029l-0.015,1.015l-0.663-0.01l0.015-1.023l-1.083-1.858l0.704,0.01l0.747,1.284
						l0.784-1.262l0.651,0.009L176.797,173.029z"/>
				</g>
			</g>
			<g>
				<g>
					<path style="fill:#263238;" d="M169.639,180.502c-0.033,0.013-0.172-0.254-0.395-0.751c-0.227-0.495-0.514-1.23-0.831-2.151
						c-0.637-1.841-1.327-4.46-1.706-7.416c-0.373-2.958-0.358-5.667-0.202-7.608c0.077-0.971,0.171-1.754,0.267-2.291
						c0.092-0.537,0.159-0.831,0.195-0.826c0.082,0.01-0.035,1.205-0.094,3.136c-0.061,1.93-0.017,4.602,0.351,7.523
						c0.374,2.92,0.999,5.517,1.54,7.371C169.303,179.344,169.716,180.472,169.639,180.502z"/>
				</g>
			</g>
			<g style="opacity:0.3;">
				<g>
					<path d="M153.473,172.542c-0.426,3.56-1.567,5.319-1.619,8.903c-0.011,0.768-1.23,12.89-0.514,13.17
						c0.842,0.329,4.051-8.502,4.751-12.903c0.549-3.449,1.522-7.987,2.099-11.432c1.683-10.049,5.412-15.46,10.639-24.207
						c0.99-1.656,4.685-6.165,4.685-6.165c-0.356-0.225-1.822,0.469-2.848,0.931c-2.948,1.326-8.226,5.544-8.226,5.544
						s-3.172,6.06-4.243,9.11c-2.052,5.849-3.64,11.751-4.804,17.629"/>
				</g>
			</g>
			<g style="opacity:0.3;">
				<g>
					<path d="M120.45,142.028c0,0-3.223,1.761-3.202,3.179c0.02,1.418,1.106,2.625,2.347,3.312c1.241,0.686,2.653,0.985,3.982,1.48
						c3.129,1.167,5.735,3.406,8.091,5.773c3.863,3.88,7.255,8.229,10.079,12.92c2.348,3.902,4.5,8.247,8.432,10.546
						c-2.661-4.759-5.421-9.364-8.082-14.123c-2.656-4.75-5.724-9.256-9.184-13.456C129.452,147.457,123.812,142.366,120.45,142.028
						"/>
				</g>
			</g>
			<g>
				<g>
					<path style="fill:#263238;" d="M108.973,212.274c-0.013,0.001-0.027-0.088-0.043-0.261c-0.019-0.173-0.02-0.432,0.008-0.768
						c0.061-0.665,0.272-1.666,0.956-2.732c0.666-1.048,1.868-2.183,3.595-2.607c1.688-0.425,3.849-0.145,5.538,1.232l-0.388,0.191
						c-0.151-3.044,0.04-6.496,0.595-10.065c0.508-3.29,1.109-6.39,1.453-9.238c0.356-2.845,0.542-5.424,0.589-7.594
						c0.065-2.169,0.056-3.928,0.029-5.143c-0.004-0.558-0.007-1.02-0.009-1.4c0.004-0.321,0.014-0.49,0.032-0.491
						c0.018-0.001,0.042,0.166,0.073,0.485c0.029,0.38,0.064,0.841,0.107,1.398c0.09,1.215,0.155,2.978,0.137,5.158
						c-0.001,2.18-0.149,4.779-0.481,7.644c-0.32,2.869-0.91,5.986-1.414,9.257c-0.551,3.548-0.756,6.948-0.638,9.967l0.021,0.532
						l-0.409-0.341c-1.536-1.28-3.556-1.582-5.144-1.211c-1.618,0.365-2.776,1.399-3.45,2.382c-0.688,0.997-0.937,1.951-1.043,2.593
						C108.988,211.913,109.009,212.273,108.973,212.274z"/>
				</g>
			</g>
			<g>
				<g>
					<path style="fill:#263238;" d="M111.487,236.637c0.009-0.009,0.118,0.086,0.319,0.278c0.227,0.222,0.517,0.504,0.876,0.854
						c0.779,0.733,1.921,1.808,3.462,3.06c1.545,1.244,3.469,2.7,5.824,4.113c1.178,0.695,2.456,1.423,3.875,1.949
						c0.701,0.262,1.46,0.405,2.228,0.333c0.75-0.061,1.546-0.37,2.058-0.905l0.155-0.162l0.166,0.128
						c0.833,0.641,1.731,1.333,2.65,2.041l-0.293-0.002c3.64-2.735,7.632-5.735,11.811-8.876l-0.046,0.373
						c-0.066-0.083-0.138-0.172-0.21-0.262c-3.565-4.437-6.74-8.817-9.695-12.751c-2.942-3.943-5.612-7.476-7.923-10.389
						c-2.306-2.916-4.261-5.203-5.664-6.735c-0.692-0.776-1.258-1.35-1.64-1.742c-0.38-0.395-0.573-0.608-0.561-0.622
						c0.012-0.013,0.23,0.175,0.634,0.546c0.407,0.368,0.998,0.922,1.715,1.678c1.453,1.494,3.457,3.751,5.804,6.643
						c2.351,2.889,5.056,6.403,8.019,10.331c2.976,3.918,6.166,8.292,9.716,12.711c0.072,0.089,0.143,0.179,0.209,0.261l0.17,0.212
						l-0.215,0.161c-4.187,3.13-8.186,6.12-11.832,8.846l-0.148,0.111l-0.145-0.113c-0.915-0.713-1.809-1.41-2.638-2.056
						l0.321-0.035c-0.666,0.687-1.53,0.977-2.376,1.053c-0.845,0.075-1.678-0.094-2.413-0.376c-1.47-0.56-2.744-1.306-3.929-2.023
						c-2.36-1.454-4.272-2.947-5.8-4.229c-1.524-1.29-2.64-2.401-3.389-3.169c-0.339-0.372-0.612-0.671-0.827-0.906
						C111.568,236.758,111.478,236.646,111.487,236.637z"/>
				</g>
			</g>
			<g>
				<g>
					<path style="fill:#263238;" d="M120.99,163.114c-0.093,0.032-0.474-1.157-1.437-2.898c-0.474-0.874-1.133-1.86-1.942-2.891
						c-0.83-1.015-1.823-2.064-2.98-3.041c-1.169-0.962-2.381-1.749-3.529-2.383c-1.16-0.61-2.249-1.08-3.194-1.389
						c-1.886-0.634-3.124-0.794-3.109-0.891c0.005-0.036,0.315-0.018,0.877,0.047c0.563,0.052,1.369,0.216,2.343,0.493
						c0.978,0.269,2.107,0.714,3.307,1.315c1.188,0.625,2.44,1.421,3.639,2.407c1.186,1.001,2.195,2.089,3.024,3.144
						c0.808,1.073,1.449,2.103,1.89,3.016c0.449,0.908,0.755,1.671,0.908,2.215C120.951,162.801,121.024,163.103,120.99,163.114z"/>
				</g>
			</g>
			<g style="opacity:0.3;">
				<g>
					<path d="M168.717,177.946c0.33,0.712,1.506,0.27,1.644-0.284c0.138-0.554-0.149-1.115-0.412-1.621
						c-1.863-3.582-2.988-7.545-3.285-11.572C166.348,169.356,166.865,173.414,168.717,177.946"/>
				</g>
			</g>
			<g style="opacity:0.3;">
				<g>
					<path d="M108.545,211.222c-0.883-2.793,0.448-6.119,3.014-7.532c0.654-0.36,1.394-0.608,2.139-0.553
						c1.621,0.118,2.782,1.559,3.733,2.876c-1.795-0.538-3.813-0.283-5.418,0.686c-1.605,0.968-2.772,2.635-3.133,4.474"/>
				</g>
			</g>
			<g>
				<g>
					<path style="fill:none;stroke:#4E585D;stroke-width:0.05;stroke-miterlimit:10;" d="M180.822,208.494"/>
				</g>
			</g>
			<g>
				<g>
					<path style="fill:#263238;" d="M186.675,150.747c0.069,0.046-0.522,0.988-1.356,2.568c-0.836,1.578-1.876,3.82-2.722,6.407
						c-0.839,2.59-1.318,5.015-1.57,6.783c-0.255,1.768-0.331,2.877-0.414,2.874c-0.06-0.001-0.115-1.119,0.049-2.918
						c0.161-1.797,0.588-4.272,1.44-6.901c0.857-2.626,1.968-4.878,2.896-6.426C185.924,151.584,186.625,150.712,186.675,150.747z"
						/>
				</g>
			</g>
			<g style="opacity:0.3;">
				<g>
					<path d="M180.065,176.14c-0.538,0.554-0.684,5.213-0.684,5.213c0.009,5.625,0.359,8.094,0.368,13.719
						c0.004,2.323,0.003,4.68-0.617,6.918c-0.329,1.188-0.826,2.32-1.322,3.448c-0.627,1.428-1.262,2.868-2.177,4.13
						c-0.766,1.056-1.712,1.966-2.637,2.886c-4.441,4.42-8.494,9.23-12.098,14.355l-2.199,3.223l21.818-20.469l1.075-2.708
						l0.054-0.317L180.065,176.14z"/>
				</g>
			</g>
			<g>
				<g>
					<path style="fill:#E8505B;" d="M187.58,146.363c0,0,3.436,1.292,5.229,8.959c2.07,8.854,4.782,23.582,5.198,29.153
						c0.35,4.691,4.957,21.835,1.395,29.381c-3.562,7.547-20.786,30.855-27.584,31.602l-2.835-0.719l-2.979,0.51l-8.357-9.616
						l0.73-2.752c0,0-0.945-1.533,0.042-2.9c0.987-1.367,22.298-21.391,22.298-21.391s-0.813-0.104-0.987-1.485
						c-0.301-2.378,1.77-2.292,1.77-2.292l-1.375-20.95L187.58,146.363z"/>
				</g>
				<g>
					<g>
						<path style="fill:#263238;" d="M188.873,211.078c-0.092,0.129-1.663-0.997-3.894-1.7c-2.224-0.727-4.157-0.725-4.157-0.884
							c-0.023-0.128,1.987-0.37,4.316,0.388C187.472,209.62,188.966,210.987,188.873,211.078z"/>
					</g>
				</g>
				<g>
					<g>
						<path style="fill:#263238;" d="M193.178,207.941c-0.098,0.139-2.182-1.883-5.522-2.748c-3.327-0.92-6.141-0.21-6.157-0.379
							c-0.016-0.057,0.655-0.316,1.804-0.461c1.144-0.148,2.772-0.12,4.488,0.337c1.714,0.462,3.138,1.251,4.055,1.951
							C192.768,207.339,193.22,207.9,193.178,207.941z"/>
					</g>
				</g>
				<g>
					<g>
						<path style="fill:#263238;" d="M180.822,208.494c-0.02,0.05-0.355,0.021-0.793-0.308c-0.215-0.166-0.436-0.438-0.556-0.798
							c-0.12-0.36-0.115-0.784-0.013-1.186c0.072-0.269,0.17-0.502,0.306-0.73l-0.024,0.051c0.311-0.721,0.968-0.856,1.329-0.89
							c0.394-0.025,0.611,0.09,0.599,0.143c-0.01,0.064-0.224,0.068-0.542,0.171c-0.301,0.094-0.778,0.324-0.91,0.736l-0.005,0.015
							l-0.019,0.036c-0.087,0.165-0.176,0.385-0.232,0.6c-0.189,0.672,0.01,1.252,0.318,1.585
							C180.585,208.257,180.861,208.417,180.822,208.494z"/>
					</g>
				</g>
				<g>
					<g>
						<path style="fill:#263238;" d="M179.854,175.117c0.036-0.003,0.1,0.411,0.187,1.161c0.088,0.75,0.188,1.838,0.294,3.183
							c0.214,2.69,0.422,6.412,0.602,10.523c0.173,4.051,0.329,7.714,0.449,10.526c0.051,1.261,0.094,2.327,0.128,3.19
							c0.024,0.754,0.02,1.172-0.016,1.175c-0.036,0.003-0.1-0.41-0.187-1.161c-0.088-0.75-0.188-1.837-0.294-3.183
							c-0.214-2.69-0.422-6.413-0.602-10.525c-0.173-4.05-0.329-7.712-0.449-10.524c-0.051-1.261-0.094-2.327-0.128-3.191
							C179.815,175.538,179.819,175.119,179.854,175.117z"/>
					</g>
				</g>
				<g>
					<g>
						<path style="fill:#263238;" d="M181.167,208.35c0.011,0.012-0.171,0.19-0.528,0.518c-0.392,0.354-0.918,0.829-1.579,1.426
							c-1.408,1.277-3.391,3.075-5.847,5.303c-2.465,2.271-5.393,5.017-8.616,8.158c-1.61,1.57-3.301,3.24-5.033,4.993
							c-0.418,0.439-0.821,0.9-1.07,1.429c-0.264,0.528-0.301,1.103-0.182,1.711c0.099,0.611,0.33,1.236,0.31,1.965
							c-0.02,0.675-0.279,1.528-1.071,1.857l0.099-0.409c1.384,1.582,2.836,3.241,4.313,4.93c1.44,1.649,2.856,3.27,4.234,4.848
							l-0.237-0.084c1.008-0.171,2.001-0.34,2.98-0.507l0.037-0.006l0.032,0.004c1.306,0.16,2.39,0.763,3.521,0.568
							c1.125-0.137,2.144-0.725,3.041-1.395c1.782-1.389,3.332-2.971,4.774-4.453c2.863-3.007,5.21-5.865,7.139-8.263
							c1.926-2.401,3.43-4.352,4.471-5.687c0.502-0.639,0.9-1.146,1.2-1.528c0.277-0.345,0.427-0.521,0.44-0.512
							c0.013,0.009-0.113,0.203-0.367,0.566c-0.283,0.395-0.659,0.92-1.131,1.58c-0.997,1.369-2.46,3.351-4.355,5.784
							c-1.897,2.429-4.219,5.319-7.076,8.364c-1.447,1.507-2.973,3.09-4.805,4.534c-0.925,0.696-2.005,1.341-3.27,1.502
							c-1.295,0.211-2.496-0.438-3.632-0.556l0.068-0.002c-0.978,0.169-1.971,0.34-2.979,0.513l-0.142,0.025l-0.095-0.109
							c-1.38-1.577-2.797-3.197-4.238-4.844c-1.476-1.69-2.926-3.35-4.309-4.933l-0.243-0.278l0.342-0.131
							c0.494-0.189,0.734-0.808,0.75-1.397c0.025-0.586-0.188-1.209-0.298-1.86c-0.133-0.647-0.086-1.407,0.229-2.013
							c0.294-0.615,0.734-1.104,1.166-1.556c1.751-1.759,3.446-3.415,5.071-4.978c3.248-3.124,6.205-5.844,8.703-8.083
							c2.5-2.238,4.538-3.995,5.955-5.19c0.686-0.569,1.231-1.021,1.638-1.359C180.954,208.491,181.156,208.338,181.167,208.35z"/>
					</g>
				</g>
			</g>
			<g>
				<g>
					<path style="fill:#263238;" d="M180.661,196.344c-0.002,0.144-13.633,0.064-30.441-0.177
						c-16.814-0.242-30.439-0.554-30.437-0.698c0.002-0.144,13.63-0.064,30.444,0.178
						C167.036,195.887,180.663,196.2,180.661,196.344z"/>
				</g>
			</g>
			<g>
				<g>
					<path style="fill:#263238;" d="M165.016,204.592c0.018,0.003,0.009,0.136-0.024,0.386c-0.039,0.249-0.075,0.622-0.184,1.09
						c-0.185,0.942-0.552,2.291-1.199,3.888c-1.263,3.179-3.917,7.368-8.226,10.472c-4.312,3.101-9.128,4.288-12.544,4.477
						c-1.72,0.107-3.115,0.026-4.068-0.098c-0.478-0.046-0.843-0.13-1.092-0.172c-0.248-0.049-0.376-0.082-0.374-0.1
						c0.009-0.114,2.114,0.305,5.504,0.003c3.359-0.28,8.053-1.501,12.269-4.533c4.211-3.034,6.859-7.097,8.191-10.194
						C164.634,206.694,164.905,204.564,165.016,204.592z"/>
				</g>
			</g>
			<g>
				<g>
					<path style="fill:#263238;" d="M135.836,246.383c-0.089,0.109-0.658-0.211-1.172-0.81c-0.516-0.598-0.748-1.207-0.626-1.279
						c0.125-0.076,0.536,0.38,1.021,0.94C135.541,245.796,135.93,246.27,135.836,246.383z"/>
				</g>
			</g>
			<g>
				<g>
					<path style="fill:#263238;" d="M139.654,243.405c-0.116,0.086-0.546-0.299-0.961-0.859c-0.415-0.56-0.658-1.083-0.542-1.169
						c0.115-0.086,0.546,0.299,0.961,0.859C139.526,242.796,139.769,243.319,139.654,243.405z"/>
				</g>
			</g>
			<g>
				<g>
					<path style="fill:#263238;" d="M161.773,235.386c0.066,0.13-0.506,0.549-1.22,1.028c-0.716,0.477-1.321,0.846-1.417,0.735
						c-0.093-0.107,0.381-0.671,1.127-1.168C161.008,235.482,161.71,235.259,161.773,235.386z"/>
				</g>
			</g>
			<g>
				<g>
					<path style="fill:#263238;" d="M164.61,238.175c0.119,0.073-0.227,0.834-0.951,1.544c-0.721,0.714-1.487,1.048-1.558,0.927
						c-0.078-0.125,0.519-0.631,1.193-1.298C163.971,238.684,164.486,238.094,164.61,238.175z"/>
				</g>
			</g>
			<g>
				<g>
					<path style="fill:#263238;" d="M167.328,241.501c0.104,0.096-0.337,0.734-1.076,1.319c-0.737,0.588-1.458,0.872-1.528,0.75
						c-0.074-0.126,0.5-0.596,1.204-1.158C166.635,241.854,167.222,241.401,167.328,241.501z"/>
				</g>
			</g>
			<g>
				<g>
					<path style="fill:#263238;" d="M128.532,135.073c0.148-0.058,1.342,2.947,3.382,6.349c2.023,3.413,4.098,5.892,3.977,5.994
						c-0.051,0.044-0.636-0.521-1.476-1.531c-0.84-1.008-1.919-2.474-2.948-4.197c-1.026-1.724-1.803-3.37-2.29-4.589
						C128.689,135.88,128.47,135.097,128.532,135.073z"/>
				</g>
			</g>
			<g>
				<g>
					<path style="fill:#263238;" d="M188.867,269.405c0,0.018-0.291,0.033-0.845,0.045c-0.601,0.007-1.408,0.016-2.423,0.027
						c-2.155,0.02-5.185,0.048-8.908,0.082c-7.521,0.091-17.909,0.373-29.383,0.723c-11.478,0.35-21.874,0.574-29.4,0.571
						c-3.763,0.001-6.808-0.026-8.912-0.083c-1.015-0.03-1.822-0.053-2.422-0.071c-0.554-0.022-0.844-0.042-0.844-0.06
						c0-0.018,0.291-0.033,0.845-0.045c0.601-0.007,1.408-0.016,2.422-0.027c2.155-0.02,5.185-0.048,8.908-0.083
						c7.521-0.091,17.91-0.373,29.388-0.723c11.474-0.35,21.869-0.574,29.395-0.571c3.763-0.001,6.808,0.026,8.912,0.083
						c1.015,0.03,1.822,0.053,2.422,0.071C188.576,269.367,188.867,269.387,188.867,269.405z"/>
				</g>
			</g>
		</g>
		<g>
			<g>
				<path style="fill:#E8505B;" d="M168.148,136.712c-0.119,0.103-1.342-1.295-3.26-2.471c-1.906-1.197-3.701-1.672-3.661-1.825
					c0.012-0.13,1.94,0.132,3.936,1.383C167.169,135.033,168.259,136.644,168.148,136.712z"/>
			</g>
		</g>
		<g>
			<g>
				<path style="fill:#B78876;" d="M161.67,247.214c0.375,0.724,1.287,1.002,2.102,0.971c0.815-0.031,1.606-0.294,2.42-0.339
					c0.814-0.045,1.729,0.197,2.142,0.9c0.327,0.557,0.251,1.288-0.068,1.85c-0.319,0.562-0.846,0.978-1.404,1.305
					c-2.665,1.565-6.319,1.213-8.638-0.831"/>
			</g>
			<g>
				<g>
					<path style="fill:#B78876;" d="M143.341,259.635c2.352,2.348,4.949,4.451,7.733,6.265c0.615,0.401,1.314,0.804,2.039,0.685
						c0.725-0.119,1.302-1.062,0.816-1.613c0.744,0.597,1.891,0.624,2.663,0.063c0.732-0.531,1.066-1.547,0.811-2.412
						c-0.017-0.058,0.033-0.105,0.089-0.084c0.714,0.272,1.554,0.251,2.199-0.155c0.686-0.432,1.08-1.333,0.82-2.102
						c0.741,1.005,2.52,0.607,3.091-0.503c0.571-1.11,0.173-2.507-0.583-3.5c-0.756-0.993-1.817-1.7-2.77-2.505
						c-0.954-0.805-1.852-1.796-2.079-3.023"/>
				</g>
				<g>
					<g>
						<path style="fill:#AA6550;" d="M154.244,265.385c-0.054,0.123-1.399-0.435-2.637-1.694c-1.248-1.251-1.792-2.6-1.669-2.653
							c0.135-0.073,0.855,1.103,2.039,2.287C153.149,264.52,154.318,265.251,154.244,265.385z"/>
					</g>
				</g>
				<g>
					<g>
						<path style="fill:#AA6550;" d="M157.981,263.069c-0.074,0.117-1.232-0.509-2.372-1.645c-1.146-1.131-1.782-2.283-1.667-2.357
							c0.123-0.085,0.927,0.898,2.033,1.987C157.074,262.15,158.065,262.945,157.981,263.069z"/>
					</g>
				</g>
				<g>
					<g>
						<path style="fill:#AA6550;" d="M161.244,260.764c-0.072,0.118-1.182-0.457-2.275-1.524c-1.098-1.062-1.703-2.156-1.588-2.231
							c0.122-0.086,0.894,0.837,1.951,1.858C160.382,259.893,161.326,260.639,161.244,260.764z"/>
					</g>
				</g>
			</g>
			<g>
				<g>
					<path style="fill:#B78876;" d="M136.78,237.037c0,0-0.298-1.275,2.985-0.863c3.283,0.413,4.751,0.73,8.44,0.54
						c3.689-0.191,9.673-1.242,9.673-1.242l9.628,8.473c0,0-9.848,8.652-12.794,10.193c-2.946,1.541-8.945,5.385-12.359,5.201
						c-2.595-0.14-2.828-1.431-2.828-1.431s-2.533-1.742-2.156-2.589c0,0-3.008-0.165-2.444-2.472c0,0-2.144-0.396-2.492-1.62
						c-0.348-1.223,1.271-2.662,1.894-3.279c1.001-0.992,9.764-7.423,9.802-7.604C144.13,240.345,136.642,239.602,136.78,237.037z"
						/>
				</g>
				<g>
					<g>
						<path style="fill:#AA6550;" d="M142.993,246.39c0.088,0.114-1.676,1.621-3.938,3.365c-2.263,1.745-4.169,3.066-4.257,2.952
							c-0.088-0.114,1.675-1.62,3.939-3.365C140.999,247.598,142.905,246.276,142.993,246.39z"/>
					</g>
				</g>
				<g>
					<g>
						<path style="fill:#AA6550;" d="M147.63,247.288c0.051,0.042-0.361,0.663-1.151,1.57c-0.788,0.907-1.972,2.084-3.42,3.218
							c-1.45,1.131-2.879,1.996-3.95,2.541c-1.072,0.547-1.774,0.797-1.802,0.737c-0.072-0.144,2.585-1.449,5.431-3.689
							C145.598,249.446,147.508,247.183,147.63,247.288z"/>
					</g>
				</g>
				<g>
					<g>
						<path style="fill:#AA6550;" d="M151.772,250.255c0.049,0.036-0.393,0.755-1.305,1.765c-0.908,1.009-2.326,2.275-4.109,3.351
							c-1.787,1.072-3.569,1.731-4.886,2.061c-1.319,0.333-2.161,0.386-2.17,0.326c-0.045-0.166,3.298-0.706,6.788-2.834
							C149.603,252.839,151.647,250.138,151.772,250.255z"/>
					</g>
				</g>
				<g>
					<g>
						<path style="fill:#AA6550;" d="M163.526,247.501c0.024,0.027-0.235,0.293-0.724,0.752c-0.492,0.454-1.22,1.095-2.152,1.848
							c-1.858,1.511-4.543,3.467-7.703,5.315c-1.579,0.925-3.122,1.74-4.549,2.429c-1.42,0.701-2.773,1.241-3.969,1.479
							c-1.195,0.253-2.21,0.179-2.867,0.003c-0.661-0.178-0.977-0.393-0.966-0.413c0.011-0.106,1.437,0.659,3.753,0.051
							c1.142-0.275,2.439-0.83,3.837-1.55c1.406-0.708,2.93-1.53,4.498-2.448c3.136-1.834,5.834-3.727,7.74-5.156
							C162.335,248.384,163.473,247.439,163.526,247.501z"/>
					</g>
				</g>
			</g>
		</g>
		<g>
			<g>
				<g>
					<g>
						<g>
							<g>
								<g>
									<g>
										<g>
											<g>
												<g>
													<g>
														<g>
															<g>
																<g>
																	<g>
																		<g>
																			<g>
																				<g>
																					<path style="fill:#B78876;" d="M145.89,79.374c-9.618-0.888-18.104,6.276-18.823,15.909
																						c-0.599,8.016-1.162,16.689-1.172,21.062c-0.019,9.386,9.346,10.98,9.346,10.98s-0.269,2.777-0.578,6.223
																						c-0.622,6.94,4.611,13.027,11.566,13.446l0,0c6.819,0.411,12.678-4.787,13.083-11.606l2.242-37.781
																						C162.105,88.3,155.174,80.232,145.89,79.374L145.89,79.374z"/>
																				</g>
																			</g>
																		</g>
																	</g>
																</g>
															</g>
														</g>
													</g>
												</g>
												<g>
													<g>
														<g>
															<g>
																<g>
																	<g>
																		<g>
																			<g>
																				<g>
																					<path style="fill:#AA6550;" d="M135.227,127.19c0,0,5.924,0.568,12.284-3.301c0,0-3.144,6.783-12.495,5.803
																						L135.227,127.19z"/>
																				</g>
																			</g>
																		</g>
																	</g>
																</g>
															</g>
														</g>
													</g>
												</g>
											</g>
										</g>
									</g>
									<g>
										<g>
											<g>
												<g>
													<g>
														<g>
															<g>
																<g>
																	<g>
																		<g>
																			<path style="fill:#B78876;" d="M160.642,100.819c0.161-0.067,6.475-1.814,6.178,4.598
																				c-0.297,6.412-6.674,4.791-6.677,4.607C160.141,109.84,160.642,100.819,160.642,100.819z"/>
																		</g>
																	</g>
																</g>
															</g>
														</g>
													</g>
												</g>
											</g>
										</g>
										<g>
											<g>
												<g>
													<g>
														<g>
															<g>
																<g>
																	<g>
																		<g>
																			<g>
																				<path style="fill:#AA6550;" d="M162.215,107.686c0.029-0.019,0.108,0.083,0.293,0.179
																					c0.18,0.093,0.494,0.166,0.834,0.056c0.689-0.217,1.309-1.266,1.394-2.421c0.044-0.583-0.053-1.144-0.238-1.614
																					c-0.174-0.478-0.462-0.82-0.801-0.896c-0.336-0.094-0.587,0.099-0.674,0.275
																					c-0.094,0.175-0.059,0.305-0.094,0.315c-0.019,0.015-0.133-0.114-0.069-0.376
																					c0.033-0.126,0.115-0.274,0.271-0.39c0.16-0.118,0.389-0.171,0.625-0.135c0.493,0.057,0.917,0.533,1.121,1.049
																					c0.231,0.519,0.353,1.151,0.305,1.805c-0.101,1.29-0.818,2.469-1.758,2.694
																					c-0.456,0.097-0.827-0.057-1.014-0.217C162.219,107.842,162.192,107.697,162.215,107.686z"/>
																			</g>
																		</g>
																	</g>
																</g>
															</g>
														</g>
													</g>
												</g>
											</g>
										</g>
									</g>
									<g>
										<g>
											<g>
												<g>
													<g>
														<g>
															<g>
																<g>
																	<g>
																		<g>
																			<g>
																				<g>
																					<g>
																						<g>
																							<g>
																								<path style="fill:#263238;" d="M130.713,100.397c-0.035,0.707,0.535,1.32,1.273,1.371
																									c0.736,0.05,1.364-0.481,1.399-1.188c0.035-0.707-0.535-1.321-1.271-1.372
																									C131.375,99.157,130.748,99.69,130.713,100.397z"/>
																							</g>
																						</g>
																					</g>
																				</g>
																			</g>
																		</g>
																	</g>
																</g>
															</g>
															<g>
																<g>
																	<g>
																		<g>
																			<g>
																				<g>
																					<g>
																						<g>
																							<g>
																								<g>
																									<path style="fill:#263238;" d="M129.437,98.661c0.163,0.177,1.19-0.56,2.632-0.535
																										c1.441,0.004,2.488,0.761,2.647,0.587c0.078-0.077-0.087-0.395-0.543-0.737
																										c-0.449-0.341-1.218-0.677-2.116-0.686c-0.898-0.008-1.659,0.312-2.098,0.644
																										C129.511,98.268,129.356,98.581,129.437,98.661z"/>
																								</g>
																							</g>
																						</g>
																					</g>
																				</g>
																			</g>
																		</g>
																	</g>
																</g>
															</g>
														</g>
														<g>
															<g>
																<g>
																	<g>
																		<g>
																			<g>
																				<g>
																					<g>
																						<g>
																							<g>
																								<path style="fill:#263238;" d="M145.162,100.793c-0.035,0.707,0.535,1.32,1.273,1.37
																									c0.737,0.05,1.363-0.481,1.399-1.188c0.035-0.707-0.535-1.321-1.271-1.372
																									C145.824,99.553,145.198,100.086,145.162,100.793z"/>
																							</g>
																						</g>
																					</g>
																				</g>
																			</g>
																		</g>
																	</g>
																</g>
															</g>
															<g>
																<g>
																	<g>
																		<g>
																			<g>
																				<g>
																					<g>
																						<g>
																							<g>
																								<g>
																									<path style="fill:#263238;" d="M143.608,99.134c0.164,0.177,1.191-0.56,2.632-0.535
																										c1.441,0.004,2.489,0.761,2.648,0.587c0.078-0.077-0.085-0.395-0.543-0.737
																										c-0.449-0.341-1.218-0.677-2.116-0.686c-0.898-0.008-1.658,0.312-2.098,0.644
																										C143.684,98.741,143.528,99.055,143.608,99.134z"/>
																								</g>
																							</g>
																						</g>
																					</g>
																				</g>
																			</g>
																		</g>
																	</g>
																</g>
															</g>
														</g>
														<g>
															<g>
																<g>
																	<g>
																		<g>
																			<g>
																				<g>
																					<g>
																						<g>
																							<g>
																								<path style="fill:#263238;" d="M138.221,109.753c0.008-0.082-0.886-0.25-2.336-0.456
																									c-0.367-0.043-0.715-0.122-0.773-0.374c-0.083-0.267,0.077-0.662,0.262-1.088
																									c0.359-0.886,0.735-1.815,1.129-2.788c1.57-3.971,2.711-7.238,2.551-7.3
																									c-0.161-0.062-1.563,3.107-3.133,7.077c-0.378,0.979-0.74,1.913-1.084,2.806
																									c-0.145,0.416-0.392,0.887-0.212,1.442c0.095,0.277,0.363,0.48,0.598,0.547
																									c0.235,0.075,0.442,0.082,0.624,0.096C137.307,109.816,138.214,109.835,138.221,109.753z"/>
																							</g>
																						</g>
																					</g>
																				</g>
																			</g>
																		</g>
																	</g>
																</g>
															</g>
														</g>
													</g>
												</g>
											</g>
											<g>
												<g>
													<g>
														<g>
															<g>
																<g>
																	<g>
																		<g>
																			<g>
																				<path style="fill:#263238;" d="M141.945,93.912c0.168,0.382,1.592,0.102,3.294,0.194
																					c1.704,0.058,3.098,0.463,3.299,0.097c0.089-0.174-0.173-0.527-0.748-0.87
																					c-0.571-0.342-1.465-0.645-2.486-0.691c-1.021-0.044-1.938,0.178-2.537,0.468
																					C142.163,93.402,141.871,93.73,141.945,93.912z"/>
																			</g>
																		</g>
																	</g>
																</g>
															</g>
														</g>
													</g>
												</g>
											</g>
											<g>
												<g>
													<g>
														<g>
															<g>
																<g>
																	<g>
																		<g>
																			<g>
																				<path style="fill:#263238;" d="M128.898,93.348c0.249,0.331,1.247,0.005,2.442,0.007
																					c1.195-0.041,2.203,0.252,2.441-0.088c0.104-0.165-0.05-0.495-0.488-0.812
																					c-0.431-0.315-1.156-0.578-1.977-0.565c-0.821,0.014-1.537,0.301-1.957,0.63
																					C128.931,92.851,128.788,93.186,128.898,93.348z"/>
																			</g>
																		</g>
																	</g>
																</g>
															</g>
														</g>
													</g>
												</g>
											</g>
										</g>
									</g>
								</g>
							</g>
						</g>
					</g>
				</g>
				<g>
					<g>
						<g>
							<path style="fill:#263238;" d="M161.379,100.534c0.069,0.983,0.019,2.117-0.203,3.077c-0.223,0.96-0.784,1.891-1.672,2.319
								c-1.623,0.781-3.628-0.481-4.326-2.141c-0.698-1.66-0.471-3.544-0.28-5.335c0.261-2.443,0.431-4.926-0.005-7.344
								c-0.435-2.418-1.533-4.791-3.434-6.347c-1.901-1.556-4.677-2.148-6.897-1.096c-1.37,0.649-2.411,1.831-3.692,2.641
								c-1.152,0.729-2.548,1.151-3.892,0.92c-1.344-0.23-3.164-1.175-2.936-2.519c0.532-3.132-1.642-0.505-1.499-1.037
								c0.239-0.888,2.044-2.41,2.793-2.96c1.383-1.016,2.847-1.503,4.312-1.76c4.064-0.713,8.437-0.198,12.249,1.383
								c3.812,1.58,7.159,4.527,8.718,8.347c1.802,4.418,1.521,7.095,0.913,11.854"/>
						</g>
					</g>
				</g>
			</g>
			<g>
				<g>
					<path style="fill:#263238;" d="M141.273,114.019c0.015,0.287-1.183,0.585-2.676,0.666c-1.494,0.08-2.716-0.088-2.732-0.375
						c-0.015-0.287,1.182-0.585,2.676-0.665C140.034,113.564,141.257,113.732,141.273,114.019z"/>
				</g>
			</g>
			<g>
				<g>
					<g>
						<path style="fill:#263238;" d="M161.364,101.098c-0.018,0.065-0.776-0.07-1.964-0.429c-1.189-0.355-2.794-0.952-4.538-1.66
							c-1.634-0.657-3.117-1.254-4.464-1.795c-1.146-0.445-1.864-0.704-1.844-0.778c0.017-0.065,0.776,0.07,1.964,0.429
							c1.189,0.355,2.794,0.952,4.539,1.661c1.633,0.657,3.116,1.253,4.463,1.795C160.667,100.765,161.385,101.024,161.364,101.098z
							"/>
					</g>
				</g>
				<g>
					<path style="fill:#263238;" d="M134.682,95.557c0.852,0.101,1.55,0.75,1.678,1.598c0.254,1.681-0.029,3.445-0.823,4.951
						c-1.026,1.944-2.89,3.428-5.015,3.991c-1.219,0.323-2.595,0.331-3.66-0.343c-1.493-0.944-1.953-2.895-2.084-4.657
						c-0.095-1.285-0.061-2.663,0.646-3.741c0.903-1.376,2.674-1.906,4.317-1.995C131.385,95.271,134.682,95.557,134.682,95.557
						L134.682,95.557z"/>
				</g>
				<g>
					<path style="fill:#263238;" d="M142.222,95.789c-0.864,0.077-1.589,0.713-1.743,1.567c-0.306,1.692-0.071,3.484,0.688,5.029
						c0.981,1.996,2.822,3.55,4.954,4.181c1.223,0.362,2.613,0.41,3.711-0.241c1.537-0.911,2.059-2.87,2.242-4.647
						c0.134-1.297,0.139-2.69-0.544-3.801c-0.873-1.417-2.648-2.005-4.307-2.143S142.222,95.789,142.222,95.789L142.222,95.789z"/>
				</g>
				<g>
					<g>
						<path style="fill:#263238;" d="M143.738,96.055c-0.003,0.144-2.467,0.211-5.502,0.151c-3.037-0.061-5.495-0.226-5.492-0.37
							c0.003-0.144,2.466-0.211,5.503-0.151C141.282,95.745,143.741,95.911,143.738,96.055z"/>
					</g>
				</g>
			</g>
			<g>
				<g>
					<g>
						<path style="fill:#E0E0E0;" d="M160.998,138.612c-0.009,0-0.018-0.052-0.028-0.156c-0.009-0.104-0.01-0.26,0.018-0.463
							c0.047-0.407,0.25-0.987,0.619-1.659c0.366-0.675,0.847-1.466,1.128-2.498c0.304-1.022,0.433-2.243,0.425-3.592
							c0.001-1.358-0.171-2.818-0.27-4.448c-0.005-0.413,0.042-0.887,0.31-1.294c0.245-0.388,0.737-0.751,1.313-0.605
							c0.264,0.074,0.493,0.242,0.639,0.489c0.155,0.245,0.155,0.61-0.019,0.864c-0.408,0.521-1.041,0.471-1.512,0.293
							c-0.95-0.449-1.477-1.575-1.194-2.617c0.136-0.509,0.445-0.978,0.89-1.295c0.226-0.158,0.487-0.278,0.786-0.311
							c0.289-0.035,0.649,0.043,0.882,0.299c0.217,0.237,0.351,0.588,0.211,0.955c-0.162,0.376-0.551,0.494-0.833,0.508
							c-0.595,0.03-1.159-0.243-1.545-0.663c-0.387-0.416-0.623-1.014-0.533-1.617c0.089-0.6,0.472-1.114,0.973-1.419
							c0.42-0.26,0.936-0.378,1.446-0.259c0.256,0.067,0.486,0.196,0.676,0.395c0.188,0.188,0.325,0.525,0.23,0.834
							c-0.082,0.313-0.364,0.521-0.607,0.596c-0.251,0.083-0.5,0.094-0.744,0.063c-0.476-0.075-0.896-0.277-1.257-0.559
							c-0.71-0.55-1.165-1.551-0.818-2.459c0.323-0.845,1.221-1.487,2.158-1.278c0.45,0.108,0.88,0.431,0.959,0.97
							c0.032,0.266-0.089,0.544-0.274,0.709c-0.184,0.169-0.41,0.261-0.647,0.284c-0.479,0.031-0.87-0.196-1.173-0.434
							c-0.308-0.245-0.569-0.548-0.742-0.905c-0.372-0.704-0.21-1.681,0.463-2.139c0.688-0.489,1.735-0.093,1.868,0.734l0.022,0.139
							l-0.12,0.065c-0.95,0.515-2.085-0.017-2.427-0.871c-0.182-0.436-0.101-0.928,0.108-1.292c0.212-0.368,0.534-0.648,0.902-0.796
							c0.365-0.156,0.789-0.155,1.134-0.007c0.35,0.127,0.65,0.525,0.556,0.917c-0.034,0.191-0.178,0.372-0.363,0.435
							c-0.184,0.066-0.369,0.037-0.52-0.028c-0.32-0.132-0.474-0.45-0.534-0.704c-0.177-1.042-0.089-1.835-0.028-2.376
							c0.075-0.538,0.159-0.813,0.177-0.809c0.08-0.005-0.266,1.16,0.075,3.125c0.065,0.226,0.189,0.445,0.409,0.526
							c0.219,0.095,0.473,0.012,0.505-0.224c0.105-0.515-0.728-0.833-1.285-0.55c-0.583,0.237-1.076,0.986-0.791,1.644
							c0.249,0.646,1.214,1.054,1.869,0.659l-0.098,0.204c-0.055-0.466-0.796-0.77-1.213-0.432c-0.455,0.321-0.6,1.031-0.3,1.58
							c0.27,0.532,0.897,1.091,1.46,1.065c0.275-0.024,0.522-0.246,0.482-0.469c-0.021-0.23-0.297-0.488-0.59-0.542
							c-0.617-0.153-1.338,0.332-1.573,0.977c-0.25,0.639,0.079,1.429,0.665,1.88c0.291,0.228,0.65,0.395,1.007,0.449
							c0.343,0.052,0.745-0.069,0.783-0.289c0.083-0.203-0.206-0.508-0.536-0.584c-0.332-0.078-0.728-0.002-1.044,0.199
							c-0.385,0.232-0.671,0.63-0.731,1.051c-0.065,0.42,0.101,0.868,0.4,1.19c0.296,0.325,0.724,0.52,1.132,0.501
							c0.432-0.011,0.519-0.314,0.282-0.601c-0.2-0.235-0.681-0.166-1.005,0.076c-0.342,0.241-0.592,0.612-0.7,1.012
							c-0.242,0.794,0.215,1.723,0.899,2.045c0.33,0.147,0.796,0.109,0.936-0.111c0.169-0.217-0.042-0.567-0.352-0.652
							c-0.281-0.086-0.633,0.114-0.817,0.408c-0.198,0.29-0.251,0.668-0.25,1.047c0.077,1.568,0.231,3.082,0.206,4.452
							c-0.016,1.373-0.174,2.628-0.515,3.676c-0.318,1.059-0.845,1.867-1.229,2.513c-0.391,0.649-0.614,1.191-0.693,1.579
							C161.01,138.398,161.022,138.611,160.998,138.612z"/>
					</g>
				</g>
				<g>
					<path style="fill:#E0E0E0;" d="M164.684,107.924c-0.064-0.481-0.172-0.967-0.426-1.381c-0.254-0.414-0.676-0.748-1.159-0.793
						c-0.539-0.05-1.09,0.3-1.273,0.809c-0.178,0.494,0.051,1.105,0.473,1.419c0.01,0.008,0.017,0.015,0.027,0.022
						c0.003,0.002,0.006,0.006,0.01,0.008l-0.004-0.004c0.038,0.027,0.079,0.053,0.111,0.073c0.167,0.106,0.403,0.119,0.571,0.223
						c0.344,0.213,0.455,0.666,0.439,1.07c-0.016,0.404-0.126,0.804-0.096,1.208c0.022,0.293,0.189,0.635,0.483,0.641
						c0.255,0.005,0.435-0.245,0.541-0.478C164.778,109.871,164.811,108.873,164.684,107.924z"/>
				</g>
			</g>
			<g>
				<g>
					<path style="fill:#FFFFFF;" d="M135.096,128.836c0,0-2.011,2.948-2.176,4.864c-0.109,1.268,0.736,6.201,1.32,9.392
						c0.335,1.832,1.051,3.57,2.101,5.109l1.302,1.907c1.882,2.756,3.451,5.713,4.678,8.816c2.536,6.413,6.798,17.211,6.947,17.728
						c0.213,0.738,1.894,3.771,1.894,3.771l2.254-26.954l6.8-13.476c0.592-1.173,0.923-2.46,0.971-3.772l0.158-4.326
						c0.058-1.585-0.506-3.129-1.572-4.303l0,0l-0.342,3.894l-11.277,10.245l-13.081-8.802L135.096,128.836z"/>
				</g>
				<g>
					<g>
						<path style="fill:#263238;" d="M147.581,141.816c0.06,0.094-1.263,0.476-2.357,2.225c-1.136,1.688-1.994,4.414-2.738,7.457
							c-0.076,0.301-0.15,0.599-0.22,0.878l-0.101,0.402l-0.316-0.265c-2.277-1.908-4.026-3.883-5.29-5.285
							c-1.253-1.414-2.001-2.291-1.952-2.338c0.05-0.048,0.89,0.746,2.211,2.096c1.33,1.337,3.119,3.261,5.361,5.126l-0.417,0.137
							c0.07-0.28,0.144-0.578,0.219-0.879c0.746-3.054,1.676-5.832,2.94-7.54c0.617-0.852,1.278-1.433,1.809-1.699
							C147.248,141.85,147.578,141.797,147.581,141.816z"/>
					</g>
				</g>
				<g>
					<g>
						<path style="fill:#263238;" d="M155.631,149.08c0.085,0.058-0.951,1.73-2.539,4.127l-0.415,0.626l-0.012-0.761
							c-0.017-1.095-0.322-2.343-0.696-3.666c-0.597-2.311-1.151-4.395-2.005-5.676c-0.822-1.296-1.674-1.824-1.608-1.903
							c0.018-0.027,0.239,0.082,0.602,0.34c0.359,0.262,0.843,0.704,1.312,1.357c0.982,1.3,1.609,3.45,2.203,5.747
							c0.37,1.317,0.678,2.621,0.66,3.806l-0.426-0.135C154.364,150.594,155.546,149.022,155.631,149.08z"/>
					</g>
				</g>
				<g>
					<g>
						<path style="fill:#263238;" d="M150.471,178.583c-0.144,0.009-0.786-8.163-1.436-18.25
							c-0.649-10.091-1.059-18.276-0.916-18.285c0.144-0.009,0.786,8.161,1.436,18.252
							C150.205,170.387,150.615,178.574,150.471,178.583z"/>
					</g>
				</g>
			</g>
			<g>
				<g>
					<path style="fill:#E0E0E0;" d="M125.272,101.109c-0.125,0.061-0.561-1.038-0.119-2.347c0.428-1.314,1.435-1.935,1.498-1.811
						c0.1,0.115-0.636,0.826-1.004,1.975C125.255,100.067,125.42,101.076,125.272,101.109z"/>
				</g>
			</g>
			<g>
				<g>
					<path style="fill:#E0E0E0;" d="M141.765,101.674c-0.106,0.088-0.765-0.762-0.759-2.026c-0.006-1.264,0.653-2.114,0.76-2.026
						c0.133,0.073-0.25,0.923-0.239,2.026C141.515,100.751,141.898,101.601,141.765,101.674z"/>
				</g>
			</g>
		</g>
	</g>
</g>
</svg>
