<svg xmlns="http://www.w3.org/2000/svg" xmlns:xlink="http://www.w3.org/1999/xlink" width="500" zoomAndPan="magnify" viewBox="0 0 375 187.499995" height="250" preserveAspectRatio="xMidYMid meet" version="1.0"><defs><g/><clipPath id="2683ae26f8"><path d="M 6.195312 124 L 113.90625 124 L 113.90625 177.417969 L 6.195312 177.417969 Z M 6.195312 124 " clip-rule="nonzero"/></clipPath></defs><g clip-path="url(#2683ae26f8)"><path fill="#212121" d="M 111.769531 129.847656 L 111.480469 129.847656 C 110.078125 130.085938 108.757812 130.5625 107.523438 131.273438 C 106.226562 132.050781 105.105469 133.023438 104.15625 134.199219 C 103.617188 134.839844 103.121094 135.511719 102.671875 136.214844 C 103.03125 140.035156 103.394531 143.839844 103.746094 147.660156 C 105.542969 162.320312 92.3125 174.378906 78.878906 176.214844 C 66.320312 177.292969 53.757812 177.292969 41.199219 176.214844 C 26.714844 175.453125 15.851562 161.53125 16.332031 147.660156 C 16.695312 143.78125 17.070312 139.902344 17.433594 136.023438 C 17.019531 135.386719 16.566406 134.777344 16.078125 134.199219 C 15.121094 133.027344 13.996094 132.050781 12.699219 131.273438 C 11.445312 130.554688 10.105469 130.078125 8.679688 129.847656 L 8.609375 129.847656 C 8.226562 129.777344 7.871094 129.640625 7.542969 129.429688 C 7.214844 129.21875 6.9375 128.957031 6.714844 128.636719 C 6.492188 128.316406 6.339844 127.964844 6.257812 127.585938 C 6.171875 127.207031 6.164062 126.824219 6.234375 126.441406 C 6.300781 126.054688 6.441406 125.699219 6.648438 125.371094 C 6.859375 125.042969 7.121094 124.769531 7.441406 124.542969 C 7.761719 124.320312 8.109375 124.167969 8.488281 124.082031 C 8.871094 124 9.25 123.992188 9.632812 124.058594 L 9.925781 124.121094 C 12.003906 124.703125 13.90625 125.648438 15.632812 126.945312 C 16.515625 127.589844 17.320312 128.320312 18.046875 129.132812 L 18.480469 124.601562 L 101.546875 124.601562 L 101.980469 129.28125 C 102.738281 128.410156 103.582031 127.632812 104.503906 126.945312 C 106.234375 125.660156 108.136719 124.730469 110.214844 124.15625 C 110.589844 124.050781 110.972656 124.023438 111.359375 124.074219 C 111.75 124.121094 112.113281 124.246094 112.453125 124.4375 C 112.792969 124.632812 113.082031 124.882812 113.320312 125.191406 C 113.558594 125.5 113.730469 125.84375 113.835938 126.222656 C 113.9375 126.597656 113.964844 126.980469 113.917969 127.371094 C 113.867188 127.757812 113.746094 128.121094 113.554688 128.460938 C 113.359375 128.800781 113.109375 129.09375 112.800781 129.332031 C 112.492188 129.574219 112.148438 129.742188 111.769531 129.847656 Z M 111.769531 129.847656 " fill-opacity="1" fill-rule="nonzero"/></g><path fill="#157a2c" d="M 80.667969 107.46875 C 82.996094 105.703125 85.589844 104.535156 88.453125 103.960938 C 88.359375 104.902344 88.191406 105.832031 87.949219 106.746094 C 87.703125 107.660156 87.382812 108.546875 86.992188 109.40625 C 86.597656 110.265625 86.136719 111.089844 85.605469 111.871094 C 85.078125 112.65625 84.484375 113.390625 83.835938 114.074219 C 83.183594 114.757812 82.476562 115.386719 81.722656 115.953125 C 80.964844 116.519531 80.167969 117.019531 79.328125 117.453125 C 78.488281 117.886719 77.621094 118.25 76.71875 118.539062 C 75.820312 118.828125 74.902344 119.039062 73.96875 119.175781 C 75.5 117.96875 77.019531 116.761719 78.46875 115.441406 C 80.855469 113.378906 82.957031 111.054688 84.769531 108.46875 C 82.835938 110.9375 80.632812 113.132812 78.15625 115.054688 C 76.71875 116.265625 75.222656 117.292969 73.714844 118.355469 C 74.210938 116.191406 75.054688 114.179688 76.25 112.308594 C 77.441406 110.441406 78.914062 108.824219 80.667969 107.46875 Z M 27.921875 104.203125 C 29.578125 102.933594 31.402344 101.976562 33.386719 101.328125 C 34.59375 100.894531 35.800781 100.554688 37.082031 100.226562 C 36.371094 99.925781 35.636719 99.714844 34.875 99.597656 C 34.113281 99.476562 33.347656 99.453125 32.582031 99.523438 C 31.8125 99.59375 31.066406 99.757812 30.335938 100.015625 C 29.609375 100.269531 28.925781 100.613281 28.28125 101.039062 C 26.511719 102.371094 25.304688 104.097656 24.660156 106.222656 C 26.597656 106.890625 28.566406 107.003906 30.5625 106.558594 C 32.019531 106.171875 33.324219 105.488281 34.476562 104.515625 C 35.628906 103.539062 36.515625 102.363281 37.140625 100.988281 C 35.933594 101.207031 34.726562 101.460938 33.519531 101.773438 C 31.523438 102.277344 29.65625 103.089844 27.921875 104.203125 Z M 95.136719 44.445312 C 81.957031 45.65625 80.460938 54.113281 80.351562 59.492188 C 81.558594 57.882812 82.765625 56.300781 83.972656 54.777344 C 85.960938 52.328125 88.214844 50.152344 90.734375 48.253906 C 88.332031 50.265625 86.214844 52.535156 84.371094 55.066406 C 83.285156 56.628906 82.234375 58.199219 81.199219 59.757812 C 86.570312 58.875 96.078125 55.746094 95.136719 44.445312 Z M 63.382812 71.03125 C 63.039062 70.863281 62.679688 70.816406 62.304688 70.882812 C 61.925781 70.949219 61.605469 71.121094 61.34375 71.394531 C 60.835938 71.957031 60.472656 72.601562 60.257812 73.328125 C 59.882812 72.332031 59.289062 71.484375 58.480469 70.789062 C 58.277344 70.625 58.054688 70.503906 57.804688 70.425781 C 57.558594 70.34375 57.300781 70.308594 57.042969 70.324219 C 56.78125 70.335938 56.53125 70.398438 56.292969 70.5 C 56.054688 70.605469 55.84375 70.75 55.65625 70.933594 C 55.410156 71.371094 55.285156 71.839844 55.285156 72.34375 C 55.285156 72.84375 55.410156 73.3125 55.65625 73.75 C 56.597656 76.011719 58.003906 77.921875 59.882812 79.492188 C 61.777344 77.988281 63.097656 76.089844 63.839844 73.789062 C 64.128906 72.855469 64.238281 71.601562 63.382812 71.054688 Z M 36.261719 43.238281 C 36.085938 42.34375 36.085938 41.449219 36.261719 40.554688 C 36.417969 39.429688 37.082031 36.398438 34.945312 38.136719 C 33.96875 38.933594 34.292969 42.054688 35.574219 43.867188 C 34.832031 44.835938 34.429688 45.933594 34.367188 47.152344 C 34.859375 45.984375 35.664062 45.097656 36.78125 44.496094 C 37.675781 44.007812 38.632812 43.78125 39.652344 43.816406 C 39.316406 43.457031 38.914062 43.210938 38.445312 43.070312 C 37.6875 42.851562 36.957031 42.929688 36.261719 43.296875 Z M 36.261719 43.238281 " fill-opacity="1" fill-rule="nonzero"/><path fill="#f64b31" d="M 66.652344 102.574219 C 65.988281 102.441406 65.144531 102.269531 64.335938 102.066406 C 64.453125 102.945312 64.511719 103.824219 64.515625 104.710938 L 64.515625 106.1875 L 63.503906 105.109375 C 62.703125 104.269531 61.949219 103.386719 61.246094 102.464844 C 60.484375 103.1875 59.679688 103.855469 58.832031 104.46875 L 57.949219 105.109375 L 57.949219 104.011719 C 57.914062 102.855469 57.964844 101.703125 58.09375 100.554688 C 56.9375 100.566406 55.785156 100.519531 54.632812 100.410156 L 53.160156 100.277344 L 54.367188 99.371094 C 55.0625 98.820312 55.796875 98.328125 56.5625 97.882812 C 55.355469 96.917969 54.078125 95.78125 53.847656 95.574219 C 52.882812 95.582031 51.9375 95.714844 51.007812 95.976562 C 50.082031 96.238281 49.207031 96.621094 48.382812 97.121094 C 47.558594 97.625 46.816406 98.226562 46.15625 98.929688 C 45.496094 99.632812 44.941406 100.414062 44.492188 101.265625 C 41.847656 106.695312 44.804688 113.582031 51.09375 116.664062 C 57.382812 119.746094 64.625 117.871094 67.269531 112.410156 C 67.625 111.628906 67.882812 110.8125 68.039062 109.96875 C 68.195312 109.125 68.246094 108.273438 68.191406 107.414062 C 68.140625 106.554688 67.984375 105.71875 67.722656 104.898438 C 67.460938 104.078125 67.105469 103.304688 66.652344 102.574219 Z M 48.320312 102.246094 C 47.996094 102.679688 47.714844 103.136719 47.472656 103.625 C 46.589844 105.441406 46.378906 107.335938 46.835938 109.304688 C 47.5 112.421875 46.664062 112.492188 45.445312 108.867188 C 45.042969 107.757812 44.867188 106.609375 44.925781 105.425781 C 44.984375 104.246094 45.273438 103.121094 45.785156 102.054688 C 45.996094 101.632812 46.234375 101.230469 46.507812 100.84375 C 46.730469 100.542969 47.023438 100.34375 47.386719 100.257812 C 47.753906 100.167969 48.101562 100.207031 48.441406 100.375 C 48.996094 100.761719 48.875 101.535156 48.320312 102.246094 Z M 49.019531 99.695312 C 48.414062 99.539062 48.765625 98.558594 50.09375 97.761719 C 51.128906 97.09375 52.25 96.871094 53.460938 97.097656 C 53.894531 97.351562 53.171875 97.882812 52.023438 98.585938 C 51.136719 99.265625 50.136719 99.636719 49.019531 99.695312 Z M 50.226562 14.550781 C 49.902344 13.988281 49.742188 13.382812 49.742188 12.734375 C 49.742188 12.089844 49.902344 11.484375 50.226562 10.921875 C 50.464844 10.6875 50.734375 10.5 51.042969 10.363281 C 51.347656 10.226562 51.667969 10.152344 52.003906 10.136719 C 52.339844 10.121094 52.664062 10.167969 52.984375 10.273438 C 53.300781 10.378906 53.589844 10.539062 53.847656 10.753906 C 54.871094 11.628906 55.621094 12.695312 56.09375 13.957031 C 56.375 13.050781 56.832031 12.246094 57.46875 11.539062 C 57.800781 11.210938 58.195312 11.007812 58.65625 10.929688 C 59.113281 10.847656 59.554688 10.90625 59.980469 11.105469 C 61.054688 11.78125 60.957031 13.375 60.570312 14.597656 C 59.628906 17.515625 57.957031 19.933594 55.5625 21.847656 C 53.175781 19.855469 51.394531 17.421875 50.214844 14.550781 Z M 36.769531 57.339844 C 34.355469 54.308594 32.820312 47.46875 37.058594 45.253906 C 42.695312 42.269531 45.242188 50.234375 47.402344 53.714844 C 49.210938 56.601562 51.65625 58.78125 54.726562 60.253906 C 55.777344 60.773438 59.121094 61.316406 59.363281 62.246094 C 59.871094 64.082031 55.742188 64.433594 54.644531 64.542969 C 48.089844 65.015625 40.472656 61.933594 36.769531 57.339844 Z M 36.769531 57.339844 " fill-opacity="1" fill-rule="nonzero"/><path fill="#57a52c" d="M 93.882812 75.671875 C 92.6875 74.488281 91.257812 73.753906 89.597656 73.472656 C 89.578125 72.921875 89.488281 72.382812 89.328125 71.855469 C 89.167969 71.328125 88.941406 70.832031 88.652344 70.363281 C 88.359375 69.894531 88.011719 69.472656 87.609375 69.097656 C 87.207031 68.722656 86.765625 68.402344 86.277344 68.144531 C 83.441406 66.390625 80.148438 66.609375 78.90625 68.613281 L 78.90625 68.722656 L 78.480469 68.628906 C 75.886719 68.300781 73.570312 69.714844 73.292969 71.792969 C 73.292969 71.949219 73.292969 72.121094 73.292969 72.277344 C 71.601562 71.972656 70.03125 72.722656 69.753906 73.992188 C 69.476562 75.261719 70.671875 76.675781 72.410156 77.050781 C 72.738281 77.148438 73.070312 77.195312 73.414062 77.183594 C 73.753906 77.171875 74.085938 77.105469 74.40625 76.988281 C 74.722656 76.867188 75.015625 76.699219 75.28125 76.480469 C 75.542969 76.265625 75.765625 76.011719 75.945312 75.722656 C 76.449219 75.941406 76.972656 76.09375 77.515625 76.167969 C 77.871094 76.199219 78.222656 76.199219 78.578125 76.167969 C 78.613281 76.777344 78.792969 77.339844 79.109375 77.855469 C 79.429688 78.375 79.851562 78.785156 80.375 79.09375 C 80.863281 79.425781 81.398438 79.628906 81.980469 79.703125 C 82.5625 79.773438 83.132812 79.707031 83.683594 79.503906 C 84.011719 81.171875 84.792969 82.589844 86.027344 83.757812 C 86.347656 84.074219 86.691406 84.359375 87.0625 84.613281 C 86.953125 85.441406 87.039062 86.25 87.328125 87.03125 C 88.148438 89.230469 90.238281 90.488281 92 89.835938 C 92.402344 89.636719 92.757812 89.375 93.066406 89.046875 C 93.371094 88.71875 93.613281 88.347656 93.789062 87.9375 C 93.960938 87.523438 94.058594 87.089844 94.078125 86.640625 C 94.09375 86.191406 94.035156 85.753906 93.894531 85.328125 C 94.296875 85.109375 94.660156 84.839844 94.980469 84.519531 C 97.152344 82.355469 96.71875 78.355469 93.882812 75.671875 Z M 74.859375 72.710938 L 74.992188 73.050781 C 75.070312 73.292969 75.1875 73.511719 75.34375 73.714844 C 74.894531 73.496094 74.582031 73.152344 74.402344 72.6875 L 74.316406 72.421875 C 74.300781 72.105469 74.339844 71.800781 74.441406 71.5 C 74.542969 71.203125 74.699219 70.933594 74.902344 70.695312 C 75.109375 70.457031 75.355469 70.269531 75.632812 70.125 C 75.914062 69.984375 76.210938 69.898438 76.527344 69.871094 C 76.699219 69.832031 76.871094 69.8125 77.046875 69.8125 C 76.710938 69.867188 76.402344 69.980469 76.113281 70.15625 C 75.824219 70.332031 75.578125 70.554688 75.375 70.824219 C 75.171875 71.09375 75.023438 71.390625 74.9375 71.71875 C 74.847656 72.042969 74.824219 72.375 74.859375 72.710938 Z M 81.027344 74.875 C 80.597656 75.105469 80.277344 75.441406 80.074219 75.890625 C 79.890625 76.320312 79.847656 76.761719 79.941406 77.21875 C 80.011719 77.542969 80.144531 77.84375 80.339844 78.113281 C 79.871094 77.835938 79.574219 77.433594 79.449219 76.90625 C 79.375 76.625 79.375 76.339844 79.449219 76.058594 C 79.6875 75.386719 80.148438 74.957031 80.835938 74.765625 L 81.125 74.695312 C 81.265625 74.679688 81.40625 74.679688 81.546875 74.695312 C 81.367188 74.734375 81.195312 74.792969 81.027344 74.875 Z M 80.703125 69.425781 C 80.359375 69.839844 80.113281 70.308594 79.972656 70.828125 C 79.832031 71.351562 79.804688 71.875 79.894531 72.410156 C 80 72.96875 80.230469 73.472656 80.582031 73.921875 C 80.175781 73.726562 79.832031 73.453125 79.550781 73.097656 C 79.269531 72.742188 79.082031 72.34375 78.988281 71.902344 C 78.917969 71.367188 78.984375 70.851562 79.183594 70.355469 C 79.386719 69.855469 79.695312 69.4375 80.113281 69.097656 C 80.777344 68.507812 81.542969 68.128906 82.417969 67.960938 C 82.675781 67.90625 82.9375 67.875 83.203125 67.867188 C 82.195312 68.105469 81.359375 68.625 80.703125 69.425781 Z M 89.476562 83.371094 C 89.183594 83.523438 88.925781 83.726562 88.707031 83.972656 C 88.859375 83.449219 89.183594 83.066406 89.671875 82.828125 C 89.914062 82.71875 90.167969 82.664062 90.433594 82.660156 C 90.699219 82.660156 90.957031 82.710938 91.199219 82.8125 C 91.445312 82.917969 91.660156 83.066406 91.84375 83.261719 C 92.027344 83.453125 92.164062 83.675781 92.253906 83.925781 C 92.308594 84.054688 92.351562 84.1875 92.386719 84.324219 C 92.261719 84.066406 92.085938 83.839844 91.871094 83.652344 C 91.652344 83.460938 91.40625 83.324219 91.132812 83.234375 C 90.859375 83.144531 90.578125 83.109375 90.292969 83.132812 C 90.003906 83.15625 89.734375 83.238281 89.476562 83.371094 Z M 86.195312 77.582031 C 85.6875 78.109375 85.328125 78.726562 85.121094 79.429688 C 84.980469 78.382812 85.226562 77.4375 85.855469 76.589844 C 85.929688 76.476562 86.011719 76.367188 86.097656 76.265625 C 86.886719 75.496094 87.832031 75.140625 88.933594 75.199219 C 90.398438 75.269531 91.648438 75.820312 92.6875 76.855469 C 92.925781 77.097656 93.148438 77.351562 93.351562 77.617188 C 93.117188 77.390625 92.859375 77.183594 92.585938 77.003906 C 92.308594 76.824219 92.019531 76.671875 91.714844 76.546875 C 91.410156 76.421875 91.097656 76.328125 90.777344 76.265625 C 90.453125 76.199219 90.128906 76.167969 89.796875 76.164062 C 89.46875 76.164062 89.144531 76.195312 88.820312 76.253906 C 88.496094 76.316406 88.183594 76.40625 87.878906 76.527344 C 87.570312 76.648438 87.28125 76.796875 87.003906 76.976562 C 86.726562 77.152344 86.46875 77.355469 86.230469 77.582031 Z M 86.617188 86.886719 C 84.804688 87.613281 83.191406 88.652344 81.785156 90.007812 C 80.378906 91.363281 79.277344 92.933594 78.480469 94.71875 L 72.011719 90.71875 C 74.316406 88.894531 76.71875 82.695312 74.171875 77.617188 C 74.65625 77.507812 75.097656 77.304688 75.5 77.015625 C 76.625 79.242188 77.027344 81.59375 76.707031 84.070312 C 77.539062 82.28125 78.3125 80.578125 79.023438 78.828125 C 79.316406 79.132812 79.644531 79.398438 80.003906 79.625 C 80.277344 79.789062 80.566406 79.925781 80.871094 80.035156 C 80.613281 82.914062 79.660156 85.539062 78.011719 87.914062 C 79.128906 86.792969 80.421875 85.9375 81.886719 85.34375 C 83.355469 84.753906 84.878906 84.472656 86.460938 84.507812 C 86.347656 85.3125 86.410156 86.109375 86.652344 86.886719 Z M 67.96875 102.210938 C 66.488281 101.976562 65.03125 101.660156 63.585938 101.253906 C 63.8125 102.398438 63.925781 103.546875 63.9375 104.710938 C 62.996094 103.714844 62.128906 102.660156 61.332031 101.546875 C 60.464844 102.4375 59.527344 103.242188 58.519531 103.960938 C 58.476562 102.601562 58.570312 101.246094 58.796875 99.902344 C 57.421875 99.957031 56.050781 99.917969 54.679688 99.792969 C 55.605469 99.082031 56.585938 98.460938 57.625 97.933594 C 56.417969 97.042969 55.269531 96.089844 54.171875 95.066406 C 55.683594 95.386719 57.171875 95.789062 58.640625 96.277344 C 58.398438 95.175781 58.257812 94.066406 58.214844 92.941406 C 59.25 93.992188 60.203125 95.113281 61.078125 96.300781 C 61.828125 95.683594 62.632812 95.148438 63.492188 94.695312 C 63.457031 95.621094 63.332031 96.535156 63.117188 97.4375 C 64.4375 97.433594 65.753906 97.503906 67.0625 97.652344 C 66.152344 98.3125 65.191406 98.882812 64.179688 99.371094 C 65.5 100.242188 66.761719 101.1875 67.96875 102.210938 Z M 76.550781 41.039062 C 76.609375 39.613281 76.496094 38.203125 76.203125 36.808594 C 75.914062 35.414062 75.457031 34.078125 74.835938 32.796875 C 74.214844 31.511719 73.441406 30.328125 72.527344 29.238281 C 71.609375 28.148438 70.574219 27.1875 69.417969 26.355469 L 69.355469 26.355469 L 69.355469 26.414062 C 69.324219 25.941406 69.191406 25.496094 68.949219 25.082031 C 68.710938 24.671875 68.390625 24.332031 67.992188 24.070312 C 67.253906 23.613281 66.449219 23.40625 65.578125 23.457031 C 65.363281 23.140625 65.105469 22.871094 64.800781 22.644531 C 64.5 22.417969 64.167969 22.25 63.804688 22.132812 C 63.445312 22.015625 63.078125 21.960938 62.699219 21.96875 C 62.320312 21.976562 61.953125 22.042969 61.597656 22.175781 C 61.929688 22.089844 62.265625 22.054688 62.609375 22.070312 C 62.953125 22.089844 63.285156 22.15625 63.609375 22.273438 C 63.933594 22.390625 64.230469 22.554688 64.503906 22.761719 C 64.777344 22.96875 65.015625 23.210938 65.21875 23.492188 C 64.648438 23.558594 64.140625 23.769531 63.691406 24.125 C 63.242188 24.484375 62.921875 24.933594 62.730469 25.472656 C 62.730469 26.683594 64.382812 27.480469 65.144531 26.597656 C 65.484375 26.3125 65.734375 25.960938 65.886719 25.546875 C 66.042969 25.128906 66.085938 24.703125 66.011719 24.265625 C 66.570312 24.246094 67.070312 24.410156 67.511719 24.75 C 67.902344 25.019531 68.191406 25.371094 68.386719 25.804688 C 68.582031 26.238281 68.652344 26.691406 68.597656 27.164062 C 67.644531 29.21875 65.046875 34.644531 62.332031 39.660156 C 60.039062 43.867188 57.15625 47.617188 53.679688 50.910156 C 55.398438 51.246094 57.113281 51.210938 58.820312 50.800781 C 60.359375 50.425781 61.804688 49.824219 63.15625 49 C 64.511719 48.171875 65.707031 47.164062 66.75 45.96875 C 67.125 49.59375 67.835938 52.796875 68.054688 54.234375 C 68.09375 54.191406 68.132812 54.140625 68.160156 54.089844 C 68.621094 53.421875 69.023438 52.71875 69.367188 51.988281 C 69.15625 51.910156 68.964844 51.796875 68.796875 51.648438 C 68.625 51.496094 68.488281 51.320312 68.386719 51.117188 C 68.285156 50.914062 68.226562 50.703125 68.207031 50.476562 C 68.1875 50.25 68.210938 50.027344 68.277344 49.8125 C 68.34375 49.59375 68.449219 49.398438 68.589844 49.222656 C 68.730469 49.042969 68.898438 48.902344 69.097656 48.789062 C 69.292969 48.679688 69.503906 48.605469 69.730469 48.578125 C 69.953125 48.546875 70.175781 48.558594 70.394531 48.613281 C 70.542969 48.652344 70.683594 48.710938 70.816406 48.785156 L 71.070312 48.121094 C 70.886719 48.136719 70.699219 48.136719 70.515625 48.121094 C 70.21875 48.070312 69.941406 47.964844 69.6875 47.804688 C 69.433594 47.644531 69.214844 47.445312 69.042969 47.199219 C 68.867188 46.953125 68.746094 46.683594 68.675781 46.390625 C 68.609375 46.097656 68.601562 45.800781 68.648438 45.503906 C 68.699219 45.207031 68.804688 44.929688 68.964844 44.671875 C 69.125 44.417969 69.324219 44.203125 69.570312 44.027344 C 69.816406 43.851562 70.085938 43.730469 70.378906 43.664062 C 70.671875 43.59375 70.96875 43.585938 71.265625 43.636719 C 71.628906 43.683594 71.96875 43.808594 72.277344 44.011719 C 72.339844 43.683594 72.386719 43.359375 72.433594 43.03125 C 72.074219 43.1875 71.703125 43.246094 71.3125 43.203125 C 71 43.203125 70.703125 43.140625 70.417969 43.019531 C 70.128906 42.894531 69.878906 42.722656 69.664062 42.496094 C 69.449219 42.269531 69.289062 42.011719 69.179688 41.71875 C 69.070312 41.425781 69.027344 41.125 69.042969 40.8125 C 69.058594 40.503906 69.132812 40.207031 69.269531 39.929688 C 69.410156 39.648438 69.59375 39.40625 69.832031 39.203125 C 70.066406 39 70.335938 38.855469 70.632812 38.761719 C 70.929688 38.667969 71.230469 38.636719 71.542969 38.667969 C 71.90625 38.660156 72.253906 38.742188 72.578125 38.910156 C 72.578125 38.609375 72.578125 38.308594 72.496094 37.992188 C 72.195312 38.144531 71.878906 38.222656 71.542969 38.222656 C 71.242188 38.246094 70.949219 38.210938 70.664062 38.113281 C 70.375 38.019531 70.117188 37.875 69.890625 37.679688 C 69.664062 37.484375 69.480469 37.25 69.34375 36.980469 C 69.210938 36.710938 69.128906 36.425781 69.109375 36.125 C 69.085938 35.824219 69.121094 35.53125 69.214844 35.246094 C 69.308594 34.960938 69.457031 34.703125 69.652344 34.472656 C 69.847656 34.246094 70.082031 34.0625 70.351562 33.925781 C 70.617188 33.792969 70.902344 33.714844 71.203125 33.691406 C 71.34375 33.679688 71.484375 33.679688 71.625 33.691406 C 71.554688 33.414062 71.46875 33.148438 71.382812 32.882812 C 71.28125 32.914062 71.175781 32.9375 71.070312 32.953125 C 70.832031 32.996094 70.597656 32.992188 70.359375 32.941406 C 70.125 32.890625 69.90625 32.796875 69.707031 32.65625 C 69.507812 32.519531 69.34375 32.347656 69.214844 32.144531 C 69.085938 31.9375 69 31.71875 68.957031 31.480469 C 68.917969 31.265625 68.917969 31.050781 68.957031 30.835938 C 68.992188 30.625 69.070312 30.421875 69.179688 30.234375 C 69.289062 30.050781 69.429688 29.886719 69.601562 29.753906 C 69.769531 29.617188 69.960938 29.515625 70.164062 29.449219 C 69.78125 28.519531 69.441406 27.792969 69.199219 27.335938 C 69.199219 27.203125 69.199219 27.082031 69.199219 26.949219 L 69.296875 26.488281 C 69.960938 27.371094 73.582031 35.238281 73.015625 40.988281 C 73.183594 46.730469 68.390625 55.335938 67.898438 54.886719 C 68.066406 55.515625 76.117188 50.464844 76.550781 41.039062 Z M 63.347656 25.472656 C 63.582031 25.089844 63.894531 24.789062 64.289062 24.574219 C 64.683594 24.359375 65.105469 24.253906 65.554688 24.265625 C 65.964844 25.640625 63.613281 27.359375 63.347656 25.472656 Z M 69.296875 26.464844 Z M 25.085938 84.46875 C 27.738281 86.132812 30.148438 88.089844 32.328125 90.34375 C 33.628906 91.660156 34.859375 93.027344 36.078125 94.414062 C 33.882812 94.148438 31.796875 93.515625 29.816406 92.527344 C 27.839844 91.535156 26.082031 90.238281 24.554688 88.640625 C 22.550781 86.515625 21.113281 84.058594 20.242188 81.269531 C 23.363281 81.242188 26.269531 82.011719 28.972656 83.574219 C 30.925781 84.730469 32.585938 86.214844 33.953125 88.027344 C 35.324219 89.839844 36.296875 91.84375 36.875 94.039062 C 35.523438 92.640625 34.148438 91.261719 32.699219 89.957031 C 30.390625 87.796875 27.851562 85.957031 25.085938 84.433594 Z M 51.3125 30.125 C 51.835938 30.894531 52.253906 31.714844 52.574219 32.589844 C 52.894531 33.460938 53.101562 34.359375 53.199219 35.285156 C 53.296875 36.210938 53.277344 37.132812 53.148438 38.050781 C 53.015625 38.972656 52.773438 39.863281 52.421875 40.722656 C 52.023438 39.226562 51.589844 37.738281 51.046875 36.289062 C 50.230469 33.910156 49.050781 31.726562 47.511719 29.738281 C 48.898438 31.808594 49.914062 34.046875 50.550781 36.457031 C 50.960938 37.871094 51.277344 39.308594 51.566406 40.773438 C 50.746094 40.414062 49.972656 39.96875 49.25 39.4375 C 48.527344 38.90625 47.875 38.300781 47.285156 37.625 C 46.699219 36.945312 46.191406 36.214844 45.769531 35.421875 C 45.34375 34.632812 45.011719 33.804688 44.769531 32.941406 C 44.207031 30.578125 44.292969 28.238281 45.023438 25.921875 C 46.265625 26.273438 47.425781 26.808594 48.5 27.527344 C 49.574219 28.242188 50.511719 29.109375 51.3125 30.125 Z M 24.902344 74.730469 C 26.648438 73.589844 28.554688 72.863281 30.613281 72.542969 C 28.941406 71.769531 27.1875 71.457031 25.351562 71.601562 L 25.132812 70.222656 C 27.234375 70.042969 29.246094 70.394531 31.167969 71.273438 C 29.386719 69.9375 27.753906 68.445312 26.265625 66.789062 L 27.304688 65.859375 C 29.121094 67.921875 31.191406 69.691406 33.507812 71.164062 L 33.617188 71.238281 C 33.617188 71.265625 33.617188 71.292969 33.617188 71.320312 C 33.402344 71.660156 33.25 72.027344 33.171875 72.421875 C 33.171875 72.421875 33.171875 72.496094 33.171875 72.519531 C 33.097656 72.84375 33.0625 73.175781 33.074219 73.507812 C 33.070312 73.609375 33.070312 73.710938 33.074219 73.8125 C 30.421875 73.738281 27.980469 74.425781 25.746094 75.867188 Z M 29.273438 64.652344 L 30.601562 64.277344 C 31.261719 66.148438 32.273438 67.804688 33.640625 69.242188 C 33.4375 68.855469 33.253906 68.46875 33.085938 68.035156 C 32.230469 66.214844 32.007812 64.324219 32.421875 62.355469 L 33.75 62.753906 C 33.4375 64.40625 33.644531 65.988281 34.367188 67.503906 C 34.675781 68.242188 35.058594 68.945312 35.511719 69.605469 C 35.171875 69.730469 34.859375 69.90625 34.570312 70.125 L 34.328125 70.332031 C 34.070312 70.582031 33.84375 70.855469 33.640625 71.152344 C 31.636719 69.355469 30.179688 67.1875 29.273438 64.652344 Z M 29.273438 64.652344 " fill-opacity="1" fill-rule="nonzero"/><path fill="#f68302" d="M 49.804688 84.507812 L 49.886719 84.507812 Z M 51.3125 84.988281 L 51.214844 84.988281 Z M 49.332031 84.347656 L 49.261719 84.347656 Z M 40.882812 80.855469 L 40.160156 80.519531 Z M 36.007812 78.089844 C 35.742188 77.882812 35.523438 77.691406 35.296875 77.484375 C 35.503906 77.695312 35.742188 77.894531 36.007812 78.089844 Z M 48.078125 83.890625 L 47.8125 83.792969 Z M 46.265625 83.1875 L 45.601562 82.921875 Z M 42.742188 81.691406 L 42.113281 81.414062 Z M 51.78125 85.132812 L 51.664062 85.132812 Z M 45.53125 82.910156 Z M 42.152344 71.054688 C 39.277344 69.339844 37.070312 69.039062 35.511719 69.65625 C 35.171875 69.78125 34.859375 69.953125 34.570312 70.175781 L 34.328125 70.378906 C 34.070312 70.628906 33.84375 70.902344 33.640625 71.199219 C 33.640625 71.230469 33.640625 71.257812 33.640625 71.285156 C 33.425781 71.625 33.277344 71.992188 33.195312 72.386719 C 33.195312 72.386719 33.195312 72.457031 33.195312 72.480469 C 33.121094 72.808594 33.089844 73.136719 33.097656 73.472656 C 33.09375 73.574219 33.09375 73.675781 33.097656 73.773438 C 33.398438 75.269531 34.15625 76.480469 35.367188 77.402344 C 36.273438 75.875 37.410156 74.550781 38.785156 73.425781 C 37.761719 74.914062 36.851562 76.46875 36.054688 78.089844 C 36.5 78.425781 36.964844 78.734375 37.445312 79.019531 L 36.875 78.65625 C 37.789062 77.058594 38.957031 75.671875 40.375 74.5 C 39.335938 75.964844 38.402344 77.496094 37.578125 79.09375 L 38.457031 79.585938 C 39.363281 78.035156 40.507812 76.679688 41.886719 75.527344 C 40.917969 76.964844 40.035156 78.457031 39.242188 80 L 40.171875 80.46875 C 41.066406 79.015625 42.175781 77.75 43.503906 76.675781 C 42.585938 78.042969 41.742188 79.453125 40.96875 80.90625 L 41.945312 81.363281 C 42.796875 79.980469 43.84375 78.773438 45.097656 77.738281 C 44.503906 78.753906 43.40625 80.242188 42.683594 81.679688 L 43.707031 82.148438 C 44.519531 80.882812 45.511719 79.773438 46.675781 78.828125 C 46.121094 79.757812 45.144531 81.109375 44.433594 82.453125 L 45.519531 82.910156 C 46.28125 81.769531 47.195312 80.769531 48.257812 79.902344 C 47.765625 80.761719 46.90625 81.96875 46.21875 83.1875 L 47.367188 83.636719 C 48.074219 82.640625 48.902344 81.757812 49.851562 80.988281 C 49.40625 81.75 48.644531 82.800781 48.027344 83.878906 L 49.234375 84.324219 C 49.875 83.480469 50.609375 82.726562 51.433594 82.066406 C 51.046875 82.730469 50.429688 83.601562 49.863281 84.480469 L 51.191406 84.90625 C 51.738281 84.234375 52.347656 83.628906 53.027344 83.09375 C 52.699219 83.636719 52.230469 84.300781 51.820312 85.0625 C 54.460938 85.824219 56.527344 86.066406 56.996094 85.28125 C 58.277344 83.152344 46.542969 73.691406 42.152344 71.054688 Z M 47.378906 83.636719 L 47.777344 83.78125 Z M 47.378906 83.636719 " fill-opacity="1" fill-rule="nonzero"/><g fill="#ff725d" fill-opacity="1"><g transform="translate(122.156845, 101.774328)"><g><path d="M 26.125 -23.046875 C 27.425781 -20.234375 28.738281 -17.039062 30.0625 -13.46875 C 31.382812 -9.894531 32.046875 -6.945312 32.046875 -4.625 C 32.046875 -3.269531 31.75 -2.320312 31.15625 -1.78125 C 30.289062 -1.082031 29.507812 -0.734375 28.8125 -0.734375 C 27.289062 -0.734375 26.125 -1.894531 25.3125 -4.21875 C 24.5 -6.539062 23.796875 -9.378906 23.203125 -12.734375 C 23.097656 -13.171875 23.015625 -13.601562 22.953125 -14.03125 C 22.898438 -14.46875 22.820312 -14.820312 22.71875 -15.09375 C 22.613281 -15.414062 22.453125 -16.007812 22.234375 -16.875 C 21.523438 -19.46875 20.832031 -21.65625 20.15625 -23.4375 C 19.488281 -25.226562 18.75 -26.3125 17.9375 -26.6875 C 17.769531 -26.75 17.160156 -26.628906 16.109375 -26.328125 C 15.054688 -26.035156 14.285156 -25.804688 13.796875 -25.640625 C 13.140625 -25.265625 12.660156 -24.910156 12.359375 -24.578125 C 12.066406 -24.253906 11.785156 -23.796875 11.515625 -23.203125 C 11.085938 -22.179688 10.875 -20.695312 10.875 -18.75 C 10.875 -17.070312 10.953125 -15.285156 11.109375 -13.390625 C 11.171875 -12.742188 11.226562 -11.929688 11.28125 -10.953125 C 11.332031 -9.984375 11.359375 -8.875 11.359375 -7.625 C 11.359375 -3.894531 10.707031 -1.488281 9.40625 -0.40625 C 9.132812 -0.132812 8.242188 0 6.734375 0 C 5.003906 0 3.945312 -0.269531 3.5625 -0.8125 C 3.351562 -1.1875 3.25 -1.863281 3.25 -2.84375 C 3.25 -4.351562 3.546875 -6.945312 4.140625 -10.625 C 4.191406 -11.164062 4.269531 -11.71875 4.375 -12.28125 C 4.488281 -12.851562 4.546875 -13.359375 4.546875 -13.796875 C 5.191406 -23.316406 5.515625 -32.8125 5.515625 -42.28125 L 5.359375 -44.703125 C 5.191406 -47.628906 5.109375 -49.171875 5.109375 -49.328125 C 5.109375 -51.117188 5.328125 -52.226562 5.765625 -52.65625 C 6.140625 -52.976562 6.976562 -53.140625 8.28125 -53.140625 C 8.976562 -53.140625 9.664062 -53.085938 10.34375 -52.984375 C 11.019531 -52.878906 11.46875 -52.71875 11.6875 -52.5 C 12.113281 -52.0625 12.328125 -50.867188 12.328125 -48.921875 C 12.328125 -47.242188 12.25 -45.757812 12.09375 -44.46875 L 12.015625 -42.359375 C 12.015625 -39.921875 11.957031 -36.269531 11.84375 -31.40625 C 11.789062 -30.8125 11.96875 -30.335938 12.375 -29.984375 C 12.78125 -29.628906 13.253906 -29.503906 13.796875 -29.609375 C 16.117188 -30.265625 17.859375 -31.875 19.015625 -34.4375 C 20.179688 -37.007812 21.28125 -40.351562 22.3125 -44.46875 C 22.414062 -45.0625 22.6875 -46.113281 23.125 -47.625 C 23.226562 -47.945312 23.429688 -48.632812 23.734375 -49.6875 C 24.035156 -50.75 24.453125 -51.578125 24.984375 -52.171875 C 25.523438 -52.765625 26.226562 -53.0625 27.09375 -53.0625 C 27.582031 -53.0625 27.988281 -53.007812 28.3125 -52.90625 C 29.71875 -52.582031 30.421875 -51.71875 30.421875 -50.3125 C 30.421875 -49.445312 30.097656 -48.144531 29.453125 -46.40625 C 29.347656 -46.195312 29.160156 -45.6875 28.890625 -44.875 L 28.078125 -41.875 C 27.265625 -38.726562 26.4375 -36.164062 25.59375 -34.1875 C 24.757812 -32.21875 23.554688 -30.554688 21.984375 -29.203125 C 22.847656 -29.046875 23.535156 -28.570312 24.046875 -27.78125 C 24.566406 -27 24.988281 -26.117188 25.3125 -25.140625 C 25.632812 -24.171875 25.90625 -23.472656 26.125 -23.046875 Z M 26.125 -23.046875 "/></g></g></g><g fill="#ff725d" fill-opacity="1"><g transform="translate(157.450661, 101.774328)"><g><path d="M 4.0625 -48.6875 C 4.382812 -50.738281 5.164062 -51.765625 6.40625 -51.765625 C 7.21875 -51.765625 8.140625 -51.359375 9.171875 -50.546875 C 9.546875 -50.273438 9.84375 -48.148438 10.0625 -44.171875 C 10.28125 -40.203125 10.441406 -36.144531 10.546875 -32 C 10.648438 -27.863281 10.734375 -25.257812 10.796875 -24.1875 C 10.898438 -18.175781 11.003906 -14.65625 11.109375 -13.625 C 11.328125 -11.738281 11.4375 -9.984375 11.4375 -8.359375 C 11.550781 -6.140625 11.742188 -4.632812 12.015625 -3.84375 C 12.285156 -3.0625 12.890625 -2.519531 13.828125 -2.21875 C 14.773438 -1.925781 16.46875 -1.835938 18.90625 -1.953125 C 19.769531 -1.953125 20.539062 -2.140625 21.21875 -2.515625 C 21.894531 -2.890625 22.367188 -3.429688 22.640625 -4.140625 C 23.554688 -6.515625 24.015625 -10.140625 24.015625 -15.015625 L 23.9375 -20.359375 C 23.882812 -21.390625 23.859375 -22.878906 23.859375 -24.828125 L 23.9375 -49.90625 C 23.9375 -50.820312 25.394531 -51.28125 28.3125 -51.28125 C 29.070312 -51.28125 29.585938 -51.1875 29.859375 -51 C 30.128906 -50.8125 30.289062 -50.457031 30.34375 -49.9375 C 30.394531 -49.425781 30.421875 -48.441406 30.421875 -46.984375 C 30.421875 -37.890625 30.394531 -31.179688 30.34375 -26.859375 L 30.34375 -17.84375 C 30.34375 -13.84375 30.316406 -10.816406 30.265625 -8.765625 C 30.265625 -8.222656 30.265625 -7.070312 30.265625 -5.3125 C 30.265625 -3.550781 29.84375 -2.289062 29 -1.53125 C 28.164062 -0.78125 26.828125 -0.269531 24.984375 0 C 22.066406 0.375 19.226562 0.5625 16.46875 0.5625 C 12.789062 0.5625 10.273438 0.1875 8.921875 -0.5625 C 7.296875 -1.425781 6.226562 -2.78125 5.71875 -4.625 C 5.207031 -6.46875 4.867188 -8.875 4.703125 -11.84375 L 4.546875 -14.203125 C 3.890625 -21.929688 3.507812 -27.664062 3.40625 -31.40625 C 3.300781 -34.101562 3.25 -36.289062 3.25 -37.96875 C 3.25 -42.1875 3.519531 -45.757812 4.0625 -48.6875 Z M 4.0625 -48.6875 "/></g></g></g><g fill="#ff725d" fill-opacity="1"><g transform="translate(191.121776, 101.774328)"><g><path d="M 33.1875 -9.328125 C 33.832031 -9.109375 34.15625 -8.675781 34.15625 -8.03125 C 34.15625 -7.269531 33.722656 -6.332031 32.859375 -5.21875 C 31.992188 -4.113281 31.238281 -3.320312 30.59375 -2.84375 C 29.34375 -1.863281 27.878906 -1.171875 26.203125 -0.765625 C 24.523438 -0.359375 22.632812 -0.101562 20.53125 0 C 19.820312 0.0507812 18.847656 0.078125 17.609375 0.078125 C 13.660156 0.078125 10.601562 -0.648438 8.4375 -2.109375 C 6.269531 -3.566406 4.890625 -6.242188 4.296875 -10.140625 C 3.597656 -14.679688 3.25 -19.0625 3.25 -23.28125 C 3.25 -30.257812 4.289062 -36.375 6.375 -41.625 C 8.457031 -46.875 11.984375 -50.253906 16.953125 -51.765625 C 17.609375 -51.984375 18.691406 -52.09375 20.203125 -52.09375 C 23.503906 -52.09375 26.664062 -51.535156 29.6875 -50.421875 C 32.71875 -49.316406 34.234375 -47.65625 34.234375 -45.4375 C 34.234375 -44.945312 34.097656 -44.351562 33.828125 -43.65625 C 33.671875 -43.21875 33.296875 -42.90625 32.703125 -42.71875 C 32.109375 -42.53125 31.429688 -42.4375 30.671875 -42.4375 C 29.367188 -42.4375 28.476562 -42.625 28 -43 C 27.394531 -43.382812 26.851562 -44.144531 26.375 -45.28125 C 25.78125 -46.46875 25.179688 -47.332031 24.578125 -47.875 C 23.609375 -48.6875 22.691406 -49.09375 21.828125 -49.09375 C 21.234375 -49.09375 20.640625 -48.984375 20.046875 -48.765625 C 16.253906 -47.523438 13.597656 -44.578125 12.078125 -39.921875 C 10.566406 -35.265625 9.8125 -29.851562 9.8125 -23.6875 C 9.8125 -19.46875 10.054688 -15.546875 10.546875 -11.921875 C 10.921875 -8.898438 11.609375 -6.722656 12.609375 -5.390625 C 13.617188 -4.066406 15.203125 -3.40625 17.359375 -3.40625 C 18.171875 -3.40625 19.304688 -3.539062 20.765625 -3.8125 C 21.898438 -4.03125 22.816406 -4.394531 23.515625 -4.90625 C 24.222656 -5.425781 25.066406 -6.171875 26.046875 -7.140625 C 26.960938 -8.054688 27.742188 -8.726562 28.390625 -9.15625 C 29.046875 -9.59375 29.832031 -9.8125 30.75 -9.8125 C 31.394531 -9.8125 32.207031 -9.648438 33.1875 -9.328125 Z M 33.1875 -9.328125 "/></g></g></g><g fill="#ff725d" fill-opacity="1"><g transform="translate(228.606249, 101.774328)"><g><path d="M 34.234375 -8.28125 C 34.234375 -7.6875 34.289062 -6.847656 34.40625 -5.765625 C 34.507812 -4.898438 34.5625 -4.273438 34.5625 -3.890625 C 34.5625 -2.972656 34.359375 -2.296875 33.953125 -1.859375 C 33.546875 -1.429688 32.773438 -1.21875 31.640625 -1.21875 C 29.910156 -1.21875 28.851562 -1.421875 28.46875 -1.828125 C 28.09375 -2.234375 27.90625 -2.894531 27.90625 -3.8125 C 27.90625 -4.726562 27.878906 -5.457031 27.828125 -6 C 27.554688 -9.84375 27.421875 -14.46875 27.421875 -19.875 C 27.421875 -21.175781 27.3125 -22.148438 27.09375 -22.796875 C 26.882812 -23.453125 26.453125 -23.898438 25.796875 -24.140625 C 25.148438 -24.378906 24.125 -24.5 22.71875 -24.5 C 22.175781 -24.5 20.878906 -24.445312 18.828125 -24.34375 L 16.234375 -24.265625 L 12.8125 -24.09375 C 11.789062 -24.09375 11.144531 -23.984375 10.875 -23.765625 C 10.601562 -23.554688 10.46875 -23.046875 10.46875 -22.234375 C 10.46875 -21.203125 10.492188 -20.28125 10.546875 -19.46875 C 10.648438 -16.65625 10.757812 -14.546875 10.875 -13.140625 C 10.875 -12.816406 10.898438 -12.4375 10.953125 -12 C 11.003906 -11.570312 11.054688 -11.140625 11.109375 -10.703125 C 11.492188 -7.953125 11.6875 -5.953125 11.6875 -4.703125 C 11.6875 -2.921875 11.414062 -1.757812 10.875 -1.21875 C 10.0625 -0.40625 9.273438 0 8.515625 0 C 7.054688 0 5.84375 -1.566406 4.875 -4.703125 C 3.789062 -8.003906 3.25 -12.601562 3.25 -18.5 C 3.25 -21.3125 3.328125 -24.039062 3.484375 -26.6875 C 3.484375 -27.445312 3.523438 -28.691406 3.609375 -30.421875 C 3.691406 -32.160156 3.707031 -33.648438 3.65625 -34.890625 C 3.65625 -35.210938 3.625 -36.035156 3.5625 -37.359375 C 3.507812 -38.691406 3.484375 -40.0625 3.484375 -41.46875 C 3.484375 -49.09375 4.617188 -52.90625 6.890625 -52.90625 C 7.703125 -52.90625 8.597656 -52.445312 9.578125 -51.53125 C 10.597656 -50.65625 11.109375 -47.867188 11.109375 -43.171875 C 11.109375 -41.492188 11.039062 -39.546875 10.90625 -37.328125 C 10.769531 -35.109375 10.675781 -33.507812 10.625 -32.53125 C 10.414062 -30.375 10.3125 -28.535156 10.3125 -27.015625 C 14.53125 -27.285156 18.367188 -27.421875 21.828125 -27.421875 C 24.265625 -27.421875 26.078125 -27.394531 27.265625 -27.34375 L 26.9375 -40.96875 L 26.78125 -42.59375 C 26.507812 -45.195312 26.375 -46.929688 26.375 -47.796875 C 26.375 -49.304688 26.585938 -50.28125 27.015625 -50.71875 C 27.398438 -51.09375 28.238281 -51.28125 29.53125 -51.28125 C 31.257812 -51.28125 32.394531 -51.035156 32.9375 -50.546875 C 33.425781 -50.117188 33.671875 -48.796875 33.671875 -46.578125 C 33.671875 -45.648438 33.617188 -44.378906 33.515625 -42.765625 C 33.398438 -41.191406 33.375 -40.191406 33.4375 -39.765625 Z M 34.234375 -8.28125 "/></g></g></g><g fill="#ff725d" fill-opacity="1"><g transform="translate(266.415258, 101.774328)"><g><path d="M 5.921875 -0.484375 C 4.734375 -0.972656 4.140625 -5.003906 4.140625 -12.578125 C 4.140625 -15.765625 4.191406 -19.035156 4.296875 -22.390625 C 4.347656 -23.316406 4.375 -24.289062 4.375 -25.3125 L 3.8125 -41.546875 C 3.8125 -42.140625 3.726562 -42.867188 3.5625 -43.734375 C 3.351562 -45.679688 3.25 -47.273438 3.25 -48.515625 C 3.25 -50.253906 3.519531 -51.394531 4.0625 -51.9375 C 4.976562 -52.800781 5.894531 -53.234375 6.8125 -53.234375 C 8.21875 -53.234375 9.554688 -52.40625 10.828125 -50.75 C 12.097656 -49.101562 12.976562 -47.75 13.46875 -46.6875 C 13.957031 -45.632812 14.820312 -43.59375 16.0625 -40.5625 C 17.46875 -37.269531 19.007812 -33.429688 20.6875 -29.046875 C 23.664062 -21.523438 25.859375 -16.25 27.265625 -13.21875 C 27.367188 -23.28125 27.421875 -30.773438 27.421875 -35.703125 L 27.265625 -39.4375 C 26.992188 -43.65625 26.859375 -46.359375 26.859375 -47.546875 C 26.859375 -50.253906 27.101562 -51.820312 27.59375 -52.25 C 28.832031 -53.28125 29.882812 -53.796875 30.75 -53.796875 C 32.914062 -53.796875 34 -50.765625 34 -44.703125 C 34 -40.210938 33.941406 -33.535156 33.828125 -24.671875 C 33.828125 -23.742188 33.9375 -21.660156 34.15625 -18.421875 C 34.476562 -14.523438 34.640625 -11.492188 34.640625 -9.328125 C 34.640625 -6.023438 34.34375 -3.644531 33.75 -2.1875 C 33.15625 -0.675781 32.289062 0.078125 31.15625 0.078125 C 30.34375 0.078125 29.445312 -0.3125 28.46875 -1.09375 C 27.5 -1.875 26.582031 -2.863281 25.71875 -4.0625 C 23.394531 -7.082031 21.429688 -10.40625 19.828125 -14.03125 C 18.234375 -17.65625 16.382812 -22.414062 14.28125 -28.3125 C 13.957031 -29.175781 13.398438 -30.691406 12.609375 -32.859375 C 11.828125 -35.023438 11.085938 -36.921875 10.390625 -38.546875 C 10.597656 -32.972656 10.867188 -24.882812 11.203125 -14.28125 C 11.203125 -13.789062 11.226562 -13.300781 11.28125 -12.8125 C 11.332031 -12.332031 11.382812 -11.875 11.4375 -11.4375 C 11.757812 -9.0625 11.921875 -7.171875 11.921875 -5.765625 C 11.921875 -3.972656 11.664062 -2.5625 11.15625 -1.53125 C 10.644531 -0.507812 9.738281 0 8.4375 0 C 7.738281 0 6.898438 -0.160156 5.921875 -0.484375 Z M 5.921875 -0.484375 "/></g></g></g><g fill="#ff725d" fill-opacity="1"><g transform="translate(304.305406, 101.774328)"><g><path d="M 18.34375 -12.65625 C 18.34375 -12.226562 18.285156 -11.414062 18.171875 -10.21875 C 18.066406 -9.03125 18.015625 -8.140625 18.015625 -7.546875 C 18.015625 -6.734375 18.09375 -6.003906 18.25 -5.359375 C 18.46875 -4.492188 18.578125 -3.894531 18.578125 -3.5625 L 18.578125 -3.25 C 18.578125 -3.132812 18.710938 -3.035156 18.984375 -2.953125 C 19.253906 -2.878906 19.660156 -2.707031 20.203125 -2.4375 C 21.609375 -2.382812 22.742188 -2.25 23.609375 -2.03125 C 24.472656 -1.8125 24.769531 -1.539062 24.5 -1.21875 C 24.019531 -0.625 22.398438 -0.328125 19.640625 -0.328125 C 18.554688 -0.328125 17.148438 -0.378906 15.421875 -0.484375 C 14.609375 -0.535156 13.6875 -0.5625 12.65625 -0.5625 C 12.65625 -0.5625 12.628906 -0.5625 12.578125 -0.5625 C 12.035156 -0.5625 11.359375 -0.484375 10.546875 -0.328125 C 8.921875 -0.109375 7.597656 0 6.578125 0 C 5.003906 0 3.921875 -0.296875 3.328125 -0.890625 C 2.953125 -1.265625 3.222656 -1.546875 4.140625 -1.734375 C 5.054688 -1.929688 5.539062 -2.03125 5.59375 -2.03125 C 6.351562 -2.351562 7.03125 -2.515625 7.625 -2.515625 C 8 -2.515625 8.335938 -2.488281 8.640625 -2.4375 C 8.941406 -2.382812 9.226562 -2.359375 9.5 -2.359375 C 10.414062 -2.359375 11.144531 -2.894531 11.6875 -3.96875 C 12.175781 -4.945312 12.421875 -6.488281 12.421875 -8.59375 C 12.421875 -9.675781 12.390625 -10.632812 12.328125 -11.46875 C 12.273438 -12.3125 12.222656 -13.03125 12.171875 -13.625 C 11.953125 -15.789062 11.867188 -17.253906 11.921875 -18.015625 L 12.421875 -48.515625 L 10.0625 -48.4375 C 6.976562 -48.4375 5.4375 -48.976562 5.4375 -50.0625 C 5.4375 -50.332031 5.488281 -50.550781 5.59375 -50.71875 C 6.03125 -51.582031 7.925781 -52.015625 11.28125 -52.015625 C 13.28125 -52.015625 15.265625 -51.914062 17.234375 -51.71875 C 19.210938 -51.53125 20.363281 -51.4375 20.6875 -51.4375 C 22.476562 -51.4375 23.941406 -51.382812 25.078125 -51.28125 C 26.210938 -51.175781 26.78125 -50.769531 26.78125 -50.0625 C 26.78125 -49.738281 26.535156 -49.332031 26.046875 -48.84375 C 25.722656 -48.46875 25.15625 -48.28125 24.34375 -48.28125 C 23.90625 -48.28125 23.203125 -48.390625 22.234375 -48.609375 C 21.960938 -48.660156 21.648438 -48.710938 21.296875 -48.765625 C 20.941406 -48.816406 20.578125 -48.84375 20.203125 -48.84375 C 19.609375 -48.84375 19.175781 -48.707031 18.90625 -48.4375 C 18.582031 -48.113281 18.421875 -47.085938 18.421875 -45.359375 C 18.421875 -44.222656 18.472656 -42.9375 18.578125 -41.5 C 18.691406 -40.070312 18.75 -39.164062 18.75 -38.78125 Z M 18.34375 -12.65625 "/></g></g></g><g fill="#ff725d" fill-opacity="1"><g transform="translate(334.325429, 101.774328)"><g><path d="M 35.546875 -1.625 C 35.753906 -1.082031 35.570312 -0.675781 35 -0.40625 C 34.4375 -0.132812 33.695312 0 32.78125 0 C 31.75 0 30.960938 -0.109375 30.421875 -0.328125 C 29.285156 -0.816406 28.472656 -1.894531 27.984375 -3.5625 C 27.503906 -5.238281 27.179688 -6.765625 27.015625 -8.140625 C 26.859375 -9.523438 26.75 -10.378906 26.6875 -10.703125 C 26.582031 -11.242188 26.53125 -12.625 26.53125 -14.84375 C 26.53125 -17.332031 26.445312 -19.425781 26.28125 -21.125 C 26.125 -22.832031 25.800781 -23.984375 25.3125 -24.578125 C 25.09375 -24.796875 24.09375 -24.90625 22.3125 -24.90625 C 21.125 -24.90625 19.972656 -24.863281 18.859375 -24.78125 C 17.753906 -24.707031 17.09375 -24.640625 16.875 -24.578125 C 15.957031 -24.148438 15.347656 -23.664062 15.046875 -23.125 C 14.753906 -22.582031 14.507812 -21.890625 14.3125 -21.046875 C 14.125 -20.210938 13.976562 -19.523438 13.875 -18.984375 C 13.769531 -18.660156 13.40625 -16.898438 12.78125 -13.703125 C 12.15625 -10.515625 11.234375 -7.5 10.015625 -4.65625 C 8.796875 -1.820312 7.515625 -0.40625 6.171875 -0.40625 C 5.304688 -0.40625 4.410156 -1.054688 3.484375 -2.359375 C 3.328125 -2.628906 3.25 -2.976562 3.25 -3.40625 C 3.25 -4.925781 4.003906 -7.957031 5.515625 -12.5 C 5.835938 -13.363281 6.160156 -14.363281 6.484375 -15.5 C 6.921875 -17.125 7.273438 -19.257812 7.546875 -21.90625 L 8.28125 -26.453125 C 8.820312 -29.046875 9.820312 -32.507812 11.28125 -36.84375 C 12.46875 -40.738281 13.222656 -43.222656 13.546875 -44.296875 C 14.203125 -46.734375 15.148438 -48.800781 16.390625 -50.5 C 17.628906 -52.207031 18.953125 -53.0625 20.359375 -53.0625 C 21.984375 -53.0625 23.523438 -51.765625 24.984375 -49.171875 C 27.097656 -45.441406 28.53125 -41.695312 29.28125 -37.9375 C 30.039062 -34.175781 30.691406 -29.347656 31.234375 -23.453125 C 31.671875 -18.742188 32.171875 -14.738281 32.734375 -11.4375 C 33.304688 -8.132812 34.242188 -4.863281 35.546875 -1.625 Z M 16.3125 -29.046875 L 16.3125 -28.8125 C 16.3125 -28.644531 16.378906 -28.492188 16.515625 -28.359375 C 16.648438 -28.222656 16.828125 -28.15625 17.046875 -28.15625 L 24.015625 -28.15625 C 24.234375 -28.15625 24.410156 -28.234375 24.546875 -28.390625 C 24.679688 -28.554688 24.722656 -28.75 24.671875 -28.96875 C 24.554688 -29.507812 24.320312 -30.847656 23.96875 -32.984375 C 23.625 -35.117188 23.25 -37.101562 22.84375 -38.9375 C 22.4375 -40.78125 21.988281 -42.328125 21.5 -43.578125 C 21.34375 -44.054688 20.992188 -44.296875 20.453125 -44.296875 C 19.910156 -44.296875 19.554688 -44.023438 19.390625 -43.484375 C 19.390625 -43.429688 19.175781 -42.21875 18.75 -39.84375 C 18.632812 -39.300781 18.492188 -38.515625 18.328125 -37.484375 C 18.171875 -36.453125 18.007812 -35.695312 17.84375 -35.21875 Z M 16.3125 -29.046875 "/></g></g></g><g fill="#000000" fill-opacity="1"><g transform="translate(159.650149, 153.647908)"><g><path d="M 11.640625 -5.40625 C 11.640625 -6.46875 11.347656 -7.28125 10.765625 -7.84375 C 10.191406 -8.414062 9.148438 -8.96875 7.640625 -9.5 C 6.140625 -10.039062 4.988281 -10.609375 4.1875 -11.203125 C 3.394531 -11.796875 2.796875 -12.46875 2.390625 -13.21875 C 1.992188 -13.976562 1.796875 -14.847656 1.796875 -15.828125 C 1.796875 -17.523438 2.359375 -18.921875 3.484375 -20.015625 C 4.617188 -21.109375 6.101562 -21.65625 7.9375 -21.65625 C 9.1875 -21.65625 10.300781 -21.375 11.28125 -20.8125 C 12.257812 -20.25 13.007812 -19.46875 13.53125 -18.46875 C 14.0625 -17.46875 14.328125 -16.375 14.328125 -15.1875 L 11.640625 -15.1875 C 11.640625 -16.507812 11.320312 -17.53125 10.6875 -18.25 C 10.050781 -18.976562 9.132812 -19.34375 7.9375 -19.34375 C 6.851562 -19.34375 6.007812 -19.035156 5.40625 -18.421875 C 4.8125 -17.816406 4.515625 -16.96875 4.515625 -15.875 C 4.515625 -14.976562 4.835938 -14.222656 5.484375 -13.609375 C 6.128906 -13.003906 7.128906 -12.460938 8.484375 -11.984375 C 10.585938 -11.285156 12.085938 -10.425781 12.984375 -9.40625 C 13.890625 -8.394531 14.34375 -7.066406 14.34375 -5.421875 C 14.34375 -3.691406 13.78125 -2.304688 12.65625 -1.265625 C 11.53125 -0.222656 10 0.296875 8.0625 0.296875 C 6.820312 0.296875 5.675781 0.0234375 4.625 -0.515625 C 3.570312 -1.054688 2.742188 -1.816406 2.140625 -2.796875 C 1.546875 -3.785156 1.25 -4.914062 1.25 -6.1875 L 3.953125 -6.1875 C 3.953125 -4.863281 4.316406 -3.835938 5.046875 -3.109375 C 5.785156 -2.378906 6.789062 -2.015625 8.0625 -2.015625 C 9.25 -2.015625 10.140625 -2.316406 10.734375 -2.921875 C 11.335938 -3.523438 11.640625 -4.351562 11.640625 -5.40625 Z M 11.640625 -5.40625 "/></g></g></g><g fill="#000000" fill-opacity="1"><g transform="translate(181.552643, 153.647908)"><g><path d="M 14.78125 -19.046875 L 9.171875 -19.046875 L 9.171875 0 L 6.484375 0 L 6.484375 -19.046875 L 0.875 -19.046875 L 0.875 -21.359375 L 14.78125 -21.359375 Z M 14.78125 -19.046875 "/></g></g></g><g fill="#000000" fill-opacity="1"><g transform="translate(203.528471, 153.647908)"><g><path d="M 15.03125 -21.359375 L 15.03125 -6.171875 C 15.019531 -4.148438 14.4375 -2.566406 13.28125 -1.421875 C 12.125 -0.273438 10.515625 0.296875 8.453125 0.296875 C 6.335938 0.296875 4.722656 -0.257812 3.609375 -1.375 C 2.492188 -2.5 1.925781 -4.097656 1.90625 -6.171875 L 1.90625 -21.359375 L 4.578125 -21.359375 L 4.578125 -6.28125 C 4.578125 -4.84375 4.878906 -3.769531 5.484375 -3.0625 C 6.097656 -2.351562 7.085938 -2 8.453125 -2 C 9.816406 -2 10.804688 -2.351562 11.421875 -3.0625 C 12.035156 -3.769531 12.34375 -4.84375 12.34375 -6.28125 L 12.34375 -21.359375 Z M 15.03125 -21.359375 "/></g></g></g><g fill="#000000" fill-opacity="1"><g transform="translate(226.736289, 153.647908)"><g><path d="M 2.296875 0 L 2.296875 -21.359375 L 7.390625 -21.359375 C 9.890625 -21.359375 11.828125 -20.578125 13.203125 -19.015625 C 14.578125 -17.460938 15.265625 -15.269531 15.265625 -12.4375 L 15.265625 -8.859375 C 15.265625 -6.035156 14.566406 -3.851562 13.171875 -2.3125 C 11.773438 -0.769531 9.75 0 7.09375 0 Z M 4.984375 -19.046875 L 4.984375 -2.296875 L 7.140625 -2.296875 C 9.023438 -2.296875 10.40625 -2.835938 11.28125 -3.921875 C 12.15625 -5.003906 12.601562 -6.609375 12.625 -8.734375 L 12.625 -12.515625 C 12.625 -14.765625 12.1875 -16.414062 11.3125 -17.46875 C 10.445312 -18.519531 9.140625 -19.046875 7.390625 -19.046875 Z M 4.984375 -19.046875 "/></g></g></g><g fill="#000000" fill-opacity="1"><g transform="translate(250.222771, 153.647908)"><g><path d="M 12.546875 -9.875 L 4.984375 -9.875 L 4.984375 -2.296875 L 13.796875 -2.296875 L 13.796875 0 L 2.296875 0 L 2.296875 -21.359375 L 13.640625 -21.359375 L 13.640625 -19.046875 L 4.984375 -19.046875 L 4.984375 -12.171875 L 12.546875 -12.171875 Z M 12.546875 -9.875 "/></g></g></g><g fill="#000000" fill-opacity="1"><g transform="translate(271.479938, 153.647908)"><g><path d="M 16.25 0 L 13.5625 0 L 5 -16.46875 L 5 0 L 2.296875 0 L 2.296875 -21.359375 L 5 -21.359375 L 13.578125 -4.828125 L 13.578125 -21.359375 L 16.25 -21.359375 Z M 16.25 0 "/></g></g></g><g fill="#000000" fill-opacity="1"><g transform="translate(296.418408, 153.647908)"><g><path d="M 14.78125 -19.046875 L 9.171875 -19.046875 L 9.171875 0 L 6.484375 0 L 6.484375 -19.046875 L 0.875 -19.046875 L 0.875 -21.359375 L 14.78125 -21.359375 Z M 14.78125 -19.046875 "/></g></g></g><g fill="#000000" fill-opacity="1"><g transform="translate(318.394236, 153.647908)"><g><path d="M 12.265625 -5.578125 L 5.046875 -5.578125 L 3.390625 0 L 0.625 0 L 7.515625 -21.359375 L 9.8125 -21.359375 L 16.703125 0 L 13.953125 0 Z M 5.75 -7.890625 L 11.578125 -7.890625 L 8.65625 -17.609375 Z M 5.75 -7.890625 "/></g></g></g></svg>